<svg width="63" height="60" viewBox="0 0 63 60" fill="none" xmlns="http://www.w3.org/2000/svg">
<g id="3">
<g id="Group 431">
<g id="Group 430">
<rect id="Rectangle 114" x="11.7646" y="10.5889" width="38.8235" height="22.3529" fill="#61D9E2"/>
<rect id="Rectangle 115" x="11.7646" y="35.2949" width="47.0588" height="20" fill="#72F4B7"/>
</g>
<g id="Glass effect" filter="url(#filter0_b_323_3961)">
<rect width="62.3529" height="60" rx="10" fill="url(#paint0_linear_323_3961)" fill-opacity="0.02"/>
</g>
</g>
<g id="icon sim-push">
<g id="vector">
<g id="Group">
<path id="Vector" d="M31.0962 7.0765C34.9797 7.0765 38.8649 7.10282 42.7483 7.05896C43.8296 7.04668 44.7413 7.34138 45.5469 8.01323C46.0487 8.43248 46.683 8.59387 47.2325 8.93418C48.7325 9.86214 49.8473 11.1602 50.6071 12.6548C51.1106 13.6459 51.5912 14.7563 51.5912 15.9579C51.5841 23.7868 51.653 31.6174 51.5505 39.4463C51.5187 41.8829 50.2307 43.9054 48.4357 45.5719C47.365 46.5665 46.107 47.2384 44.7448 47.7313C44.3349 47.8787 43.8773 48.0857 43.4762 48.0278C42.1087 47.8313 41.3879 48.554 40.7289 49.5925C39.6564 51.2835 38.5327 52.943 37.2942 54.5235C37.1458 54.7112 37.0062 54.7796 36.8083 54.8234C35.3366 55.1532 34.0662 54.5708 33.2235 53.271C32.2411 51.7536 31.1652 50.2942 30.2022 48.7663C29.7411 48.0348 29.1245 47.8576 28.3471 47.8611C25.4637 47.8699 22.5749 47.9664 19.6968 47.8401C16.1791 47.6857 13.5536 45.9754 11.8133 42.9091C10.8911 41.283 10.573 39.5779 10.5889 37.715C10.649 30.7912 10.6649 23.8657 10.5925 16.9437C10.5501 12.8653 12.6314 10.327 15.9547 8.23601C17.718 7.12737 19.4371 7.07826 21.2958 7.07475C24.5626 7.06773 27.8277 7.073 31.0945 7.073V7.08001L31.0962 7.0765ZM12.7639 27.674C12.7639 31.3841 12.7656 35.0942 12.7621 38.8043C12.7621 39.7147 12.9141 40.5409 13.3346 41.4022C14.7533 44.3001 17.0201 45.7491 20.2428 45.7544C23.2446 45.7596 26.2464 45.7754 29.2464 45.7368C30.1952 45.7245 30.8524 46.0262 31.3683 46.8384C32.462 48.5575 33.6334 50.2257 34.75 51.9291C35.3366 52.8237 35.8649 52.8763 36.4744 51.9817C37.538 50.4187 38.5681 48.8329 39.5963 47.2454C40.1388 46.4087 40.7024 45.6614 41.8685 45.7421C45.3473 45.9824 49.2943 43.2038 49.2625 38.564C49.2113 31.3192 49.2608 24.0727 49.2378 16.828C49.2343 15.9053 49.2325 14.9387 48.8208 14.0827C47.3844 11.0883 44.9639 9.55691 41.6299 9.54638C34.568 9.52358 27.5043 9.54638 20.4424 9.53235C18.7074 9.52884 17.1085 9.98668 15.7551 11.0164C13.9512 12.3899 12.7515 14.1511 12.7603 16.5403C12.7745 20.2504 12.7639 23.9605 12.7639 27.6705V27.674Z" fill="white"/>
<path id="Vector_2" d="M43.3417 27.6638C43.3417 30.4986 43.3558 33.3333 43.3381 36.1681C43.3258 38.1345 42.5855 39.7343 40.8487 40.8026C40.1561 41.2289 39.4088 41.4639 38.5978 41.4639C33.3875 41.4692 28.1772 41.4832 22.9669 41.4604C20.4545 41.4499 18.2107 39.294 18.1753 36.7715C18.1188 32.6808 18.1435 28.5883 18.17 24.4975C18.1806 23.0135 18.7177 21.7347 19.8096 20.6612C21.504 18.9982 23.1365 17.2721 24.8026 15.5828C25.9652 14.404 27.3574 13.7655 29.05 13.7743C32.2249 13.7918 35.4034 13.6865 38.5731 13.8058C41.3894 13.9111 43.2516 15.9793 43.3258 18.8947C43.4 21.8154 43.3417 24.7396 43.3434 27.6621L43.3417 27.6638ZM24.8061 31.7265H24.8097C24.8097 32.7194 24.8008 33.7122 24.8114 34.7033C24.8291 36.2295 26.1948 37.7363 27.732 37.7819C29.8468 37.8451 31.9652 37.8398 34.0801 37.7819C35.5907 37.7398 37.1614 35.9997 37.1632 34.5069C37.1632 32.6685 37.172 30.8284 37.1632 28.99C37.1561 27.4639 35.49 25.7237 33.9564 25.6974C31.8999 25.6641 29.8398 25.6676 27.7832 25.6992C26.3804 25.722 24.8432 27.2744 24.8097 28.662C24.7849 29.6829 24.8044 30.7056 24.8044 31.7265H24.8061Z" fill="white"/>
<path id="Vector_3" d="M34.7602 31.9427C34.7602 32.904 34.7567 33.8652 34.7602 34.8248C34.7638 35.3879 34.5535 35.8545 33.9599 35.8843C33.2479 35.9194 33.2496 35.3388 33.2496 34.8283C33.2461 32.8776 33.2461 30.927 33.2461 28.9764C33.2461 28.4519 33.292 27.9203 33.9864 27.9238C34.6648 27.9256 34.7514 28.4589 34.7585 28.9746C34.7744 29.964 34.7638 30.9551 34.7638 31.9444H34.7602V31.9427Z" fill="white"/>
<path id="Vector_4" d="M28.5975 31.9265C28.5975 32.9475 28.5975 33.9666 28.5975 34.9876C28.5975 35.4209 28.5251 35.8699 27.9951 35.8892C27.4862 35.9068 27.2707 35.5524 27.1594 35.0525C27.0516 34.5701 27.2265 34.1298 27.2053 33.6667C27.1346 32.1546 27.2883 30.6407 27.1011 29.1286C27.0286 28.5445 27.2353 27.9358 27.9385 27.9288C28.624 27.9218 28.6011 28.541 28.6046 29.0427C28.6099 30.004 28.6046 30.967 28.6046 31.9283H28.5975V31.9265Z" fill="white"/>
<path id="Vector_5" d="M31.5907 31.9464C31.5907 32.9393 31.5907 33.9304 31.5907 34.9232C31.5907 35.3477 31.5907 35.7863 30.9847 35.7775C30.4776 35.7705 30.2303 35.4618 30.2267 34.9916C30.2144 32.8901 30.2126 30.7904 30.2267 28.6889C30.2303 28.2696 30.4582 27.9434 30.9246 27.9434C31.4034 27.9434 31.5837 28.2872 31.589 28.7082C31.6013 29.787 31.5925 30.8676 31.5925 31.9464H31.589H31.5907Z" fill="white"/>
</g>
</g>
</g>
</g>
<defs>
<filter id="filter0_b_323_3961" x="-20" y="-20" width="102.353" height="100" filterUnits="userSpaceOnUse" color-interpolation-filters="sRGB">
<feFlood flood-opacity="0" result="BackgroundImageFix"/>
<feGaussianBlur in="BackgroundImageFix" stdDeviation="10"/>
<feComposite in2="SourceAlpha" operator="in" result="effect1_backgroundBlur_323_3961"/>
<feBlend mode="normal" in="SourceGraphic" in2="effect1_backgroundBlur_323_3961" result="shape"/>
</filter>
<linearGradient id="paint0_linear_323_3961" x1="3.0027" y1="3.07334" x2="100.24" y2="44.9981" gradientUnits="userSpaceOnUse">
<stop stop-color="white"/>
<stop offset="1" stop-color="#FCFFFD" stop-opacity="0"/>
</linearGradient>
</defs>
</svg>
