<svg width="259" height="30" viewBox="0 0 259 30" fill="none" xmlns="http://www.w3.org/2000/svg">
<path d="M8.16 13.28H21.08V19.4H8.16V13.28ZM8.72 29H0.8V0.999998H22.76V7.12H8.72V29ZM26.4641 29V0.999998H34.3841V22.72H47.7441V29H26.4641ZM47.7916 29L60.1516 0.999998H67.9516L80.3516 29H72.1116L62.4316 4.88H65.5516L55.8716 29H47.7916ZM54.5516 23.56L56.5916 17.72H70.2716L72.3116 23.56H54.5516ZM92.4369 29.56C90.1435 29.56 87.9302 29.28 85.7969 28.72C83.6902 28.1333 81.9702 27.3867 80.6369 26.48L83.2369 20.64C84.4902 21.44 85.9302 22.1067 87.5569 22.64C89.2102 23.1467 90.8502 23.4 92.4769 23.4C93.5702 23.4 94.4502 23.3067 95.1169 23.12C95.7835 22.9067 96.2635 22.64 96.5569 22.32C96.8769 21.9733 97.0369 21.5733 97.0369 21.12C97.0369 20.48 96.7435 19.9733 96.1569 19.6C95.5702 19.2267 94.8102 18.92 93.8769 18.68C92.9435 18.44 91.9035 18.2 90.7569 17.96C89.6369 17.72 88.5035 17.4133 87.3569 17.04C86.2369 16.6667 85.2102 16.1867 84.2769 15.6C83.3435 14.9867 82.5835 14.2 81.9969 13.24C81.4102 12.2533 81.1169 11.0133 81.1169 9.52C81.1169 7.84 81.5702 6.32 82.4769 4.96C83.4102 3.6 84.7969 2.50667 86.6369 1.68C88.4769 0.853332 90.7702 0.439998 93.5169 0.439998C95.3569 0.439998 97.1569 0.653332 98.9169 1.08C100.704 1.48 102.29 2.08 103.677 2.88L101.237 8.76C99.9035 8.04 98.5835 7.50667 97.2769 7.16C95.9702 6.78667 94.7035 6.6 93.4769 6.6C92.3835 6.6 91.5035 6.72 90.8369 6.96C90.1702 7.17333 89.6902 7.46666 89.3969 7.84C89.1035 8.21333 88.9569 8.64 88.9569 9.12C88.9569 9.73333 89.2369 10.2267 89.7969 10.6C90.3835 10.9467 91.1435 11.24 92.0769 11.48C93.0369 11.6933 94.0769 11.92 95.1969 12.16C96.3435 12.4 97.4769 12.7067 98.5969 13.08C99.7435 13.4267 100.784 13.9067 101.717 14.52C102.65 15.1067 103.397 15.8933 103.957 16.88C104.544 17.84 104.837 19.0533 104.837 20.52C104.837 22.1467 104.37 23.6533 103.437 25.04C102.53 26.4 101.157 27.4933 99.3169 28.32C97.5035 29.1467 95.2102 29.56 92.4369 29.56ZM127.215 0.999998H135.135V29H127.215V0.999998ZM116.415 29H108.495V0.999998H116.415V29ZM127.775 18.08H115.855V11.52H127.775V18.08ZM166.323 29.56C164.109 29.56 162.056 29.2133 160.163 28.52C158.296 27.8 156.669 26.7867 155.283 25.48C153.923 24.1733 152.856 22.64 152.083 20.88C151.309 19.0933 150.923 17.1333 150.923 15C150.923 12.8667 151.309 10.92 152.083 9.16C152.856 7.37333 153.923 5.82667 155.283 4.52C156.669 3.21333 158.296 2.21333 160.163 1.52C162.056 0.799998 164.109 0.439998 166.323 0.439998C168.909 0.439998 171.216 0.893332 173.243 1.8C175.296 2.70667 177.003 4.01333 178.363 5.72L173.323 10.28C172.416 9.21333 171.416 8.4 170.323 7.84C169.256 7.28 168.056 7 166.723 7C165.576 7 164.523 7.18667 163.563 7.56C162.603 7.93333 161.776 8.48 161.083 9.2C160.416 9.89333 159.883 10.7333 159.483 11.72C159.109 12.7067 158.923 13.8 158.923 15C158.923 16.2 159.109 17.2933 159.483 18.28C159.883 19.2667 160.416 20.12 161.083 20.84C161.776 21.5333 162.603 22.0667 163.563 22.44C164.523 22.8133 165.576 23 166.723 23C168.056 23 169.256 22.72 170.323 22.16C171.416 21.6 172.416 20.7867 173.323 19.72L178.363 24.28C177.003 25.96 175.296 27.2667 173.243 28.2C171.216 29.1067 168.909 29.56 166.323 29.56ZM178.065 29L190.425 0.999998H198.225L210.625 29H202.385L192.705 4.88H195.825L186.145 29H178.065ZM184.825 23.56L186.865 17.72H200.545L202.585 23.56H184.825ZM212.87 29V0.999998H220.79V22.72H234.15V29H212.87ZM237.284 29V0.999998H245.204V22.72H258.564V29H237.284Z" fill="url(#paint0_linear_103_2235)"/>
<defs>
<linearGradient id="paint0_linear_103_2235" x1="128.5" y1="-10" x2="128.5" y2="39" gradientUnits="userSpaceOnUse">
<stop stop-color="#73F7B3"/>
<stop offset="1" stop-color="#60D7E5"/>
</linearGradient>
</defs>
</svg>
