<svg width="43" height="38" viewBox="0 0 43 38" fill="none" xmlns="http://www.w3.org/2000/svg">
<path d="M0.0016829 14.298C0.276837 13.4732 0.806108 12.8495 1.77714 12.6605C2.33418 12.5528 2.91394 12.5376 3.48528 12.4906C7.02105 12.203 10.5577 11.9154 14.0951 11.6377C14.4056 11.6134 14.5478 11.4905 14.6648 11.2408C16.2088 7.95981 17.7689 4.68561 19.3146 1.40534C19.7261 0.532725 20.4186 0.00612133 21.483 5.09736e-05C22.5685 -0.00601938 23.2677 0.530448 23.6859 1.41824C25.2199 4.67498 26.7732 7.92566 28.2987 11.1854C28.4544 11.5186 28.6673 11.6195 29.0392 11.6483C31.7546 11.8585 34.4691 12.0861 37.1836 12.3092C38.4365 12.4124 39.6903 12.5065 40.9415 12.6234C41.9159 12.7144 42.5756 13.2084 42.8735 14.0355C43.1798 14.8846 42.9223 15.6388 42.1843 16.2269C39.9107 18.0404 37.6237 19.8403 35.3417 21.6454C34.5844 22.2441 33.8304 22.8466 33.0656 23.4369C32.8838 23.5773 32.8426 23.7018 32.8989 23.921C33.7917 27.4305 34.6651 30.9444 35.5554 34.4546C35.7868 35.3675 35.5571 36.1346 34.7316 36.7136C33.9415 37.2682 32.9856 37.2652 32.0264 36.7477C28.6437 34.9236 25.2586 33.1032 21.8835 31.2669C21.5831 31.1038 21.3795 31.1266 21.0985 31.2791C17.7201 33.11 14.3366 34.9334 10.9515 36.753C9.51089 37.5277 7.87343 37.0034 7.43083 35.6376C7.30545 35.2514 7.32565 34.8674 7.4241 34.4804C8.30257 31.0067 9.17431 27.5314 10.0662 24.0599C10.1512 23.7306 10.0721 23.5432 9.7953 23.3254C6.85191 21.0149 3.92536 18.6861 0.980287 16.3771C0.509076 16.0083 0.204472 15.5682 0 15.0538V14.2965L0.0016829 14.298Z" fill="#FCC011"/>
</svg>
