<svg width="208" height="90" viewBox="0 0 208 90" fill="none" xmlns="http://www.w3.org/2000/svg">
<path d="M106.642 22.4437C110.996 19.0108 115.91 18.2194 121.126 19.7008C127.898 21.6221 132.068 27.9445 131.802 34.9613C131.449 44.3091 124.268 50.1464 115.99 50.6337C111.207 50.9162 106.714 50.1938 102.807 47.2741C98.5781 44.1129 96.2629 39.8131 95.768 34.6443C95.3799 30.5925 95.6546 26.5408 96.6248 22.558C97.6232 18.4609 99.9646 15.3105 103.383 12.8479C106.487 10.6096 109.978 9.10448 113.405 7.46997C114.711 6.84678 115.973 6.1395 117.259 5.4775C119.352 4.40363 120.743 2.70011 121.667 0.604138C121.916 0.0391734 122.084 -0.198026 122.735 0.192274C124.721 1.38043 126.734 2.52545 128.77 3.62519C129.395 3.96158 129.433 4.326 129.256 4.91469C128.523 7.33196 127.22 9.33521 125.099 10.7929C122.186 12.7962 118.94 14.1331 115.67 15.4183C113.747 16.1752 111.859 17.0011 110.146 18.1676C108.561 19.248 107.353 20.6302 106.64 22.4437H106.642ZM114.067 42.4697C120.183 42.4396 124.089 37.3894 122.319 31.8023C121.068 27.8583 116.729 25.4928 112.293 26.3381C108.589 27.0432 105.87 29.3936 105.284 32.406C104.2 37.9522 108.17 42.4978 114.07 42.4697H114.067Z" fill="#60D7E5"/>
<path d="M18.2624 29.5684C20.3771 26.2692 22.3958 23.1231 24.4145 19.9748C25.3084 18.5796 26.2327 17.2039 27.0699 15.7764C27.4339 15.1553 27.8678 14.9893 28.5567 15.0001C30.8436 15.0411 33.1326 15.0561 35.4195 14.9958C36.3112 14.9721 36.5728 15.2006 36.5684 16.1128C36.5335 25.8465 36.5466 35.5825 36.5466 45.3163C36.5466 46.4656 36.5074 47.6171 36.5619 48.7643C36.5946 49.4866 36.418 49.7713 35.6157 49.754C33.2918 49.7023 30.9678 49.7001 28.6439 49.754C27.8351 49.7734 27.7021 49.4802 27.7064 48.7643C27.7326 42.4785 27.7217 36.1949 27.7217 29.8293C27.2835 29.9738 27.1963 30.3404 27.0241 30.6078C24.469 34.5733 21.9249 38.5431 19.3764 42.513C18.6025 43.7162 17.9289 43.7076 17.1418 42.4785C14.4037 38.2089 11.6655 33.9372 8.79656 29.4627C8.76604 29.9954 8.73334 30.3231 8.73334 30.6509C8.73116 36.6865 8.71372 42.72 8.75078 48.7535C8.75514 49.5794 8.51751 49.7713 7.71743 49.754C5.43054 49.7001 3.14147 49.7109 0.854585 49.7497C0.183125 49.7605 0.00218006 49.5729 0.00218006 48.9066C0.0218006 37.879 0.0239807 26.8514 0 15.8238C0 15.1295 0.231087 14.9936 0.869846 15.0022C3.26574 15.0367 5.66381 15.0411 8.0597 15.0001C8.72898 14.9893 9.09305 15.2222 9.44186 15.7721C12.3326 20.3327 15.2539 24.8719 18.2602 29.5684H18.2624Z" fill="#60D7E5"/>
<path d="M160.35 30.2886C156.986 34.3081 153.701 38.2326 150.416 42.1594C148.495 44.4559 146.564 46.7438 144.663 49.0575C144.261 49.5449 143.845 49.7691 143.193 49.7497C141.597 49.7044 139.995 49.6893 138.399 49.754C137.562 49.7864 137.307 49.5729 137.311 48.7039C137.351 41.5189 137.333 34.334 137.333 27.149C137.333 23.412 137.357 19.6772 137.314 15.9403C137.305 15.1661 137.54 14.985 138.29 15.0001C140.614 15.0475 142.94 15.0475 145.262 15.0001C146.032 14.985 146.234 15.2157 146.23 15.964C146.199 21.6762 146.213 27.3883 146.213 33.1005V34.2994C146.716 34.3296 146.832 33.9221 147.037 33.6763C152.042 27.7053 157.043 21.7279 162.027 15.7376C162.454 15.2243 162.881 14.9699 163.581 14.9979C165.105 15.0583 166.633 15.0712 168.155 14.9979C169.114 14.9505 169.426 15.1834 169.422 16.2055C169.378 26.515 169.395 36.8245 169.395 47.1362C169.395 48.8699 168.513 49.7368 166.749 49.7368C165.114 49.7368 163.476 49.6721 161.846 49.7605C160.823 49.8144 160.499 49.5729 160.512 48.4926C160.573 42.8537 160.542 37.2127 160.536 31.5738C160.536 31.1965 160.645 30.7975 160.346 30.2929L160.35 30.2886Z" fill="#60D7E5"/>
<path d="M207.98 32.3656C207.98 37.8255 207.963 43.2853 208 48.7452C208.006 49.5582 207.786 49.7738 206.973 49.7544C204.649 49.6983 202.323 49.694 200.001 49.7544C199.125 49.7781 198.926 49.5021 198.929 48.6719C198.959 40.7344 198.929 32.7947 198.97 24.8571C198.974 23.8846 198.743 23.5763 197.725 23.6086C195.294 23.6862 192.859 23.6755 190.426 23.6129C189.508 23.5892 189.19 23.7703 189.205 24.7687C189.269 28.6825 189.245 32.5985 189.205 36.5144C189.184 38.826 188.798 41.0859 187.926 43.2444C186.345 47.156 183.361 49.2283 179.19 49.735C177.817 49.901 176.446 49.9528 175.063 49.7846C174.549 49.7221 174.398 49.5452 174.403 49.0514C174.422 46.6816 174.414 44.3096 174.412 41.9398C174.412 41.5926 174.405 41.3576 174.933 41.3921C178.24 41.6142 179.735 40.2406 180.062 36.7861C180.234 34.9575 180.215 33.1268 180.215 31.296C180.215 26.2307 180.228 21.1655 180.2 16.1023C180.195 15.3174 180.319 14.9918 181.239 14.9961C189.809 15.035 198.381 15.035 206.951 14.9961C207.865 14.9918 207.998 15.3023 207.993 16.0937C207.963 21.517 207.978 26.9423 207.978 32.3656H207.98Z" fill="#60D7E5"/>
<path d="M66.2825 7.75248C71.0743 7.75248 75.8682 7.78483 80.66 7.73092C81.9942 7.71583 83.1191 8.07809 84.1132 8.90398C84.7324 9.41935 85.515 9.61773 86.193 10.0361C88.0439 11.1768 89.4195 12.7725 90.3569 14.6097C90.9783 15.828 91.5712 17.193 91.5712 18.6701C91.5625 28.2939 91.6475 37.9199 91.5211 47.5437C91.4818 50.5389 89.8926 53.0251 87.6776 55.0737C86.3565 56.2963 84.8043 57.1222 83.1235 57.7281C82.6177 57.9093 82.0531 58.1637 81.5582 58.0926C79.8708 57.851 78.9814 58.7395 78.1682 60.016C76.8449 62.0948 75.4584 64.1347 73.9302 66.0775C73.747 66.3083 73.5748 66.3924 73.3306 66.4463C71.5146 66.8517 69.9472 66.1358 68.9073 64.5379C67.6952 62.6727 66.3675 60.8786 65.1794 59.0004C64.6104 58.1012 63.8495 57.8834 62.8903 57.8877C59.3324 57.8985 55.768 58.0171 52.2167 57.8618C47.8762 57.6721 44.6366 55.5696 42.4893 51.8003C41.3513 49.8014 40.9589 47.7054 40.9785 45.4154C41.0526 36.9042 41.0722 28.3909 40.9828 19.882C40.9305 14.8685 43.4986 11.7482 47.5993 9.17783C49.775 7.81502 51.8962 7.75464 54.1897 7.75033C58.2206 7.7417 62.2494 7.74817 66.2803 7.74817V7.7568L66.2825 7.75248ZM43.6621 33.0724C43.6621 37.6331 43.6643 42.1938 43.66 46.7545C43.66 47.8736 43.8474 48.8892 44.3663 49.948C46.1169 53.5103 48.9139 55.2915 52.8904 55.2979C56.5943 55.3044 60.2982 55.3238 64 55.2764C65.1707 55.2613 65.9816 55.6322 66.6182 56.6306C67.9677 58.7438 69.4131 60.7945 70.7909 62.8883C71.5146 63.988 72.1665 64.0527 72.9186 62.953C74.231 61.0317 75.502 59.0823 76.7708 57.1308C77.4401 56.1022 78.1355 55.1836 79.5743 55.2828C83.8669 55.5783 88.7371 52.1626 88.6979 46.459C88.6347 37.5533 88.6957 28.6454 88.6674 19.7397C88.663 18.6054 88.6608 17.4173 88.1529 16.365C86.3805 12.6841 83.3938 10.8016 79.28 10.7886C70.5663 10.7606 61.8504 10.7886 53.1367 10.7714C50.9959 10.7671 49.0229 11.3299 47.353 12.5957C45.1271 14.2841 43.6469 16.4491 43.6578 19.386C43.6752 23.9467 43.6621 28.5074 43.6621 33.0681V33.0724Z" fill="black"/>
<path d="M142.962 66.2633C147.68 63.2056 151.774 63.4752 154.843 67.0461C157.939 70.6494 157.869 76.258 154.686 79.6866C151.469 83.1519 147.309 83.3589 142.831 80.1783C142.831 82.7594 142.79 85.2543 142.853 87.7471C142.875 88.6592 142.685 89.0797 141.676 88.9482C141.033 88.8641 140.37 88.9374 139.718 88.9309C138.168 88.9137 138.303 89.1509 138.301 87.5767C138.297 81.7222 138.301 75.8677 138.301 70.0132C138.301 68.4693 138.325 66.9232 138.29 65.3792C138.275 64.7711 138.467 64.5361 139.092 64.59C139.633 64.6374 140.18 64.5986 140.725 64.5986C142.013 64.5986 142.76 65.1528 142.966 66.2612L142.962 66.2633ZM147.725 68.4218C144.894 68.4046 142.877 70.3863 142.833 73.2262C142.79 76.0165 144.841 78.1405 147.61 78.1729C150.446 78.2074 152.563 76.1179 152.563 73.2866C152.563 70.4553 150.542 68.4391 147.725 68.4218Z" fill="black"/>
<path d="M174.301 75.9857C175.064 73.7129 175.811 71.4875 176.559 69.2622C176.982 68.0029 177.435 66.7543 177.81 65.4821C177.978 64.9085 178.218 64.6476 178.859 64.6756C179.982 64.7274 181.109 64.708 182.234 64.6821C182.798 64.6691 182.914 64.8158 182.709 65.3635C180.49 71.3129 178.362 77.2967 176.06 83.2138C174.959 86.0451 172.995 88.1518 169.816 88.844C167.414 89.3659 167.252 89.2516 167.252 86.8494C167.252 86.7416 167.27 86.6316 167.25 86.5259C167.028 85.34 167.398 84.7426 168.739 84.6542C170.185 84.5593 170.987 83.5006 171.586 82.2758C171.822 81.7949 171.586 81.4499 171.425 81.0661C169.317 75.9577 167.218 70.8449 165.077 65.7495C164.73 64.9258 164.758 64.6001 165.772 64.6756C166.71 64.7468 167.662 64.7338 168.602 64.6756C169.299 64.6325 169.605 64.8977 169.855 65.5382C171.094 68.7145 172.393 71.8671 173.677 75.024C173.803 75.3366 173.832 75.7183 174.301 75.9835V75.9857Z" fill="black"/>
<path d="M191.918 73.3507C191.918 70.7652 191.939 68.1797 191.902 65.5942C191.891 64.887 192.114 64.6735 192.829 64.6778C197.584 64.7058 202.341 64.708 207.095 64.6778C207.841 64.6735 207.987 64.9322 207.985 65.6072C207.959 70.8126 207.961 76.0202 207.985 81.2257C207.987 81.8532 207.869 82.1335 207.158 82.0882C205.968 82.0127 204.412 82.472 203.673 81.8877C202.892 81.2688 203.452 79.6666 203.435 78.4979C203.396 75.6256 203.4 72.7533 203.437 69.8811C203.446 69.1716 203.315 68.8654 202.506 68.8956C200.767 68.9582 199.02 68.9474 197.281 68.8999C196.59 68.8805 196.433 69.1156 196.437 69.7603C196.465 73.5296 196.428 77.3011 196.47 81.0704C196.478 81.8596 196.302 82.1658 195.458 82.0904C194.595 82.0127 193.712 82.0192 192.846 82.0904C192.042 82.155 191.889 81.8294 191.9 81.1092C191.939 78.5237 191.915 75.9383 191.915 73.3528L191.918 73.3507Z" fill="black"/>
<path d="M116.719 73.3294C116.719 70.7461 116.742 68.1628 116.703 65.5795C116.692 64.8593 116.921 64.6695 117.632 64.676C121.042 64.7105 124.451 64.7062 127.861 64.676C128.554 64.6695 128.846 64.8334 128.794 65.573C128.731 66.4657 128.744 67.3671 128.79 68.262C128.822 68.8981 128.561 69.0534 127.965 69.0447C126.08 69.0167 124.192 69.0685 122.308 69.0189C121.515 68.9973 121.244 69.2151 121.255 70.0388C121.299 73.7326 121.255 77.4286 121.29 81.1246C121.297 81.8599 121.124 82.1467 120.34 82.0864C119.439 82.0174 118.524 82.0238 117.621 82.0864C116.895 82.136 116.697 81.8858 116.705 81.185C116.742 78.5672 116.721 75.9472 116.721 73.3294H116.719Z" fill="black"/>
<path d="M81.3929 33.0594C81.3929 36.544 81.4103 40.0287 81.3885 43.5134C81.3733 45.9306 80.4598 47.8972 78.3168 49.2104C77.4622 49.7344 76.5401 50.0234 75.5394 50.0234C69.1104 50.0299 62.6814 50.0471 56.2524 50.0191C53.1523 50.0061 50.3837 47.356 50.3401 44.2551C50.2703 39.2265 50.3008 34.1957 50.3335 29.1671C50.3466 27.3429 51.0093 25.7709 52.3566 24.4512C54.4473 22.407 56.4617 20.2851 58.5175 18.2085C59.952 16.7595 61.6698 15.9746 63.7583 15.9853C67.6759 16.0069 71.5979 15.8775 75.5089 16.0242C78.9839 16.1535 81.2817 18.6959 81.3733 22.2797C81.4648 25.8701 81.3929 29.4647 81.3951 33.0572L81.3929 33.0594ZM58.5218 38.0535H58.5262C58.5262 39.274 58.5153 40.4945 58.5284 41.7128C58.5502 43.5888 60.2354 45.4411 62.132 45.4972C64.7416 45.5748 67.3555 45.5684 69.965 45.4972C71.8289 45.4454 73.767 43.3063 73.7692 41.4713C73.7692 39.2114 73.7801 36.9494 73.7692 34.6896C73.7605 32.8135 71.7047 30.6744 69.8124 30.6421C67.2748 30.6011 64.7328 30.6054 62.1952 30.6442C60.4643 30.6723 58.5676 32.5806 58.5262 34.2863C58.4957 35.5413 58.5197 36.7985 58.5197 38.0535H58.5218Z" fill="url(#paint0_linear_374_488)"/>
<path d="M70.8044 38.3191C70.8044 39.5008 70.8 40.6825 70.8044 41.862C70.8087 42.5542 70.5493 43.1278 69.8168 43.1645C68.9382 43.2076 68.9404 42.4938 68.9404 41.8663C68.936 39.4685 68.936 37.0706 68.936 34.6727C68.936 34.028 68.9927 33.3746 69.8495 33.3789C70.6866 33.3811 70.7934 34.0366 70.8022 34.6706C70.8218 35.8868 70.8087 37.1051 70.8087 38.3213H70.8044V38.3191Z" fill="#60D7E5"/>
<path d="M63.2 38.2992C63.2 39.5542 63.2 40.807 63.2 42.062C63.2 42.5946 63.1107 43.1466 62.4566 43.1704C61.8288 43.1919 61.5628 42.7563 61.4255 42.1418C61.2925 41.5488 61.5083 41.0075 61.4821 40.4383C61.3949 38.5795 61.5846 36.7186 61.3535 34.8598C61.2641 34.1417 61.5192 33.3935 62.3869 33.3848C63.2327 33.3762 63.2044 34.1374 63.2088 34.7541C63.2153 35.9358 63.2088 37.1196 63.2088 38.3013H63.2V38.2992Z" fill="#60D7E5"/>
<path d="M66.8933 38.3231C66.8933 39.5436 66.8933 40.762 66.8933 41.9825C66.8933 42.5043 66.8933 43.0434 66.1455 43.0326C65.5198 43.024 65.2146 42.6445 65.2103 42.0666C65.195 39.4833 65.1928 36.9021 65.2103 34.3188C65.2146 33.8034 65.4959 33.4023 66.0714 33.4023C66.6622 33.4023 66.8846 33.825 66.8911 34.3425C66.9064 35.6687 66.8955 36.997 66.8955 38.3231H66.8911H66.8933Z" fill="#60D7E5"/>
<defs>
<linearGradient id="paint0_linear_374_488" x1="65.8589" y1="15.9531" x2="65.8589" y2="50.0346" gradientUnits="userSpaceOnUse">
<stop stop-color="#60D7E5"/>
<stop offset="1" stop-color="#75FAAE"/>
</linearGradient>
</defs>
</svg>
