<svg width="86" height="84" viewBox="0 0 86 84" fill="none" xmlns="http://www.w3.org/2000/svg">
<g id="Group 392">
<g id="&#208;&#161;&#208;&#187;&#208;&#190;&#208;&#185; 1">
<g id="Group">
<path id="Vector" d="M35.2454 30.0779C35.851 29.5682 36.3117 28.9164 36.9206 28.4037C40.6023 25.3099 45.8663 24.9181 49.8561 27.6237C53.3145 29.969 54.8879 33.3324 54.6469 37.516C54.5996 38.3253 54.0957 38.7965 53.3773 38.7741C52.6941 38.7526 52.2055 38.2143 52.2417 37.4018C52.3056 35.9599 52.1263 34.5771 51.5453 33.2412C49.7543 29.1199 44.8606 27.1458 40.723 28.8949C35.927 30.9222 34.1214 36.5828 36.8503 41.0315C36.9666 41.2203 37.0842 41.4098 37.1817 41.6088C37.4923 42.242 37.3305 42.8929 36.7861 43.232C36.2358 43.5758 35.5231 43.4173 35.1188 42.8369C33.7353 40.8464 33.0714 38.6374 33.1496 36.213C33.1897 34.9585 33.4407 33.743 33.9219 32.581C33.9492 32.514 33.9696 32.4561 33.9089 32.3984L35.2472 30.0805L35.2454 30.0779Z" fill="url(#paint0_linear_220_4036)"/>
<path id="Vector_2" d="M45.4853 60.0659C45.3603 59.6646 45.2576 59.3734 45.1784 59.078C43.3065 52.1033 41.4384 45.1275 39.5633 38.1526C39.2619 37.0317 39.2488 35.9394 39.686 34.8395C40.5893 32.5672 43.4144 31.4176 45.6636 32.3918C47.1474 33.0345 48.0145 34.1529 48.4246 35.6754C48.8713 37.331 49.3134 38.9888 49.7582 40.6449C49.8026 40.8068 49.8566 40.966 49.9218 41.1788C50.8952 40.3382 51.9835 39.9191 53.2298 39.982C54.9114 40.0659 56.1963 40.837 57.0297 42.2975C57.2494 42.6837 57.3594 42.6954 57.7089 42.4269C59.9502 40.7018 63.1948 41.4206 64.5275 43.912C64.5834 44.0173 64.6382 44.1218 64.7123 44.2603C65.4379 43.6382 66.2356 43.2086 67.1771 43.0663C69.573 42.705 71.8489 44.1665 72.3675 46.5316C73.3761 51.1205 74.4687 55.6931 75.3256 60.3144C75.7746 62.7383 75.4312 65.1165 74.449 67.3821C72.682 71.4565 69.5942 73.9852 65.3225 75.1071C63.5314 75.5778 61.7506 76.0981 59.9441 76.5031C56.6102 77.2504 53.4512 76.6978 50.4966 75.0049C46.685 72.8221 42.8879 70.6169 39.084 68.4207C36.5132 66.9364 33.9742 65.3943 31.3642 63.9863C28.8901 62.652 28.2553 59.4236 31.0857 57.2847C32.7834 56.0013 34.6489 55.8817 36.6164 56.6528C39.5256 57.7925 42.4475 58.899 45.4877 60.0673L45.4853 60.0659ZM42.436 67.5379C45.4519 69.2791 48.4824 70.998 51.4807 72.7696C54.0993 74.3171 56.8683 74.7954 59.817 74.0608C61.731 73.5849 63.6356 73.0663 65.5268 72.5092C67.6345 71.889 69.3687 70.6883 70.7226 68.947C72.6634 66.4533 73.5017 63.6279 72.8963 60.5284C72.0211 56.0344 70.9886 51.5711 70.0109 47.0973C69.8094 46.1768 69.0562 45.5295 68.1489 45.4272C67.2647 45.327 66.4335 45.781 65.9869 46.5966C65.7079 47.1051 65.7035 47.6296 65.8111 48.1846C65.9885 49.0961 65.5212 49.7538 64.7068 49.7911C64.1056 49.8186 63.6509 49.4491 63.4496 48.7361C63.1292 47.5977 62.8588 46.4428 62.4973 45.3164C62.1572 44.2541 61.0232 43.6935 59.9484 43.9712C58.8447 44.2566 58.1571 45.3044 58.3479 46.4231C58.3946 46.6932 58.4687 46.9581 58.5396 47.2228C58.7765 48.1184 59.0357 49.0091 59.2541 49.9086C59.4809 50.847 58.9227 51.5836 58.0471 51.5499C57.4885 51.5289 57.0807 51.1427 56.8855 50.422C56.3125 48.3027 55.7633 46.1761 55.1718 44.0607C54.7271 42.4663 52.9753 41.8635 51.72 42.8526C50.9085 43.4915 50.7466 44.3336 51.0048 45.2934C51.5531 47.3319 52.1008 49.3685 52.644 51.4074C52.7004 51.6215 52.7513 51.8423 52.7608 52.0618C52.7978 52.8711 52.0879 53.4407 51.2997 53.2612C50.6648 53.1168 50.46 52.6289 50.3123 52.0815C48.9179 46.8775 47.5228 41.6746 46.1277 36.4718C46.0701 36.2569 46.0159 36.0392 45.9346 35.8317C45.3927 34.4309 43.6285 33.9928 42.5042 34.991C41.7208 35.6851 41.6351 36.5469 41.8974 37.522C44.027 45.4238 46.142 53.3285 48.262 61.2328C48.3062 61.3978 48.3567 61.5631 48.3894 61.7312C48.5815 62.7436 47.816 63.4545 46.8262 63.1636C46.4009 63.038 45.9942 62.8551 45.5791 62.6949C42.3238 61.4414 39.0675 60.1953 35.8166 58.9313C34.5385 58.435 33.3505 58.4284 32.2961 59.4347C31.4372 60.2538 31.3857 61.1969 32.5761 61.8647C35.8827 63.7203 39.1519 65.6434 42.4353 67.5391L42.436 67.5379Z" fill="url(#paint1_linear_220_4036)"/>
</g>
</g>
<g id="Group 360">
<path id="Vector 189" d="M28.0847 57.3964H12C6.47716 57.3964 2 52.9193 2 47.3964V12.4877M65.4639 38.5724V12.4877M2 12.4877V12C2 6.47715 6.47715 2 12 2H55.4639C60.9867 2 65.4639 6.47715 65.4639 12V12.4877M2 12.4877H65.4639" stroke="url(#paint2_linear_220_4036)" stroke-width="4" stroke-linejoin="round"/>
<circle id="Ellipse 29" cx="7.64695" cy="7.37839" r="1.07566" fill="url(#paint3_linear_220_4036)"/>
<circle id="Ellipse 30" cx="13.0259" cy="7.37839" r="1.07566" fill="url(#paint4_linear_220_4036)"/>
<circle id="Ellipse 31" cx="18.4038" cy="7.37839" r="1.07566" fill="url(#paint5_linear_220_4036)"/>
</g>
</g>
<defs>
<linearGradient id="paint0_linear_220_4036" x1="48.9387" y1="27.0621" x2="38.5857" y2="44.994" gradientUnits="userSpaceOnUse">
<stop stop-color="#60D7E5"/>
<stop offset="1" stop-color="#72F4B7"/>
</linearGradient>
<linearGradient id="paint1_linear_220_4036" x1="63.6247" y1="39.8114" x2="45.0905" y2="71.9135" gradientUnits="userSpaceOnUse">
<stop stop-color="#60D7E5"/>
<stop offset="1" stop-color="#72F4B7"/>
</linearGradient>
<linearGradient id="paint2_linear_220_4036" x1="33.7319" y1="2" x2="33.7319" y2="57.3964" gradientUnits="userSpaceOnUse">
<stop stop-color="#60D7E5"/>
<stop offset="1" stop-color="#72F4B7"/>
</linearGradient>
<linearGradient id="paint3_linear_220_4036" x1="7.64695" y1="6.30273" x2="7.64695" y2="8.45405" gradientUnits="userSpaceOnUse">
<stop stop-color="#60D7E5"/>
<stop offset="1" stop-color="#72F4B7"/>
</linearGradient>
<linearGradient id="paint4_linear_220_4036" x1="13.0259" y1="6.30273" x2="13.0259" y2="8.45405" gradientUnits="userSpaceOnUse">
<stop stop-color="#60D7E5"/>
<stop offset="1" stop-color="#72F4B7"/>
</linearGradient>
<linearGradient id="paint5_linear_220_4036" x1="18.4038" y1="6.30273" x2="18.4038" y2="8.45405" gradientUnits="userSpaceOnUse">
<stop stop-color="#60D7E5"/>
<stop offset="1" stop-color="#72F4B7"/>
</linearGradient>
</defs>
</svg>
