<svg width="1920" height="160" viewBox="0 0 1920 160" fill="none" xmlns="http://www.w3.org/2000/svg">
<rect width="1920" height="160" fill="white"/>
<path d="M362.642 57.4437C366.996 54.0108 371.91 53.2194 377.126 54.7008C383.898 56.6221 388.068 62.9445 387.802 69.9613C387.449 79.3091 380.268 85.1464 371.99 85.6337C367.207 85.9162 362.714 85.1938 358.807 82.2741C354.578 79.1129 352.263 74.8131 351.768 69.6443C351.38 65.5925 351.655 61.5408 352.625 57.558C353.623 53.4609 355.965 50.3105 359.383 47.8479C362.487 45.6096 365.978 44.1045 369.405 42.47C370.711 41.8468 371.973 41.1395 373.259 40.4775C375.352 39.4036 376.743 37.7001 377.667 35.6041C377.916 35.0392 378.084 34.802 378.735 35.1923C380.721 36.3804 382.734 37.5254 384.77 38.6252C385.395 38.9616 385.433 39.326 385.256 39.9147C384.523 42.332 383.22 44.3352 381.099 45.7929C378.186 47.7962 374.94 49.1331 371.67 50.4183C369.747 51.1752 367.859 52.0011 366.146 53.1676C364.561 54.248 363.353 55.6302 362.64 57.4437H362.642ZM370.067 77.4697C376.183 77.4396 380.089 72.3894 378.319 66.8023C377.068 62.8583 372.729 60.4928 368.293 61.3381C364.589 62.0432 361.87 64.3936 361.284 67.406C360.2 72.9522 364.17 77.4978 370.07 77.4697H370.067Z" fill="#60D7E5"/>
<path d="M274.262 64.5684C276.377 61.2692 278.396 58.1231 280.415 54.9748C281.308 53.5796 282.233 52.2039 283.07 50.7764C283.434 50.1553 283.868 49.9893 284.557 50.0001C286.844 50.0411 289.133 50.0561 291.42 49.9958C292.311 49.9721 292.573 50.2006 292.568 51.1128C292.534 60.8465 292.547 70.5825 292.547 80.3163C292.547 81.4656 292.507 82.6171 292.562 83.7643C292.595 84.4866 292.418 84.7713 291.616 84.754C289.292 84.7023 286.968 84.7001 284.644 84.754C283.835 84.7734 283.702 84.4802 283.706 83.7643C283.733 77.4785 283.722 71.1949 283.722 64.8293C283.284 64.9738 283.196 65.3404 283.024 65.6078C280.469 69.5733 277.925 73.5431 275.376 77.513C274.602 78.7162 273.929 78.7076 273.142 77.4785C270.404 73.2089 267.666 68.9372 264.797 64.4627C264.766 64.9954 264.733 65.3231 264.733 65.6509C264.731 71.6865 264.714 77.72 264.751 83.7535C264.755 84.5794 264.518 84.7713 263.717 84.754C261.431 84.7001 259.141 84.7109 256.855 84.7497C256.183 84.7605 256.002 84.5729 256.002 83.9066C256.022 72.879 256.024 61.8514 256 50.8238C256 50.1295 256.231 49.9936 256.87 50.0022C259.266 50.0367 261.664 50.0411 264.06 50.0001C264.729 49.9893 265.093 50.2222 265.442 50.7721C268.333 55.3327 271.254 59.8719 274.26 64.5684H274.262Z" fill="#60D7E5"/>
<path d="M416.35 65.2886C412.986 69.3081 409.701 73.2326 406.416 77.1594C404.495 79.4559 402.564 81.7438 400.663 84.0575C400.261 84.5449 399.845 84.7691 399.193 84.7497C397.597 84.7044 395.995 84.6893 394.399 84.754C393.562 84.7864 393.307 84.5729 393.311 83.7039C393.351 76.5189 393.333 69.334 393.333 62.149C393.333 58.412 393.357 54.6772 393.314 50.9403C393.305 50.1661 393.54 49.985 394.29 50.0001C396.614 50.0475 398.94 50.0475 401.262 50.0001C402.032 49.985 402.234 50.2157 402.23 50.964C402.199 56.6762 402.213 62.3883 402.213 68.1005V69.2994C402.716 69.3296 402.832 68.9221 403.037 68.6763C408.042 62.7053 413.043 56.7279 418.027 50.7376C418.454 50.2243 418.881 49.9699 419.581 49.9979C421.105 50.0583 422.633 50.0712 424.155 49.9979C425.114 49.9505 425.426 50.1834 425.422 51.2055C425.378 61.515 425.395 71.8245 425.395 82.1362C425.395 83.8699 424.513 84.7368 422.749 84.7368C421.114 84.7368 419.476 84.6721 417.846 84.7605C416.823 84.8144 416.499 84.5729 416.512 83.4926C416.573 77.8537 416.542 72.2127 416.536 66.5738C416.536 66.1965 416.645 65.7975 416.346 65.2929L416.35 65.2886Z" fill="#60D7E5"/>
<path d="M463.98 67.3656C463.98 72.8255 463.963 78.2853 464 83.7452C464.006 84.5582 463.786 84.7738 462.973 84.7544C460.649 84.6983 458.323 84.694 456.001 84.7544C455.125 84.7781 454.926 84.5021 454.929 83.6719C454.959 75.7344 454.929 67.7947 454.97 59.8571C454.974 58.8846 454.743 58.5763 453.725 58.6086C451.294 58.6862 448.859 58.6755 446.426 58.6129C445.508 58.5892 445.19 58.7703 445.205 59.7687C445.269 63.6825 445.245 67.5985 445.205 71.5144C445.184 73.826 444.798 76.0859 443.926 78.2444C442.345 82.156 439.361 84.2283 435.19 84.735C433.817 84.901 432.446 84.9528 431.063 84.7846C430.549 84.7221 430.398 84.5452 430.403 84.0514C430.422 81.6816 430.414 79.3096 430.412 76.9398C430.412 76.5926 430.405 76.3576 430.933 76.3921C434.24 76.6142 435.735 75.2406 436.062 71.7861C436.234 69.9575 436.215 68.1268 436.215 66.296C436.215 61.2307 436.228 56.1655 436.2 51.1023C436.195 50.3174 436.319 49.9918 437.239 49.9961C445.809 50.035 454.381 50.035 462.951 49.9961C463.865 49.9918 463.998 50.3023 463.993 51.0937C463.963 56.517 463.978 61.9423 463.978 67.3656H463.98Z" fill="#60D7E5"/>
<path d="M322.282 42.7525C327.074 42.7525 331.868 42.7848 336.66 42.7309C337.994 42.7158 339.119 43.0781 340.113 43.904C340.732 44.4193 341.515 44.6177 342.193 45.0361C344.044 46.1768 345.42 47.7725 346.357 49.6097C346.978 50.828 347.571 52.193 347.571 53.6701C347.563 63.2939 347.648 72.9199 347.521 82.5437C347.482 85.5389 345.893 88.0251 343.678 90.0737C342.357 91.2963 340.804 92.1222 339.123 92.7281C338.618 92.9093 338.053 93.1637 337.558 93.0926C335.871 92.851 334.981 93.7395 334.168 95.016C332.845 97.0948 331.458 99.1347 329.93 101.078C329.747 101.308 329.575 101.392 329.331 101.446C327.515 101.852 325.947 101.136 324.907 99.5379C323.695 97.6727 322.368 95.8786 321.179 94.0004C320.61 93.1012 319.85 92.8834 318.89 92.8877C315.332 92.8985 311.768 93.0171 308.217 92.8618C303.876 92.6721 300.637 90.5696 298.489 86.8003C297.351 84.8014 296.959 82.7054 296.978 80.4154C297.053 71.9042 297.072 63.3909 296.983 54.882C296.931 49.8685 299.499 46.7482 303.599 44.1778C305.775 42.815 307.896 42.7546 310.19 42.7503C314.221 42.7417 318.249 42.7482 322.28 42.7482V42.7568L322.282 42.7525ZM299.662 68.0724C299.662 72.6331 299.664 77.1938 299.66 81.7545C299.66 82.8736 299.847 83.8892 300.366 84.948C302.117 88.5103 304.914 90.2915 308.89 90.2979C312.594 90.3044 316.298 90.3238 320 90.2764C321.171 90.2613 321.982 90.6322 322.618 91.6306C323.968 93.7438 325.413 95.7945 326.791 97.8883C327.515 98.988 328.166 99.0527 328.919 97.953C330.231 96.0317 331.502 94.0823 332.771 92.1308C333.44 91.1022 334.135 90.1836 335.574 90.2828C339.867 90.5783 344.737 87.1626 344.698 81.459C344.635 72.5533 344.696 63.6454 344.667 54.7397C344.663 53.6054 344.661 52.4173 344.153 51.365C342.38 47.6841 339.394 45.8016 335.28 45.7886C326.566 45.7606 317.85 45.7886 309.137 45.7714C306.996 45.7671 305.023 46.3299 303.353 47.5957C301.127 49.2841 299.647 51.4491 299.658 54.386C299.675 58.9467 299.662 63.5074 299.662 68.0681V68.0724Z" fill="black"/>
<path d="M398.962 101.263C403.68 98.2056 407.774 98.4752 410.843 102.046C413.939 105.649 413.869 111.258 410.686 114.687C407.469 118.152 403.309 118.359 398.831 115.178C398.831 117.759 398.79 120.254 398.853 122.747C398.875 123.659 398.685 124.08 397.676 123.948C397.033 123.864 396.37 123.937 395.718 123.931C394.168 123.914 394.303 124.151 394.301 122.577C394.297 116.722 394.301 110.868 394.301 105.013C394.301 103.469 394.325 101.923 394.29 100.379C394.275 99.7711 394.467 99.5361 395.092 99.59C395.633 99.6374 396.18 99.5986 396.725 99.5986C398.013 99.5986 398.76 100.153 398.966 101.261L398.962 101.263ZM403.725 103.422C400.894 103.405 398.877 105.386 398.833 108.226C398.79 111.017 400.841 113.141 403.61 113.173C406.446 113.207 408.563 111.118 408.563 108.287C408.563 105.455 406.542 103.439 403.725 103.422Z" fill="black"/>
<path d="M430.301 110.986C431.064 108.713 431.811 106.488 432.559 104.262C432.982 103.003 433.435 101.754 433.81 100.482C433.978 99.9085 434.218 99.6476 434.859 99.6756C435.982 99.7274 437.109 99.708 438.234 99.6821C438.798 99.6691 438.914 99.8158 438.709 100.363C436.49 106.313 434.362 112.297 432.06 118.214C430.959 121.045 428.995 123.152 425.816 123.844C423.414 124.366 423.252 124.252 423.252 121.849C423.252 121.742 423.27 121.632 423.25 121.526C423.028 120.34 423.398 119.743 424.739 119.654C426.185 119.559 426.987 118.501 427.586 117.276C427.822 116.795 427.586 116.45 427.425 116.066C425.317 110.958 423.218 105.845 421.077 100.749C420.73 99.9258 420.758 99.6001 421.772 99.6756C422.71 99.7468 423.662 99.7338 424.602 99.6756C425.299 99.6325 425.605 99.8977 425.855 100.538C427.094 103.714 428.393 106.867 429.677 110.024C429.803 110.337 429.832 110.718 430.301 110.984V110.986Z" fill="black"/>
<path d="M447.918 108.351C447.918 105.765 447.939 103.18 447.902 100.594C447.891 99.887 448.114 99.6735 448.829 99.6778C453.584 99.7058 458.341 99.708 463.095 99.6778C463.841 99.6735 463.987 99.9322 463.985 100.607C463.959 105.813 463.961 111.02 463.985 116.226C463.987 116.853 463.869 117.133 463.158 117.088C461.968 117.013 460.412 117.472 459.673 116.888C458.892 116.269 459.452 114.667 459.435 113.498C459.396 110.626 459.4 107.753 459.437 104.881C459.446 104.172 459.315 103.865 458.506 103.896C456.767 103.958 455.02 103.947 453.281 103.9C452.59 103.881 452.433 104.116 452.437 104.76C452.465 108.53 452.428 112.301 452.47 116.07C452.478 116.86 452.302 117.166 451.458 117.09C450.595 117.013 449.712 117.019 448.846 117.09C448.042 117.155 447.889 116.829 447.9 116.109C447.939 113.524 447.915 110.938 447.915 108.353L447.918 108.351Z" fill="black"/>
<path d="M372.719 108.329C372.719 105.746 372.742 103.163 372.703 100.579C372.692 99.8593 372.921 99.6695 373.632 99.676C377.042 99.7105 380.451 99.7062 383.861 99.676C384.554 99.6695 384.846 99.8334 384.794 100.573C384.731 101.466 384.744 102.367 384.79 103.262C384.822 103.898 384.561 104.053 383.965 104.045C382.08 104.017 380.192 104.068 378.308 104.019C377.515 103.997 377.244 104.215 377.255 105.039C377.299 108.733 377.255 112.429 377.29 116.125C377.297 116.86 377.124 117.147 376.34 117.086C375.439 117.017 374.524 117.024 373.621 117.086C372.895 117.136 372.697 116.886 372.705 116.185C372.742 113.567 372.721 110.947 372.721 108.329H372.719Z" fill="black"/>
<path d="M337.393 68.0594C337.393 71.544 337.41 75.0287 337.389 78.5134C337.373 80.9306 336.46 82.8972 334.317 84.2104C333.462 84.7344 332.54 85.0234 331.539 85.0234C325.11 85.0299 318.681 85.0471 312.252 85.0191C309.152 85.0061 306.384 82.356 306.34 79.2551C306.27 74.2265 306.301 69.1957 306.334 64.1671C306.347 62.3429 307.009 60.7709 308.357 59.4512C310.447 57.407 312.462 55.2851 314.517 53.2085C315.952 51.7595 317.67 50.9746 319.758 50.9853C323.676 51.0069 327.598 50.8775 331.509 51.0242C334.984 51.1535 337.282 53.6959 337.373 57.2797C337.465 60.8701 337.393 64.4647 337.395 68.0572L337.393 68.0594ZM314.522 73.0535H314.526C314.526 74.274 314.515 75.4945 314.528 76.7128C314.55 78.5888 316.235 80.4411 318.132 80.4972C320.742 80.5748 323.355 80.5684 325.965 80.4972C327.829 80.4454 329.767 78.3063 329.769 76.4713C329.769 74.2114 329.78 71.9494 329.769 69.6896C329.76 67.8135 327.705 65.6744 325.812 65.6421C323.275 65.6011 320.733 65.6054 318.195 65.6442C316.464 65.6723 314.568 67.5806 314.526 69.2863C314.496 70.5413 314.52 71.7985 314.52 73.0535H314.522Z" fill="url(#paint0_linear_343_7490)"/>
<path d="M326.804 73.3191C326.804 74.5008 326.8 75.6825 326.804 76.862C326.809 77.5542 326.549 78.1278 325.817 78.1645C324.938 78.2076 324.94 77.4938 324.94 76.8663C324.936 74.4685 324.936 72.0706 324.936 69.6727C324.936 69.028 324.993 68.3746 325.849 68.3789C326.687 68.3811 326.793 69.0366 326.802 69.6706C326.822 70.8868 326.809 72.1051 326.809 73.3213H326.804V73.3191Z" fill="#60D7E5"/>
<path d="M319.2 73.2992C319.2 74.5542 319.2 75.807 319.2 77.062C319.2 77.5946 319.111 78.1466 318.457 78.1704C317.829 78.1919 317.563 77.7563 317.425 77.1418C317.292 76.5488 317.508 76.0075 317.482 75.4383C317.395 73.5795 317.585 71.7186 317.354 69.8598C317.264 69.1417 317.519 68.3935 318.387 68.3848C319.233 68.3762 319.204 69.1374 319.209 69.7541C319.215 70.9358 319.209 72.1196 319.209 73.3013H319.2V73.2992Z" fill="#60D7E5"/>
<path d="M322.893 73.3231C322.893 74.5436 322.893 75.762 322.893 76.9825C322.893 77.5043 322.893 78.0434 322.146 78.0326C321.52 78.024 321.215 77.6445 321.21 77.0666C321.195 74.4833 321.193 71.9021 321.21 69.3188C321.215 68.8034 321.496 68.4023 322.071 68.4023C322.662 68.4023 322.885 68.825 322.891 69.3425C322.906 70.6687 322.895 71.997 322.895 73.3231H322.891H322.893Z" fill="#60D7E5"/>
<path d="M593.5 84.12C592.447 84.12 591.467 83.9467 590.56 83.6C589.667 83.24 588.887 82.74 588.22 82.1C587.567 81.4467 587.053 80.6933 586.68 79.84C586.32 78.9733 586.14 78.0267 586.14 77C586.14 75.9733 586.32 75.0333 586.68 74.18C587.053 73.3133 587.567 72.56 588.22 71.92C588.887 71.2667 589.667 70.7667 590.56 70.42C591.453 70.06 592.433 69.88 593.5 69.88C594.553 69.88 595.527 70.06 596.42 70.42C597.313 70.7667 598.087 71.26 598.74 71.9C599.407 72.54 599.92 73.2933 600.28 74.16C600.653 75.0267 600.84 75.9733 600.84 77C600.84 78.0267 600.653 78.9733 600.28 79.84C599.92 80.7067 599.407 81.46 598.74 82.1C598.087 82.74 597.313 83.24 596.42 83.6C595.527 83.9467 594.553 84.12 593.5 84.12ZM593.5 82.8C594.34 82.8 595.113 82.66 595.82 82.38C596.54 82.0867 597.16 81.68 597.68 81.16C598.213 80.6267 598.627 80.0133 598.92 79.32C599.213 78.6133 599.36 77.84 599.36 77C599.36 76.16 599.213 75.3933 598.92 74.7C598.627 73.9933 598.213 73.38 597.68 72.86C597.16 72.3267 596.54 71.92 595.82 71.64C595.113 71.3467 594.34 71.2 593.5 71.2C592.66 71.2 591.88 71.3467 591.16 71.64C590.44 71.92 589.813 72.3267 589.28 72.86C588.76 73.38 588.347 73.9933 588.04 74.7C587.747 75.3933 587.6 76.16 587.6 77C587.6 77.8267 587.747 78.5933 588.04 79.3C588.347 80.0067 588.76 80.6267 589.28 81.16C589.813 81.68 590.44 82.0867 591.16 82.38C591.88 82.66 592.66 82.8 593.5 82.8ZM619.186 84L613.806 77.02L615.006 76.3L620.886 84H619.186ZM609.606 84V70H611.046V84H609.606ZM610.606 77.58V76.28H614.986V77.58H610.606ZM615.126 77.16L613.766 76.92L618.986 70H620.586L615.126 77.16ZM629.281 84.12C628.228 84.12 627.248 83.9467 626.341 83.6C625.448 83.24 624.668 82.74 624.001 82.1C623.348 81.4467 622.835 80.6933 622.461 79.84C622.101 78.9733 621.921 78.0267 621.921 77C621.921 75.9733 622.101 75.0333 622.461 74.18C622.835 73.3133 623.348 72.56 624.001 71.92C624.668 71.2667 625.448 70.7667 626.341 70.42C627.235 70.06 628.215 69.88 629.281 69.88C630.335 69.88 631.308 70.06 632.201 70.42C633.095 70.7667 633.868 71.26 634.521 71.9C635.188 72.54 635.701 73.2933 636.061 74.16C636.435 75.0267 636.621 75.9733 636.621 77C636.621 78.0267 636.435 78.9733 636.061 79.84C635.701 80.7067 635.188 81.46 634.521 82.1C633.868 82.74 633.095 83.24 632.201 83.6C631.308 83.9467 630.335 84.12 629.281 84.12ZM629.281 82.8C630.121 82.8 630.895 82.66 631.601 82.38C632.321 82.0867 632.941 81.68 633.461 81.16C633.995 80.6267 634.408 80.0133 634.701 79.32C634.995 78.6133 635.141 77.84 635.141 77C635.141 76.16 634.995 75.3933 634.701 74.7C634.408 73.9933 633.995 73.38 633.461 72.86C632.941 72.3267 632.321 71.92 631.601 71.64C630.895 71.3467 630.121 71.2 629.281 71.2C628.441 71.2 627.661 71.3467 626.941 71.64C626.221 71.92 625.595 72.3267 625.061 72.86C624.541 73.38 624.128 73.9933 623.821 74.7C623.528 75.3933 623.381 76.16 623.381 77C623.381 77.8267 623.528 78.5933 623.821 79.3C624.128 80.0067 624.541 80.6267 625.061 81.16C625.595 81.68 626.221 82.0867 626.941 82.38C627.661 82.66 628.441 82.8 629.281 82.8ZM640.153 84V70H641.373L647.773 80.92H647.133L653.473 70H654.693V84H653.273V72.22H653.613L647.773 82.22H647.073L641.193 72.22H641.573V84H640.153ZM659.411 84V70H671.191V84H669.731V70.88L670.111 71.28H660.491L660.871 70.88V84H659.411ZM673.855 84L680.255 70H681.715L688.115 84H686.555L680.675 70.86H681.275L675.395 84H673.855ZM676.375 80.26L676.815 79.06H684.955L685.395 80.26H676.375ZM701.038 70H702.498V84H701.038V70ZM692.278 84H690.798V70H692.278V84ZM701.178 77.54H692.118V76.24H701.178V77.54ZM707.223 84V70H708.683V81.6L717.643 70H718.983V84H717.523V72.42L708.563 84H707.223ZM723.708 84V70H725.168V81.6L734.128 70H735.468V84H734.008V72.42L725.048 84H723.708Z" fill="#141414"/>
<path d="M760.12 82.62C760.8 82.8867 761.44 82.9533 762.04 82.82C762.64 82.6733 763.193 82.2 763.7 81.4L764.38 80.32L764.52 80.14L769.88 70H771.36L765 81.72C764.573 82.5333 764.067 83.14 763.48 83.54C762.907 83.94 762.293 84.1533 761.64 84.18C761 84.2067 760.353 84.0867 759.7 83.82L760.12 82.62ZM764.48 81.48L758.42 70H760L765.28 80.26L764.48 81.48ZM779.664 84.12C778.61 84.12 777.637 83.9467 776.744 83.6C775.85 83.24 775.077 82.74 774.424 82.1C773.77 81.46 773.257 80.7067 772.884 79.84C772.524 78.9733 772.344 78.0267 772.344 77C772.344 75.9733 772.524 75.0267 772.884 74.16C773.257 73.2933 773.77 72.54 774.424 71.9C775.09 71.26 775.87 70.7667 776.764 70.42C777.657 70.06 778.63 69.88 779.684 69.88C780.697 69.88 781.65 70.0533 782.544 70.4C783.437 70.7333 784.19 71.24 784.804 71.92L783.864 72.86C783.29 72.2733 782.657 71.8533 781.964 71.6C781.27 71.3333 780.524 71.2 779.724 71.2C778.884 71.2 778.104 71.3467 777.384 71.64C776.664 71.92 776.037 72.3267 775.504 72.86C774.97 73.38 774.55 73.9933 774.244 74.7C773.95 75.3933 773.804 76.16 773.804 77C773.804 77.84 773.95 78.6133 774.244 79.32C774.55 80.0133 774.97 80.6267 775.504 81.16C776.037 81.68 776.664 82.0867 777.384 82.38C778.104 82.66 778.884 82.8 779.724 82.8C780.524 82.8 781.27 82.6667 781.964 82.4C782.657 82.1333 783.29 81.7067 783.864 81.12L784.804 82.06C784.19 82.74 783.437 83.2533 782.544 83.6C781.65 83.9467 780.69 84.12 779.664 84.12ZM786.469 84.12C786.282 84.12 786.102 84.1067 785.929 84.08C785.756 84.0667 785.562 84.0333 785.349 83.98L785.469 82.66C785.696 82.7133 785.916 82.74 786.129 82.74C786.729 82.74 787.209 82.5067 787.569 82.04C787.942 81.56 788.222 80.8267 788.409 79.84C788.596 78.84 788.716 77.56 788.769 76L788.969 70H798.469V84H797.009V70.88L797.389 71.28H789.909L790.269 70.86L790.089 75.96C790.036 77.36 789.936 78.5733 789.789 79.6C789.642 80.6133 789.429 81.46 789.149 82.14C788.869 82.8067 788.509 83.3067 788.069 83.64C787.629 83.96 787.096 84.12 786.469 84.12ZM802.952 82.62C803.632 82.8867 804.272 82.9533 804.872 82.82C805.472 82.6733 806.025 82.2 806.532 81.4L807.212 80.32L807.352 80.14L812.712 70H814.192L807.832 81.72C807.405 82.5333 806.899 83.14 806.312 83.54C805.739 83.94 805.125 84.1533 804.472 84.18C803.832 84.2067 803.185 84.0867 802.532 83.82L802.952 82.62ZM807.312 81.48L801.252 70H802.832L808.112 80.26L807.312 81.48ZM816.493 84V70H825.393V71.28H817.553L817.933 70.9L817.953 84H816.493ZM827.938 84V70H829.398V81.6L838.358 70H839.698V84H838.238V72.42L829.278 84H827.938Z" fill="#141414"/>
<path d="M865.36 84V70H866.82V82.72H875.28V70H876.74V84H865.36ZM877.58 87.28V83.6L877.96 84H875.28V82.72H878.96V87.28H877.58ZM883.223 76.26H890.623V77.52H883.223V76.26ZM883.383 82.72H891.803V84H881.903V70H891.503V71.28H883.383V82.72ZM905.327 70H906.787V84H905.327V70ZM896.567 84H895.087V70H896.567V84ZM905.467 77.54H896.407V76.24H905.467V77.54ZM917.372 75C919.026 75 920.286 75.3733 921.152 76.12C922.032 76.8533 922.472 77.9467 922.472 79.4C922.472 80.9067 922.006 82.0533 921.072 82.84C920.139 83.6133 918.806 84 917.072 84H911.512V70H912.972V75H917.372ZM917.032 82.82C918.326 82.82 919.306 82.5333 919.972 81.96C920.652 81.3867 920.992 80.5467 920.992 79.44C920.992 78.3333 920.659 77.52 919.992 77C919.326 76.4667 918.339 76.2 917.032 76.2H912.972V82.82H917.032ZM924.892 84V70H926.352V84H924.892Z" fill="#141414"/>
<path d="M949.04 84L955.44 70H956.9L963.3 84H961.74L955.86 70.86H956.46L950.58 84H949.04ZM951.56 80.26L952 79.06H960.14L960.58 80.26H951.56ZM965.616 84V70H970.856C972.043 70 973.063 70.1933 973.916 70.58C974.769 70.9533 975.423 71.5 975.876 72.22C976.343 72.9267 976.576 73.7867 976.576 74.8C976.576 75.7867 976.343 76.64 975.876 77.36C975.423 78.0667 974.769 78.6133 973.916 79C973.063 79.3867 972.043 79.58 970.856 79.58H966.436L967.096 78.88V84H965.616ZM967.096 79L966.436 78.28H970.816C972.216 78.28 973.276 77.98 973.996 77.38C974.729 76.7667 975.096 75.9067 975.096 74.8C975.096 73.68 974.729 72.8133 973.996 72.2C973.276 71.5867 972.216 71.28 970.816 71.28H966.436L967.096 70.58V79ZM979.776 84V70H981.256V84H979.776Z" fill="#141414"/>
<path d="M1012.48 84.12C1011.43 84.12 1010.45 83.9467 1009.56 83.6C1008.67 83.24 1007.89 82.74 1007.24 82.1C1006.59 81.46 1006.07 80.7067 1005.7 79.84C1005.34 78.9733 1005.16 78.0267 1005.16 77C1005.16 75.9733 1005.34 75.0267 1005.7 74.16C1006.07 73.2933 1006.59 72.54 1007.24 71.9C1007.91 71.26 1008.69 70.7667 1009.58 70.42C1010.47 70.06 1011.45 69.88 1012.5 69.88C1013.51 69.88 1014.47 70.0533 1015.36 70.4C1016.25 70.7333 1017.01 71.24 1017.62 71.92L1016.68 72.86C1016.11 72.2733 1015.47 71.8533 1014.78 71.6C1014.09 71.3333 1013.34 71.2 1012.54 71.2C1011.7 71.2 1010.92 71.3467 1010.2 71.64C1009.48 71.92 1008.85 72.3267 1008.32 72.86C1007.79 73.38 1007.37 73.9933 1007.06 74.7C1006.77 75.3933 1006.62 76.16 1006.62 77C1006.62 77.84 1006.77 78.6133 1007.06 79.32C1007.37 80.0133 1007.79 80.6267 1008.32 81.16C1008.85 81.68 1009.48 82.0867 1010.2 82.38C1010.92 82.66 1011.7 82.8 1012.54 82.8C1013.34 82.8 1014.09 82.6667 1014.78 82.4C1015.47 82.1333 1016.11 81.7067 1016.68 81.12L1017.62 82.06C1017.01 82.74 1016.25 83.2533 1015.36 83.6C1014.47 83.9467 1013.51 84.12 1012.48 84.12ZM1023.28 84V70.88L1023.68 71.28H1018.36V70H1029.66V71.28H1024.36L1024.74 70.88V84H1023.28ZM1029.5 84L1035.9 70H1037.36L1043.76 84H1042.2L1036.32 70.86H1036.92L1031.04 84H1029.5ZM1032.02 80.26L1032.46 79.06H1040.6L1041.04 80.26H1032.02ZM1048.51 84V70.88L1048.92 71.28H1043.6V70H1054.9V71.28H1049.6L1049.98 70.88V84H1048.51ZM1063.35 75C1065.01 75 1066.27 75.3733 1067.13 76.12C1068.01 76.8533 1068.45 77.9467 1068.45 79.4C1068.45 80.9067 1067.99 82.0533 1067.05 82.84C1066.12 83.6133 1064.79 84 1063.05 84H1057.49V70H1058.95V75H1063.35ZM1063.01 82.82C1064.31 82.82 1065.29 82.5333 1065.95 81.96C1066.63 81.3867 1066.97 80.5467 1066.97 79.44C1066.97 78.3333 1066.64 77.52 1065.97 77C1065.31 76.4667 1064.32 76.2 1063.01 76.2H1058.95V82.82H1063.01ZM1071.69 84V70H1073.15V81.6L1082.11 70H1083.45V84H1081.99V72.42L1073.03 84H1071.69Z" fill="#141414"/>
<path d="M1108.36 84V70H1120.14V84H1118.68V70.88L1119.06 71.28H1109.44L1109.82 70.88V84H1108.36ZM1122.8 84L1129.2 70H1130.66L1137.06 84H1135.5L1129.62 70.86H1130.22L1124.34 84H1122.8ZM1125.32 80.26L1125.76 79.06H1133.9L1134.34 80.26H1125.32ZM1139.75 84V70H1144.99C1146.17 70 1147.19 70.1933 1148.05 70.58C1148.9 70.9533 1149.55 71.5 1150.01 72.22C1150.47 72.9267 1150.71 73.7867 1150.71 74.8C1150.71 75.7867 1150.47 76.64 1150.01 77.36C1149.55 78.0667 1148.9 78.6133 1148.05 79C1147.19 79.3867 1146.17 79.58 1144.99 79.58H1140.57L1141.23 78.88V84H1139.75ZM1141.23 79L1140.57 78.28H1144.95C1146.35 78.28 1147.41 77.98 1148.13 77.38C1148.86 76.7667 1149.23 75.9067 1149.23 74.8C1149.23 73.68 1148.86 72.8133 1148.13 72.2C1147.41 71.5867 1146.35 71.28 1144.95 71.28H1140.57L1141.23 70.58V79ZM1156.04 84V70.88L1156.44 71.28H1151.12V70H1162.42V71.28H1157.12L1157.5 70.88V84H1156.04ZM1175.26 70H1176.72V84H1175.26V70ZM1166.5 84H1165.02V70H1166.5V84ZM1175.4 77.54H1166.34V76.24H1175.4V77.54ZM1182.77 76.26H1190.17V77.52H1182.77V76.26ZM1182.93 82.72H1191.35V84H1181.45V70H1191.05V71.28H1182.93V82.72ZM1194.63 84V70H1199.87C1201.06 70 1202.08 70.1933 1202.93 70.58C1203.78 70.9533 1204.44 71.5 1204.89 72.22C1205.36 72.9267 1205.59 73.7867 1205.59 74.8C1205.59 75.7867 1205.36 76.64 1204.89 77.36C1204.44 78.0667 1203.78 78.6133 1202.93 79C1202.08 79.3867 1201.06 79.58 1199.87 79.58H1195.45L1196.11 78.88V84H1194.63ZM1196.11 79L1195.45 78.28H1199.83C1201.23 78.28 1202.29 77.98 1203.01 77.38C1203.74 76.7667 1204.11 75.9067 1204.11 74.8C1204.11 73.68 1203.74 72.8133 1203.01 72.2C1202.29 71.5867 1201.23 71.28 1199.83 71.28H1195.45L1196.11 70.58V79ZM1205.85 84L1212.25 70H1213.71L1220.11 84H1218.55L1212.67 70.86H1213.27L1207.39 84H1205.85ZM1208.37 80.26L1208.81 79.06H1216.95L1217.39 80.26H1208.37ZM1222.79 84V70H1224.01L1230.41 80.92H1229.77L1236.11 70H1237.33V84H1235.91V72.22H1236.25L1230.41 82.22H1229.71L1223.83 72.22H1224.21V84H1222.79Z" fill="#141414"/>
<path d="M1266.58 84.24C1265.41 84.24 1264.38 84.0667 1263.5 83.72C1262.62 83.36 1261.93 82.86 1261.44 82.22C1260.95 81.5667 1260.7 80.8067 1260.7 79.94C1260.7 79.0733 1260.94 78.34 1261.42 77.74C1261.91 77.1267 1262.6 76.6667 1263.48 76.36C1264.36 76.04 1265.39 75.88 1266.58 75.88C1267.78 75.88 1268.82 76.04 1269.7 76.36C1270.59 76.6667 1271.28 77.1267 1271.76 77.74C1272.25 78.34 1272.5 79.0733 1272.5 79.94C1272.5 80.8067 1272.25 81.5667 1271.76 82.22C1271.27 82.86 1270.57 83.36 1269.68 83.72C1268.8 84.0667 1267.77 84.24 1266.58 84.24ZM1266.58 81.86C1267.39 81.86 1268.03 81.68 1268.5 81.32C1268.98 80.96 1269.22 80.4667 1269.22 79.84C1269.22 79.2133 1268.98 78.7267 1268.5 78.38C1268.03 78.02 1267.39 77.84 1266.58 77.84C1265.78 77.84 1265.15 78.02 1264.68 78.38C1264.21 78.7267 1263.98 79.2133 1263.98 79.84C1263.98 80.4667 1264.21 80.96 1264.68 81.32C1265.15 81.68 1265.78 81.86 1266.58 81.86ZM1266.58 77.52C1265.5 77.52 1264.55 77.3733 1263.74 77.08C1262.94 76.7867 1262.31 76.36 1261.86 75.8C1261.42 75.2267 1261.2 74.5467 1261.2 73.76C1261.2 72.9333 1261.43 72.2267 1261.88 71.64C1262.33 71.04 1262.97 70.58 1263.78 70.26C1264.59 69.9267 1265.53 69.76 1266.58 69.76C1267.66 69.76 1268.6 69.9267 1269.4 70.26C1270.21 70.58 1270.85 71.04 1271.3 71.64C1271.77 72.2267 1272 72.9333 1272 73.76C1272 74.5467 1271.77 75.2267 1271.32 75.8C1270.88 76.36 1270.25 76.7867 1269.44 77.08C1268.63 77.3733 1267.67 77.52 1266.58 77.52ZM1266.58 75.62C1267.26 75.62 1267.79 75.4667 1268.18 75.16C1268.58 74.8533 1268.78 74.4333 1268.78 73.9C1268.78 73.34 1268.57 72.9067 1268.16 72.6C1267.76 72.2933 1267.23 72.14 1266.58 72.14C1265.94 72.14 1265.42 72.2933 1265.02 72.6C1264.62 72.9067 1264.42 73.34 1264.42 73.9C1264.42 74.4333 1264.61 74.8533 1265 75.16C1265.39 75.4667 1265.91 75.62 1266.58 75.62ZM1282.83 87.88C1282.03 86.6667 1281.41 85.2667 1280.97 83.68C1280.54 82.08 1280.33 80.36 1280.33 78.52C1280.33 76.68 1280.54 74.96 1280.97 73.36C1281.41 71.7467 1282.03 70.3467 1282.83 69.16H1285.81C1284.97 70.6667 1284.35 72.1867 1283.97 73.72C1283.58 75.24 1283.39 76.84 1283.39 78.52C1283.39 80.2 1283.58 81.8067 1283.97 83.34C1284.35 84.86 1284.97 86.3733 1285.81 87.88H1282.83ZM1292.6 84.24C1291.42 84.24 1290.4 84.0667 1289.52 83.72C1288.64 83.36 1287.95 82.86 1287.46 82.22C1286.96 81.5667 1286.72 80.8067 1286.72 79.94C1286.72 79.0733 1286.96 78.34 1287.44 77.74C1287.93 77.1267 1288.62 76.6667 1289.5 76.36C1290.38 76.04 1291.41 75.88 1292.6 75.88C1293.8 75.88 1294.84 76.04 1295.72 76.36C1296.61 76.6667 1297.3 77.1267 1297.78 77.74C1298.27 78.34 1298.52 79.0733 1298.52 79.94C1298.52 80.8067 1298.27 81.5667 1297.78 82.22C1297.28 82.86 1296.59 83.36 1295.7 83.72C1294.82 84.0667 1293.78 84.24 1292.6 84.24ZM1292.6 81.86C1293.41 81.86 1294.05 81.68 1294.52 81.32C1295 80.96 1295.24 80.4667 1295.24 79.84C1295.24 79.2133 1295 78.7267 1294.52 78.38C1294.05 78.02 1293.41 77.84 1292.6 77.84C1291.8 77.84 1291.16 78.02 1290.7 78.38C1290.23 78.7267 1290 79.2133 1290 79.84C1290 80.4667 1290.23 80.96 1290.7 81.32C1291.16 81.68 1291.8 81.86 1292.6 81.86ZM1292.6 77.52C1291.52 77.52 1290.57 77.3733 1289.76 77.08C1288.96 76.7867 1288.33 76.36 1287.88 75.8C1287.44 75.2267 1287.22 74.5467 1287.22 73.76C1287.22 72.9333 1287.44 72.2267 1287.9 71.64C1288.35 71.04 1288.98 70.58 1289.8 70.26C1290.61 69.9267 1291.54 69.76 1292.6 69.76C1293.68 69.76 1294.62 69.9267 1295.42 70.26C1296.23 70.58 1296.86 71.04 1297.32 71.64C1297.78 72.2267 1298.02 72.9333 1298.02 73.76C1298.02 74.5467 1297.79 75.2267 1297.34 75.8C1296.9 76.36 1296.27 76.7867 1295.46 77.08C1294.64 77.3733 1293.69 77.52 1292.6 77.52ZM1292.6 75.62C1293.28 75.62 1293.81 75.4667 1294.2 75.16C1294.6 74.8533 1294.8 74.4333 1294.8 73.9C1294.8 73.34 1294.59 72.9067 1294.18 72.6C1293.78 72.2933 1293.25 72.14 1292.6 72.14C1291.96 72.14 1291.44 72.2933 1291.04 72.6C1290.64 72.9067 1290.44 73.34 1290.44 73.9C1290.44 74.4333 1290.63 74.8533 1291.02 75.16C1291.4 75.4667 1291.93 75.62 1292.6 75.62ZM1306 84.24C1304.85 84.24 1303.83 83.96 1302.92 83.4C1302.01 82.8267 1301.3 82 1300.78 80.92C1300.26 79.84 1300 78.5333 1300 77C1300 75.4667 1300.26 74.16 1300.78 73.08C1301.3 72 1302.01 71.18 1302.92 70.62C1303.83 70.0467 1304.85 69.76 1306 69.76C1307.16 69.76 1308.19 70.0467 1309.08 70.62C1309.99 71.18 1310.7 72 1311.22 73.08C1311.74 74.16 1312 75.4667 1312 77C1312 78.5333 1311.74 79.84 1311.22 80.92C1310.7 82 1309.99 82.8267 1309.08 83.4C1308.19 83.96 1307.16 84.24 1306 84.24ZM1306 81.5C1306.55 81.5 1307.02 81.3467 1307.42 81.04C1307.83 80.7333 1308.15 80.2467 1308.38 79.58C1308.62 78.9133 1308.74 78.0533 1308.74 77C1308.74 75.9467 1308.62 75.0867 1308.38 74.42C1308.15 73.7533 1307.83 73.2667 1307.42 72.96C1307.02 72.6533 1306.55 72.5 1306 72.5C1305.47 72.5 1304.99 72.6533 1304.58 72.96C1304.18 73.2667 1303.86 73.7533 1303.62 74.42C1303.39 75.0867 1303.28 75.9467 1303.28 77C1303.28 78.0533 1303.39 78.9133 1303.62 79.58C1303.86 80.2467 1304.18 80.7333 1304.58 81.04C1304.99 81.3467 1305.47 81.5 1306 81.5ZM1319.57 84.24C1318.43 84.24 1317.4 83.96 1316.49 83.4C1315.59 82.8267 1314.87 82 1314.35 80.92C1313.83 79.84 1313.57 78.5333 1313.57 77C1313.57 75.4667 1313.83 74.16 1314.35 73.08C1314.87 72 1315.59 71.18 1316.49 70.62C1317.4 70.0467 1318.43 69.76 1319.57 69.76C1320.73 69.76 1321.76 70.0467 1322.65 70.62C1323.56 71.18 1324.27 72 1324.79 73.08C1325.31 74.16 1325.57 75.4667 1325.57 77C1325.57 78.5333 1325.31 79.84 1324.79 80.92C1324.27 82 1323.56 82.8267 1322.65 83.4C1321.76 83.96 1320.73 84.24 1319.57 84.24ZM1319.57 81.5C1320.12 81.5 1320.59 81.3467 1320.99 81.04C1321.41 80.7333 1321.73 80.2467 1321.95 79.58C1322.19 78.9133 1322.31 78.0533 1322.31 77C1322.31 75.9467 1322.19 75.0867 1321.95 74.42C1321.73 73.7533 1321.41 73.2667 1320.99 72.96C1320.59 72.6533 1320.12 72.5 1319.57 72.5C1319.04 72.5 1318.57 72.6533 1318.15 72.96C1317.75 73.2667 1317.43 73.7533 1317.19 74.42C1316.97 75.0867 1316.85 75.9467 1316.85 77C1316.85 78.0533 1316.97 78.9133 1317.19 79.58C1317.43 80.2467 1317.75 80.7333 1318.15 81.04C1318.57 81.3467 1319.04 81.5 1319.57 81.5ZM1329.55 87.88H1326.57C1327.43 86.3733 1328.05 84.86 1328.43 83.34C1328.81 81.8067 1329.01 80.2 1329.01 78.52C1329.01 76.84 1328.81 75.24 1328.43 73.72C1328.05 72.1867 1327.43 70.6667 1326.57 69.16H1329.55C1330.37 70.3467 1331 71.7467 1331.43 73.36C1331.85 74.96 1332.07 76.68 1332.07 78.52C1332.07 80.36 1331.85 82.08 1331.43 83.68C1331 85.2667 1330.37 86.6667 1329.55 87.88ZM1342.22 84L1347.86 71.24L1348.7 72.64H1341.16L1342.6 71.12V74.92H1339.72V70H1350.94V72.1L1345.74 84H1342.22ZM1354.62 84L1360.26 71.24L1361.1 72.64H1353.56L1355 71.12V74.92H1352.12V70H1363.34V72.1L1358.14 84H1354.62ZM1369.21 84.24C1368.24 84.24 1367.27 84.1133 1366.31 83.86C1365.37 83.5933 1364.55 83.22 1363.87 82.74L1365.15 80.26C1365.69 80.6467 1366.3 80.9533 1366.99 81.18C1367.7 81.4067 1368.41 81.52 1369.13 81.52C1369.95 81.52 1370.59 81.36 1371.05 81.04C1371.52 80.72 1371.75 80.2733 1371.75 79.7C1371.75 79.34 1371.66 79.02 1371.47 78.74C1371.29 78.46 1370.95 78.2467 1370.47 78.1C1370.01 77.9533 1369.35 77.88 1368.49 77.88H1364.91L1365.63 70H1374.17V72.6H1366.79L1368.47 71.12L1367.97 76.74L1366.29 75.26H1369.25C1370.64 75.26 1371.75 75.4533 1372.59 75.84C1373.45 76.2133 1374.07 76.7267 1374.45 77.38C1374.84 78.0333 1375.03 78.7733 1375.03 79.6C1375.03 80.4267 1374.83 81.1933 1374.41 81.9C1374 82.5933 1373.36 83.16 1372.49 83.6C1371.64 84.0267 1370.55 84.24 1369.21 84.24ZM1376.61 79.62V77.12H1382.27V79.62H1376.61ZM1383.96 81.06V78.88L1390.56 70H1393.96L1387.5 78.88L1385.92 78.42H1396.94V81.06H1383.96ZM1391.5 84V81.06L1391.6 78.42V75.8H1394.66V84H1391.5ZM1404.17 84.24C1402.89 84.24 1401.78 83.9733 1400.83 83.44C1399.9 82.9067 1399.18 82.1267 1398.67 81.1C1398.16 80.0733 1397.91 78.8067 1397.91 77.3C1397.91 75.6867 1398.21 74.32 1398.81 73.2C1399.42 72.08 1400.26 71.2267 1401.33 70.64C1402.41 70.0533 1403.65 69.76 1405.05 69.76C1405.8 69.76 1406.51 69.84 1407.19 70C1407.87 70.16 1408.46 70.4 1408.95 70.72L1407.75 73.1C1407.36 72.8333 1406.95 72.6533 1406.51 72.56C1406.07 72.4533 1405.61 72.4 1405.13 72.4C1403.92 72.4 1402.96 72.7667 1402.25 73.5C1401.54 74.2333 1401.19 75.32 1401.19 76.76C1401.19 77 1401.19 77.2667 1401.19 77.56C1401.2 77.8533 1401.24 78.1467 1401.31 78.44L1400.41 77.6C1400.66 77.08 1400.99 76.6467 1401.39 76.3C1401.79 75.94 1402.26 75.6733 1402.81 75.5C1403.37 75.3133 1403.98 75.22 1404.65 75.22C1405.56 75.22 1406.37 75.4 1407.09 75.76C1407.81 76.12 1408.38 76.6267 1408.81 77.28C1409.25 77.9333 1409.47 78.7 1409.47 79.58C1409.47 80.5267 1409.23 81.3533 1408.75 82.06C1408.28 82.7533 1407.65 83.2933 1406.85 83.68C1406.06 84.0533 1405.17 84.24 1404.17 84.24ZM1403.99 81.82C1404.44 81.82 1404.84 81.74 1405.19 81.58C1405.55 81.4067 1405.83 81.16 1406.03 80.84C1406.23 80.52 1406.33 80.1533 1406.33 79.74C1406.33 79.1 1406.11 78.5933 1405.67 78.22C1405.24 77.8333 1404.67 77.64 1403.95 77.64C1403.47 77.64 1403.05 77.7333 1402.69 77.92C1402.33 78.0933 1402.04 78.34 1401.83 78.66C1401.63 78.9667 1401.53 79.3267 1401.53 79.74C1401.53 80.14 1401.63 80.5 1401.83 80.82C1402.03 81.1267 1402.31 81.3733 1402.67 81.56C1403.03 81.7333 1403.47 81.82 1403.99 81.82ZM1411 79.62V77.12H1416.66V79.62H1411ZM1424.51 84.24C1423.37 84.24 1422.34 83.96 1421.43 83.4C1420.53 82.8267 1419.81 82 1419.29 80.92C1418.77 79.84 1418.51 78.5333 1418.51 77C1418.51 75.4667 1418.77 74.16 1419.29 73.08C1419.81 72 1420.53 71.18 1421.43 70.62C1422.34 70.0467 1423.37 69.76 1424.51 69.76C1425.67 69.76 1426.7 70.0467 1427.59 70.62C1428.5 71.18 1429.21 72 1429.73 73.08C1430.25 74.16 1430.51 75.4667 1430.51 77C1430.51 78.5333 1430.25 79.84 1429.73 80.92C1429.21 82 1428.5 82.8267 1427.59 83.4C1426.7 83.96 1425.67 84.24 1424.51 84.24ZM1424.51 81.5C1425.06 81.5 1425.53 81.3467 1425.93 81.04C1426.35 80.7333 1426.67 80.2467 1426.89 79.58C1427.13 78.9133 1427.25 78.0533 1427.25 77C1427.25 75.9467 1427.13 75.0867 1426.89 74.42C1426.67 73.7533 1426.35 73.2667 1425.93 72.96C1425.53 72.6533 1425.06 72.5 1424.51 72.5C1423.98 72.5 1423.51 72.6533 1423.09 72.96C1422.69 73.2667 1422.37 73.7533 1422.13 74.42C1421.91 75.0867 1421.79 75.9467 1421.79 77C1421.79 78.0533 1421.91 78.9133 1422.13 79.58C1422.37 80.2467 1422.69 80.7333 1423.09 81.04C1423.51 81.3467 1423.98 81.5 1424.51 81.5ZM1438.09 84.24C1436.94 84.24 1435.92 83.96 1435.01 83.4C1434.1 82.8267 1433.39 82 1432.87 80.92C1432.35 79.84 1432.09 78.5333 1432.09 77C1432.09 75.4667 1432.35 74.16 1432.87 73.08C1433.39 72 1434.1 71.18 1435.01 70.62C1435.92 70.0467 1436.94 69.76 1438.09 69.76C1439.25 69.76 1440.28 70.0467 1441.17 70.62C1442.08 71.18 1442.79 72 1443.31 73.08C1443.83 74.16 1444.09 75.4667 1444.09 77C1444.09 78.5333 1443.83 79.84 1443.31 80.92C1442.79 82 1442.08 82.8267 1441.17 83.4C1440.28 83.96 1439.25 84.24 1438.09 84.24ZM1438.09 81.5C1438.64 81.5 1439.11 81.3467 1439.51 81.04C1439.92 80.7333 1440.24 80.2467 1440.47 79.58C1440.71 78.9133 1440.83 78.0533 1440.83 77C1440.83 75.9467 1440.71 75.0867 1440.47 74.42C1440.24 73.7533 1439.92 73.2667 1439.51 72.96C1439.11 72.6533 1438.64 72.5 1438.09 72.5C1437.56 72.5 1437.08 72.6533 1436.67 72.96C1436.27 73.2667 1435.95 73.7533 1435.71 74.42C1435.48 75.0867 1435.37 75.9467 1435.37 77C1435.37 78.0533 1435.48 78.9133 1435.71 79.58C1435.95 80.2467 1436.27 80.7333 1436.67 81.04C1437.08 81.3467 1437.56 81.5 1438.09 81.5Z" fill="#72E6C2"/>
<rect x="1499" y="52" width="166" height="53" rx="10" fill="url(#paint1_linear_343_7490)"/>
<path d="M1550.2 84V70H1556.72C1558.34 70 1559.61 70.3133 1560.52 70.94C1561.42 71.5667 1561.88 72.46 1561.88 73.62C1561.88 74.7667 1561.45 75.66 1560.6 76.3C1559.74 76.9267 1558.61 77.24 1557.2 77.24L1557.58 76.4C1559.15 76.4 1560.37 76.7133 1561.24 77.34C1562.1 77.9667 1562.54 78.8733 1562.54 80.06C1562.54 81.2867 1562.07 82.2533 1561.14 82.96C1560.22 83.6533 1558.87 84 1557.1 84H1550.2ZM1553.42 81.6H1556.98C1557.72 81.6 1558.29 81.4533 1558.68 81.16C1559.06 80.8667 1559.26 80.4133 1559.26 79.8C1559.26 79.2133 1559.06 78.78 1558.68 78.5C1558.29 78.2067 1557.72 78.06 1556.98 78.06H1553.42V81.6ZM1553.42 75.8H1556.44C1557.14 75.8 1557.68 75.66 1558.04 75.38C1558.4 75.0867 1558.58 74.66 1558.58 74.1C1558.58 73.54 1558.4 73.12 1558.04 72.84C1557.68 72.5467 1557.14 72.4 1556.44 72.4H1553.42V75.8ZM1569.9 84.16C1568.75 84.16 1567.73 83.92 1566.84 83.44C1565.96 82.96 1565.26 82.3067 1564.74 81.48C1564.23 80.64 1563.98 79.6867 1563.98 78.62C1563.98 77.54 1564.23 76.5867 1564.74 75.76C1565.26 74.92 1565.96 74.2667 1566.84 73.8C1567.73 73.32 1568.75 73.08 1569.9 73.08C1571.03 73.08 1572.04 73.32 1572.94 73.8C1573.83 74.2667 1574.53 74.9133 1575.04 75.74C1575.54 76.5667 1575.8 77.5267 1575.8 78.62C1575.8 79.6867 1575.54 80.64 1575.04 81.48C1574.53 82.3067 1573.83 82.96 1572.94 83.44C1572.04 83.92 1571.03 84.16 1569.9 84.16ZM1569.9 81.6C1570.42 81.6 1570.88 81.48 1571.3 81.24C1571.71 81 1572.04 80.66 1572.28 80.22C1572.52 79.7667 1572.64 79.2333 1572.64 78.62C1572.64 77.9933 1572.52 77.46 1572.28 77.02C1572.04 76.58 1571.71 76.24 1571.3 76C1570.88 75.76 1570.42 75.64 1569.9 75.64C1569.38 75.64 1568.91 75.76 1568.5 76C1568.08 76.24 1567.75 76.58 1567.5 77.02C1567.26 77.46 1567.14 77.9933 1567.14 78.62C1567.14 79.2333 1567.26 79.7667 1567.5 80.22C1567.75 80.66 1568.08 81 1568.5 81.24C1568.91 81.48 1569.38 81.6 1569.9 81.6ZM1577.94 84V73.24H1581.04V79.64L1586.28 73.24H1589.14V84H1586.04V77.6L1580.82 84H1577.94ZM1583.34 72.08C1582.17 72.08 1581.29 71.8267 1580.7 71.32C1580.12 70.8 1579.82 70.02 1579.8 68.98H1581.84C1581.86 69.4333 1581.98 69.7933 1582.22 70.06C1582.46 70.3267 1582.83 70.46 1583.32 70.46C1583.8 70.46 1584.17 70.3267 1584.42 70.06C1584.69 69.7933 1584.82 69.4333 1584.82 68.98H1586.9C1586.9 70.02 1586.6 70.8 1586 71.32C1585.4 71.8267 1584.52 72.08 1583.34 72.08ZM1594.44 84V75.08L1595.14 75.8H1590.8V73.24H1601.18V75.8H1596.84L1597.54 75.08V84H1594.44ZM1602.85 84V73.24H1605.95V79.64L1611.19 73.24H1614.05V84H1610.95V77.6L1605.73 84H1602.85Z" fill="white"/>
<defs>
<linearGradient id="paint0_linear_343_7490" x1="321.859" y1="50.9531" x2="321.859" y2="85.0346" gradientUnits="userSpaceOnUse">
<stop stop-color="#60D7E5"/>
<stop offset="1" stop-color="#75FAAE"/>
</linearGradient>
<linearGradient id="paint1_linear_343_7490" x1="1501.66" y1="72.4429" x2="1655.69" y2="74.4035" gradientUnits="userSpaceOnUse">
<stop stop-color="#62D9E2"/>
<stop offset="1" stop-color="#73F6B4"/>
</linearGradient>
</defs>
</svg>
