<svg width="27" height="27" viewBox="0 0 27 27" fill="none" xmlns="http://www.w3.org/2000/svg">
<g id="icon">
<g id="Group">
<path id="Vector" d="M20.137 26.9798C19.3064 26.9713 18.5765 26.7605 17.897 26.3726C10.5728 22.1986 4.83424 16.4393 0.672955 9.08622C-0.434484 7.13834 -0.166014 5.13986 1.41125 3.54613C2.267 2.6776 3.13113 1.81749 3.99527 0.957387C5.27889 -0.324337 6.99878 -0.324337 8.27401 0.957387C9.2556 1.93555 10.2372 2.92214 11.2104 3.91716C12.4605 5.18202 12.4605 6.87693 11.2104 8.15866C10.8077 8.57185 10.3966 8.9766 9.9939 9.38979C9.41501 9.98849 9.32272 10.6884 9.73382 11.4051C11.1181 13.8252 12.989 15.79 15.3381 17.2994C16.0093 17.7294 16.7812 17.6451 17.3517 17.097C17.8131 16.6501 18.2577 16.1863 18.7108 15.731C19.986 14.4661 21.6891 14.4577 22.956 15.731C23.9376 16.7091 24.9191 17.6957 25.8924 18.6907C27.1592 19.9809 27.1676 21.6758 25.9091 22.9575C25.0282 23.8514 24.1305 24.7368 23.2412 25.6306C22.3687 26.5076 21.32 26.9629 20.1286 26.9882L20.137 26.9798Z" fill="white"/>
</g>
</g>
</svg>
