<svg width="34" height="35" viewBox="0 0 34 35" fill="none" xmlns="http://www.w3.org/2000/svg">
<g id="icon">
<path id="Vector" d="M20.3533 34.6153C19.5138 34.6068 18.776 34.395 18.0892 34.0052C10.6863 29.8111 4.88615 24.0241 0.680182 16.6358C-0.439149 14.6785 -0.167796 12.6704 1.4264 11.0691C2.29134 10.1963 3.16476 9.3321 4.03817 8.46787C5.33558 7.17998 7.07393 7.17998 8.36286 8.46787C9.35499 9.45072 10.3471 10.4421 11.3308 11.4419C12.5943 12.7128 12.5943 14.4159 11.3308 15.7037C10.9238 16.1189 10.5082 16.5256 10.1012 16.9408C9.51611 17.5424 9.42283 18.2456 9.83834 18.9658C11.2375 21.3975 13.1285 23.3717 15.5028 24.8884C16.1812 25.3205 16.9614 25.2358 17.538 24.685C18.0044 24.236 18.4538 23.77 18.9117 23.3124C20.2006 22.0415 21.922 22.033 23.2025 23.3124C24.1946 24.2953 25.1867 25.2866 26.1704 26.2864C27.4508 27.5828 27.4593 29.2858 26.1874 30.5737C25.297 31.4718 24.3896 32.3615 23.4908 33.2596C22.6089 34.1408 21.5489 34.5983 20.3448 34.6238L20.3533 34.6153Z" fill="url(#paint0_linear_343_7583)"/>
<g id="Group 166">
<path id="Rectangle 21" d="M18.4258 5.55446V1.67003C18.4258 1.29998 18.7258 1 19.0958 1H23.1204M28.0602 1H32.33C32.7001 1 33.0001 1.29998 33.0001 1.67003V5.55446M33.0001 10.4242V14.624C33.0001 14.994 32.7001 15.294 32.33 15.294H28.0602M23.243 15.294H19.0958C18.7258 15.294 18.4258 14.994 18.4258 14.624V10.4242" stroke="url(#paint1_linear_343_7583)" stroke-width="1.34005" stroke-linecap="round"/>
<path id="Vector 42" d="M25.783 3.38184V12.9112M28.1653 10.3887V5.76417M30.6878 6.95534V9.12747M23.2605 10.1785V5.55396M20.8081 6.95534V9.12747" stroke="url(#paint2_linear_343_7583)" stroke-width="1.34005" stroke-linecap="round"/>
</g>
</g>
<defs>
<linearGradient id="paint0_linear_343_7583" x1="13.568" y1="7.50195" x2="13.568" y2="34.6238" gradientUnits="userSpaceOnUse">
<stop stop-color="#61D8E3"/>
<stop offset="1" stop-color="#74F9B0"/>
</linearGradient>
<linearGradient id="paint1_linear_343_7583" x1="25.7129" y1="1" x2="25.7129" y2="15.294" gradientUnits="userSpaceOnUse">
<stop stop-color="#62D9E2"/>
<stop offset="1" stop-color="#72F6B5"/>
</linearGradient>
<linearGradient id="paint2_linear_343_7583" x1="25.7479" y1="3.38184" x2="25.7479" y2="12.9112" gradientUnits="userSpaceOnUse">
<stop stop-color="#62D9E2"/>
<stop offset="1" stop-color="#72F6B5"/>
</linearGradient>
</defs>
</svg>
