<svg width="33" height="24" viewBox="0 0 33 24" fill="none" xmlns="http://www.w3.org/2000/svg">
<path d="M16.499 0.0742458C21.2605 0.0742458 26.0231 0.0752278 30.7846 0.0693359C31.0218 0.0693359 31.193 0.127273 31.3603 0.302064C31.8337 0.797962 32.3239 1.27913 32.8169 1.75735C32.9508 1.88697 33 2.01856 33 2.20513C32.9951 8.62137 32.9951 15.0366 33 21.4529C33 21.6384 32.9518 21.771 32.8179 21.9016C32.3081 22.3965 31.8042 22.8993 31.3082 23.408C31.1783 23.5415 31.0464 23.5906 30.8594 23.5906C21.2871 23.5857 11.7139 23.5857 2.1416 23.5906C1.95559 23.5906 1.82273 23.5425 1.69281 23.4089C1.18792 22.8914 0.675157 22.3818 0.158455 21.8761C0.0452729 21.7641 0 21.6502 0 21.4911C0.00393677 15.0504 0.00393677 8.61057 0 2.16978C0 2.01168 0.0433045 1.89679 0.157471 1.78583C0.68303 1.27127 1.20957 0.757701 1.71545 0.22547C1.86898 0.0644261 2.03334 0.0742458 2.21443 0.0742458C6.97596 0.0742458 11.7375 0.0742458 16.5 0.0742458H16.499ZM28.768 2.44277H4.24089C4.40033 2.59203 4.51942 2.70692 4.64146 2.81887C8.13239 6.01127 11.6332 9.19288 15.1044 12.4059C15.5808 12.8468 16.0394 13.0638 16.687 13.0226C17.0659 12.998 17.3444 12.9038 17.623 12.6475C20.5549 9.95194 23.4976 7.26722 26.4364 4.57955C27.2001 3.88137 27.9619 3.18122 28.769 2.44277H28.768ZM4.04503 21.2064H28.951C26.2386 18.5 23.5576 15.8281 20.8826 13.1493C20.737 13.0039 20.6602 13.0412 20.5372 13.1561C19.8089 13.8298 19.0737 14.4965 18.3444 15.1702C18.2135 15.2909 18.0885 15.3636 17.8966 15.3617C16.9645 15.3499 16.0315 15.3518 15.0995 15.3597C14.9273 15.3607 14.8033 15.3106 14.6783 15.1937C13.9608 14.526 13.2305 13.872 12.518 13.1993C12.3408 13.0324 12.2463 13.0147 12.0613 13.2033C10.9098 14.3738 9.74155 15.5276 8.57921 16.6863C7.0793 18.1819 5.57939 19.6765 4.04503 21.2064Z" fill="url(#paint0_linear_343_7599)"/>
<defs>
<linearGradient id="paint0_linear_343_7599" x1="16.5" y1="0.0693359" x2="16.5" y2="23.5906" gradientUnits="userSpaceOnUse">
<stop stop-color="#60D9E2"/>
<stop offset="0.90625" stop-color="#71F3B8"/>
</linearGradient>
</defs>
</svg>
