<svg width="26" height="32" viewBox="0 0 26 32" fill="none" xmlns="http://www.w3.org/2000/svg">
<g id="icon">
<g id="Group">
<path id="Vector" d="M19.5012 31.2164C18.6968 31.2081 17.99 31.0027 17.3319 30.6247C10.2389 26.557 4.68159 20.9443 0.651706 13.7785C-0.420764 11.8803 -0.160772 9.93268 1.36669 8.37955C2.19541 7.53313 3.03226 6.69493 3.86912 5.85673C5.11221 4.60765 6.77778 4.60765 8.01275 5.85673C8.96335 6.80998 9.91395 7.77144 10.8564 8.74112C12.067 9.97377 12.067 11.6255 10.8564 12.8746C10.4664 13.2773 10.0683 13.6717 9.67833 14.0744C9.11772 14.6578 9.02835 15.3399 9.42646 16.0384C10.767 18.3968 12.5789 20.3116 14.8538 21.7825C15.5038 22.2016 16.2513 22.1194 16.8038 21.5853C17.2506 21.1498 17.6812 20.6978 18.12 20.254C19.3549 19.0214 21.0043 19.0132 22.2311 20.254C23.1817 21.2073 24.1323 22.1687 25.0748 23.1384C26.3016 24.3957 26.3097 26.0475 25.091 27.2965C24.2379 28.1676 23.3686 29.0305 22.5073 29.9015C21.6624 30.7562 20.6468 31.1999 19.493 31.2246L19.5012 31.2164Z" fill="url(#paint0_linear_343_7543)"/>
<path id="Vector 46" d="M20.1892 1L14.625 4.21176L18.4858 10.2912L17.3503 11.0941L22.5738 13.2735V7.42353L21.4383 8.22647L19.1672 5.01471L21.4383 3.52353M23.9364 6.39118L24.05 13.0441M21.8925 14.65L15.7605 12.0118" stroke="url(#paint1_linear_343_7543)" stroke-width="0.928571" stroke-linecap="round" stroke-linejoin="round"/>
</g>
</g>
<defs>
<linearGradient id="paint0_linear_343_7543" x1="13" y1="4.91992" x2="13" y2="31.2246" gradientUnits="userSpaceOnUse">
<stop stop-color="#61D8E3"/>
<stop offset="1" stop-color="#74F9B0"/>
</linearGradient>
<linearGradient id="paint1_linear_343_7543" x1="19.3375" y1="1" x2="19.3375" y2="14.65" gradientUnits="userSpaceOnUse">
<stop stop-color="#62D9E2"/>
<stop offset="1" stop-color="#73F7B3"/>
</linearGradient>
</defs>
</svg>
