<svg width="26" height="29" viewBox="0 0 26 29" fill="none" xmlns="http://www.w3.org/2000/svg">
<path d="M12.999 0.0107286C15.3253 0.0107286 17.6527 0.0264903 19.9789 0.000220332C20.6267 -0.00713525 21.1728 0.169399 21.6554 0.571855C21.956 0.822995 22.3359 0.919669 22.6651 1.12352C23.5636 1.6794 24.2314 2.45699 24.6865 3.35227C24.9882 3.94597 25.276 4.61112 25.276 5.33092C25.2718 10.0206 25.3131 14.7114 25.2517 19.4011C25.2326 20.8607 24.4611 22.0722 23.3858 23.0705C22.7444 23.6663 21.9909 24.0687 21.1749 24.364C20.9293 24.4523 20.6552 24.5763 20.415 24.5416C19.5958 24.4239 19.164 24.8568 18.7692 25.4789C18.1268 26.4919 17.4537 27.4859 16.7118 28.4327C16.6229 28.5451 16.5393 28.5861 16.4207 28.6124C15.5391 28.8099 14.7781 28.4611 14.2733 27.6824C13.6849 26.7735 13.0403 25.8992 12.4635 24.984C12.1873 24.5458 11.8179 24.4397 11.3522 24.4418C9.62498 24.447 7.89456 24.5048 6.17049 24.4292C4.06329 24.3367 2.49056 23.3122 1.44808 21.4754C0.895612 20.5013 0.705107 19.4799 0.714632 18.364C0.750617 14.2165 0.760142 10.0679 0.71675 5.92147C0.691349 3.47836 1.9381 1.95786 3.92888 0.705306C4.98512 0.0412017 6.01491 0.0117791 7.12831 0.00967753C9.08522 0.00547434 11.0411 0.00862691 12.998 0.00862691V0.0128302L12.999 0.0107286ZM2.01748 12.3492C2.01748 14.5716 2.01853 16.7941 2.01642 19.0165C2.01642 19.5619 2.10744 20.0568 2.35933 20.5727C3.20919 22.3087 4.56707 23.1766 6.49752 23.1798C8.29568 23.1829 10.0938 23.1924 11.8909 23.1693C12.4593 23.1619 12.853 23.3426 13.162 23.8292C13.8172 24.8589 14.5188 25.8583 15.1877 26.8786C15.5391 27.4145 15.8556 27.446 16.2207 26.9101C16.8578 25.9738 17.4749 25.0239 18.0908 24.0729C18.4157 23.5717 18.7534 23.1241 19.4519 23.1724C21.5358 23.3164 23.9002 21.6519 23.8811 18.8725C23.8504 14.5328 23.8801 10.1919 23.8663 5.85211C23.8642 5.29939 23.8631 4.7204 23.6165 4.20761C22.7561 2.4139 21.3061 1.49656 19.309 1.49025C15.0787 1.47659 10.8474 1.49025 6.61712 1.48185C5.57781 1.47974 4.61999 1.754 3.80928 2.37082C2.7287 3.19359 2.01007 4.2486 2.01536 5.67978C2.02383 7.90222 2.01748 10.1247 2.01748 12.3471V12.3492Z" fill="url(#paint0_linear_95_628)"/>
<path d="M20.3345 12.3428C20.3345 14.0408 20.343 15.7389 20.3324 17.437C20.325 18.615 19.8815 19.5733 18.8412 20.2132C18.4263 20.4686 17.9786 20.6094 17.4928 20.6094C14.3717 20.6125 11.2506 20.6209 8.12947 20.6073C6.62448 20.601 5.28036 19.3095 5.2592 17.7985C5.22533 15.348 5.24015 12.8965 5.25602 10.4461C5.26237 9.55709 5.58411 8.79106 6.23818 8.14797C7.25315 7.15181 8.23108 6.11783 9.22911 5.10591C9.92552 4.39977 10.7595 4.01728 11.7734 4.02254C13.6753 4.03304 15.5793 3.97 17.478 4.04145C19.165 4.1045 20.2805 5.34339 20.325 7.08982C20.3694 8.83939 20.3345 10.5911 20.3356 12.3417L20.3345 12.3428ZM9.23123 14.7764H9.23334C9.23334 15.3712 9.22805 15.9659 9.2344 16.5596C9.24499 17.4738 10.0631 18.3764 10.9839 18.4038C12.2507 18.4416 13.5197 18.4384 14.7866 18.4038C15.6915 18.3785 16.6324 17.3361 16.6334 16.4419C16.6334 15.3407 16.6387 14.2384 16.6334 13.1372C16.6292 12.223 15.6311 11.1806 14.7125 11.1648C13.4806 11.1448 12.2465 11.1469 11.0146 11.1659C10.1742 11.1795 9.25345 12.1095 9.23334 12.9407C9.21853 13.5522 9.23017 14.1648 9.23017 14.7764H9.23123Z" fill="url(#paint1_linear_95_628)"/>
<path d="M15.1938 14.9054C15.1938 15.4813 15.1917 16.0571 15.1938 16.6319C15.1959 16.9692 15.07 17.2487 14.7144 17.2666C14.2879 17.2876 14.2889 16.9398 14.2889 16.634C14.2868 15.4655 14.2868 14.297 14.2868 13.1285C14.2868 12.8143 14.3143 12.496 14.7303 12.4981C15.1367 12.4991 15.1885 12.8186 15.1928 13.1275C15.2023 13.7201 15.1959 14.3138 15.1959 14.9065H15.1938V14.9054Z" fill="#60D7E5"/>
<path d="M11.5025 14.8968C11.5025 15.5083 11.5025 16.1188 11.5025 16.7304C11.5025 16.9899 11.4591 17.2589 11.1416 17.2705C10.8367 17.281 10.7076 17.0688 10.6409 16.7693C10.5764 16.4803 10.6812 16.2166 10.6685 15.9391C10.6261 15.0334 10.7182 14.1265 10.606 13.2207C10.5626 12.8708 10.6865 12.5062 11.1077 12.502C11.5183 12.4978 11.5046 12.8687 11.5067 13.1692C11.5099 13.7451 11.5067 14.322 11.5067 14.8978H11.5025V14.8968Z" fill="#60D7E5"/>
<path d="M13.2954 14.9077C13.2954 15.5024 13.2954 16.0961 13.2954 16.6909C13.2954 16.9452 13.2954 17.2079 12.9323 17.2026C12.6286 17.1984 12.4804 17.0135 12.4783 16.7319C12.4709 15.473 12.4698 14.2152 12.4783 12.9564C12.4804 12.7052 12.617 12.5098 12.8964 12.5098C13.1832 12.5098 13.2911 12.7157 13.2943 12.9679C13.3017 13.6142 13.2964 14.2614 13.2964 14.9077H13.2943H13.2954Z" fill="#60D7E5"/>
<defs>
<linearGradient id="paint0_linear_95_628" x1="13" y1="0" x2="13" y2="28.6667" gradientUnits="userSpaceOnUse">
<stop stop-color="#60D8E3"/>
<stop offset="1" stop-color="#74F9AF"/>
</linearGradient>
<linearGradient id="paint1_linear_95_628" x1="12.7932" y1="4.00684" x2="12.7932" y2="20.6148" gradientUnits="userSpaceOnUse">
<stop stop-color="#60D7E5"/>
<stop offset="1" stop-color="#75FAAE"/>
</linearGradient>
</defs>
</svg>
