<svg width="138" height="98" viewBox="0 0 138 98" fill="none" xmlns="http://www.w3.org/2000/svg">
<path d="M92.8855 63.0063L98.3712 55.443V57.5935L93.1224 50.2489H96.4758L100.103 55.3701L98.6993 55.3883L102.271 50.2489H105.479L100.267 57.4659V55.3518L105.789 63.0063H102.381L98.6264 57.5935H99.975L96.2753 63.0063H92.8855ZM110.195 63.0063V44.0523L112.268 46.1254H106.048V42.2754H114.992V63.0063H110.195ZM127.478 63.3617C125.78 63.3617 124.26 62.9471 122.917 62.1179C121.575 61.2689 120.519 60.0448 119.749 58.4455C118.979 56.8463 118.594 54.9114 118.594 52.6409C118.594 50.3703 118.979 48.4355 119.749 46.8362C120.519 45.237 121.575 44.0227 122.917 43.1935C124.26 42.3445 125.78 41.92 127.478 41.92C129.196 41.92 130.716 42.3445 132.039 43.1935C133.382 44.0227 134.438 45.237 135.208 46.8362C135.978 48.4355 136.363 50.3703 136.363 52.6409C136.363 54.9114 135.978 56.8463 135.208 58.4455C134.438 60.0448 133.382 61.2689 132.039 62.1179C130.716 62.9471 129.196 63.3617 127.478 63.3617ZM127.478 59.3044C128.288 59.3044 128.989 59.0773 129.581 58.6232C130.193 58.1691 130.667 57.4485 131.003 56.4613C131.358 55.4741 131.536 54.2006 131.536 52.6409C131.536 51.0811 131.358 49.8077 131.003 48.8205C130.667 47.8333 130.193 47.1126 129.581 46.6585C128.989 46.2044 128.288 45.9774 127.478 45.9774C126.689 45.9774 125.988 46.2044 125.376 46.6585C124.783 47.1126 124.309 47.8333 123.954 48.8205C123.618 49.8077 123.451 51.0811 123.451 52.6409C123.451 54.2006 123.618 55.4741 123.954 56.4613C124.309 57.4485 124.783 58.1691 125.376 58.6232C125.988 59.0773 126.689 59.3044 127.478 59.3044Z" fill="url(#paint0_linear_374_1044)"/>
<path d="M104.276 29.9692L109.762 22.4059V24.5564L104.513 17.2117H107.867L111.493 22.333L110.09 22.3512L113.662 17.2117H116.87L111.657 24.4288V22.3147L117.18 29.9692H113.771L110.017 24.5564H111.366L107.666 29.9692H104.276ZM125.435 30.3246C123.994 30.3246 122.563 30.1371 121.141 29.7619C119.739 29.3671 118.535 28.8142 117.528 28.1035L119.423 24.4311C120.213 25.0037 121.121 25.4578 122.148 25.7934C123.194 26.1291 124.251 26.2969 125.317 26.2969C126.521 26.2969 127.469 26.06 128.16 25.5861C128.851 25.1123 129.196 24.4509 129.196 23.6019C129.196 23.0688 129.058 22.5949 128.782 22.1803C128.505 21.7657 128.012 21.4498 127.301 21.2326C126.61 21.0154 125.633 20.9069 124.369 20.9069H119.068L120.134 9.2383H132.78V13.0883H121.852L124.34 10.8968L123.599 19.2188L121.111 17.0272H125.495C127.548 17.0272 129.196 17.3135 130.44 17.8861C131.704 18.4389 132.622 19.199 133.195 20.1665C133.767 21.1339 134.053 22.2297 134.053 23.4538C134.053 24.6779 133.747 25.8132 133.135 26.8596C132.523 27.8863 131.576 28.7254 130.292 29.3769C129.029 30.0087 127.41 30.3246 125.435 30.3246Z" fill="url(#paint1_linear_374_1044)"/>
<path d="M47.3302 4.44262C61.6134 4.44262 75.8966 4.50396 90.177 4.38687C92.8029 4.36456 94.9966 6.87643 93.4635 9.73679C91.2586 13.8489 89.2432 18.0614 87.1805 22.2487C86.425 23.7821 85.2905 24.4874 83.5511 24.4874C59.3639 24.4651 35.1795 24.4651 10.9923 24.4874C9.2529 24.4874 8.12675 23.7709 7.37133 22.2404C5.29464 18.0251 3.16498 13.8377 1.07435 9.63085C-0.294314 6.87922 1.21651 4.44262 4.27441 4.44262C18.6273 4.44262 32.9774 4.44262 47.3302 4.44262Z" fill="url(#paint2_linear_374_1044)"/>
<path d="M47.3525 51.1756C55.0655 51.1756 62.7785 51.1756 70.4916 51.1756C73.0784 51.1756 74.6059 53.0853 73.9453 55.6C72.808 59.9435 71.6149 64.2758 70.4191 68.6026C69.9424 70.3311 68.7661 71.1953 66.996 71.2009C64.0441 71.2065 61.0893 71.2232 58.1373 71.187C57.4795 71.1786 57.2481 71.318 57.2704 72.0261C57.3262 73.7629 57.3039 75.4998 57.2788 77.2394C57.2704 77.7217 57.3819 77.9169 57.9032 77.8918C58.7701 77.85 59.6398 77.8918 60.5095 77.8778C62.0371 77.8527 63.1158 78.5748 63.7012 79.9353C64.2922 81.3097 63.9967 82.5977 62.9458 83.6627C60.8468 85.7898 58.7255 87.8947 56.6126 90.0079C54.4272 92.1963 52.2418 94.3848 50.0536 96.5677C48.1748 98.4412 46.4019 98.4523 44.551 96.604C40.275 92.3302 36.0018 88.0508 31.7229 83.7826C30.7612 82.8235 30.3515 81.6972 30.6999 80.3758C31.0372 79.1017 31.893 78.1957 33.1696 77.9671C34.2484 77.7747 35.3857 77.8472 36.4951 77.8974C37.1586 77.928 37.3035 77.7189 37.2868 77.0861C37.2422 75.3855 37.2366 73.6793 37.2868 71.9787C37.3063 71.318 37.1084 71.1786 36.4784 71.187C33.5264 71.2232 30.5717 71.2065 27.6197 71.2009C25.7855 71.1981 24.6231 70.3394 24.1325 68.5552C22.9451 64.2619 21.7687 59.963 20.6231 55.6585C19.9429 53.0909 21.4593 51.1756 24.1102 51.1729C31.8567 51.1729 39.606 51.1729 47.3525 51.1729V51.1756ZM50.6167 76.6122C50.6167 75.0509 50.5888 73.4869 50.6306 71.9257C50.6473 71.3236 50.455 71.1758 49.878 71.1897C48.1776 71.226 46.4772 71.2371 44.7768 71.187C44.0967 71.1674 43.9071 71.3542 43.9238 72.0373C43.988 74.5017 43.9824 76.9662 44.0075 79.4307C44.027 81.2177 43.7761 82.9099 42.2151 84.0753C41.7273 84.4377 42.0562 84.6105 42.2932 84.8475C43.79 86.3446 45.3037 87.825 46.7727 89.3499C47.1964 89.7904 47.4277 89.7263 47.8403 89.3416C49.2898 87.995 50.6668 86.576 52.0355 85.1486C52.6097 84.5492 52.7296 84.1868 51.9965 83.6376C50.9595 82.8625 50.5107 81.7976 50.5971 80.4622C50.678 79.1826 50.6139 77.8946 50.6139 76.6094L50.6167 76.6122Z" fill="url(#paint3_linear_374_1044)"/>
<path d="M47.3833 27.8075C58.3327 27.8075 69.282 27.8075 80.2313 27.8075C83.161 27.8075 84.6746 29.9709 83.6349 32.6974C82.0209 36.9266 80.3958 41.1502 78.7679 45.3738C78.0933 47.1218 77.0591 47.8327 75.2138 47.8327C56.5821 47.8327 37.9532 47.8327 19.3215 47.8327C17.5431 47.8327 16.4587 47.1079 15.8176 45.4463C14.159 41.1642 12.5005 36.8792 10.867 32.5859C9.88301 30.0015 11.4412 27.8047 14.2287 27.8047C25.2812 27.8047 36.3365 27.8047 47.3889 27.8047L47.3833 27.8075Z" fill="url(#paint4_linear_374_1044)"/>
<defs>
<linearGradient id="paint0_linear_374_1044" x1="115.331" y1="34.0063" x2="115.331" y2="70.011" gradientUnits="userSpaceOnUse">
<stop stop-color="#60D8E4"/>
<stop offset="1" stop-color="#74F9AF"/>
</linearGradient>
<linearGradient id="paint1_linear_374_1044" x1="119.722" y1="0.969238" x2="119.722" y2="36.9739" gradientUnits="userSpaceOnUse">
<stop stop-color="#60D8E4"/>
<stop offset="1" stop-color="#74F9AF"/>
</linearGradient>
<linearGradient id="paint2_linear_374_1044" x1="47.2684" y1="4.38672" x2="47.2684" y2="24.4874" gradientUnits="userSpaceOnUse">
<stop stop-color="#60D9E2"/>
<stop offset="1" stop-color="#73F7B2"/>
</linearGradient>
<linearGradient id="paint3_linear_374_1044" x1="47.28" y1="51.1729" x2="47.28" y2="97.9816" gradientUnits="userSpaceOnUse">
<stop stop-color="#60D9E2"/>
<stop offset="1" stop-color="#73F7B2"/>
</linearGradient>
<linearGradient id="paint4_linear_374_1044" x1="47.2669" y1="27.8047" x2="47.2669" y2="47.8327" gradientUnits="userSpaceOnUse">
<stop stop-color="#60D9E2"/>
<stop offset="1" stop-color="#73F7B2"/>
</linearGradient>
</defs>
</svg>
