<svg width="90" height="109" viewBox="0 0 90 109" fill="none" xmlns="http://www.w3.org/2000/svg">
<g id="Group 227">
<g id="Group 226">
<path id="Vector" d="M67.5699 23.7685C60.4818 21.298 58.2389 13.7489 59.8523 8.67028C61.5405 3.326 66.4074 -0.240871 71.9955 0.0126981C77.9067 0.278342 82.3901 4.41273 83.4489 9.91398C84.4811 15.2872 81.792 21.6434 74.9692 23.8869C74.9185 24.6572 74.8245 25.4469 74.8221 26.2366C74.81 33.7519 74.8221 41.2696 74.8052 48.7874C74.8092 49.54 74.5726 50.2743 74.13 50.8826C73.6874 51.4909 73.0619 51.9415 72.3452 52.1683C70.1095 52.8928 67.676 51.2023 67.5699 48.826C67.553 48.43 67.5699 48.0339 67.5699 47.5147C67.2033 47.5147 66.8922 47.5147 66.5787 47.5147C65.4114 47.4809 64.2321 47.5268 63.0768 47.3843C61.719 47.2128 60.8918 46.0078 60.981 44.5685C61.0268 43.9509 61.2979 43.3718 61.7427 42.9415C62.1874 42.5113 62.7748 42.26 63.3928 42.2356C64.4877 42.1849 65.5851 42.2115 66.6824 42.2042H67.5361V40.7939H64.7699C63.1492 40.7939 61.9216 39.6541 61.9144 38.1592C61.9071 36.6644 63.142 35.5028 64.7458 35.5028H67.594L67.5699 23.7685ZM66.6945 12.1768C66.6765 12.8159 66.789 13.4521 67.025 14.0462C67.2611 14.6403 67.6157 15.18 68.0672 15.6321C68.5188 16.0842 69.0577 16.4393 69.651 16.6757C70.2444 16.9121 70.8796 17.0247 71.518 17.0067C74.3831 16.9729 76.327 14.9105 76.3415 12.155C76.3415 9.06391 73.7199 7.32515 71.489 7.32515C68.9591 7.3179 66.5449 9.54208 66.6945 12.1768Z" fill="url(#paint0_linear_374_1035)"/>
</g>
<g id="icon">
<g id="Group">
<path id="Vector_2" d="M67.5041 108.972C64.7198 108.944 62.273 108.237 59.9949 106.936C35.4425 92.9395 16.2055 73.6273 2.2559 48.9709C-1.45649 42.4392 -0.556517 35.7379 4.73083 30.3938C7.5995 27.4814 10.4963 24.5973 13.3931 21.7132C17.6961 17.4153 23.4616 17.4153 27.7364 21.7132C31.027 24.9931 34.3175 28.3014 37.5799 31.6379C41.7704 35.8793 41.7704 41.5627 37.5799 45.8606C36.2299 47.2461 34.8519 48.6033 33.5019 49.9888C31.5613 51.9964 31.252 54.3433 32.6301 56.7467C37.2705 64.8618 43.5422 71.45 51.417 76.5114C53.667 77.9534 56.2544 77.6707 58.1668 75.8328C59.7137 74.3342 61.2042 72.779 62.7229 71.2521C66.9978 67.0108 72.707 66.9825 76.9538 71.2521C80.2443 74.5321 83.5349 77.8404 86.7973 81.1769C91.044 85.5031 91.0722 91.1865 86.8535 95.4844C83.9005 98.4816 80.8912 101.451 77.91 104.448C74.9851 107.388 71.4696 108.915 67.4759 109L67.5041 108.972Z" fill="url(#paint1_linear_374_1035)"/>
</g>
</g>
</g>
<defs>
<linearGradient id="paint0_linear_374_1035" x1="71.5086" y1="0" x2="71.5086" y2="52.3377" gradientUnits="userSpaceOnUse">
<stop stop-color="#60D8E4"/>
<stop offset="1" stop-color="#74F9AF"/>
</linearGradient>
<linearGradient id="paint1_linear_374_1035" x1="45" y1="18.4897" x2="45" y2="109" gradientUnits="userSpaceOnUse">
<stop stop-color="#61D8E3"/>
<stop offset="1" stop-color="#74F9B0"/>
</linearGradient>
</defs>
</svg>
