<svg width="102" height="120" viewBox="0 0 102 120" fill="none" xmlns="http://www.w3.org/2000/svg">
<g id="icon">
<g id="&#208;&#161;&#208;&#187;&#208;&#190;&#208;&#185; 3">
<g id="&#208;&#187;&#208;&#190;&#208;&#179;&#208;&#190;">
<path id="Vector" d="M50.996 0.044699C60.6528 0.044699 70.3139 0.110368 79.9707 0.000917983C82.6594 -0.029728 84.9265 0.705778 86.9299 2.38255C88.1776 3.4289 89.7548 3.83167 91.1212 4.68101C94.8512 6.99697 97.6235 10.2367 99.5127 13.9668C100.765 16.4403 101.96 19.2116 101.96 22.2105C101.942 41.7496 102.114 61.293 101.859 80.832C101.78 86.913 98.5769 91.9609 94.1131 96.12C91.4507 98.6023 88.3226 100.279 84.9352 101.509C83.916 101.877 82.7781 102.394 81.7808 102.249C78.3802 101.759 76.5877 103.563 74.949 106.154C72.2822 110.375 69.4879 114.516 66.4081 118.461C66.0391 118.929 65.692 119.1 65.1999 119.21C61.5402 120.033 58.3813 118.579 56.2857 115.335C53.8429 111.548 51.1673 107.906 48.7729 104.092C47.6262 102.267 46.0929 101.825 44.1598 101.833C36.9897 101.855 29.8065 102.096 22.6496 101.781C13.9022 101.395 7.37358 97.1269 3.04605 89.4742C0.752677 85.4158 -0.0381377 81.1604 0.00140324 76.5109C0.15078 59.2309 0.190323 41.9466 0.010192 24.671C-0.0952504 14.4921 5.08021 8.15714 13.3443 2.93856C17.7289 0.171661 22.0037 0.0490761 26.6256 0.0403201C34.7491 0.0228081 42.8681 0.0359428 50.9916 0.0359428V0.0534552L50.996 0.044699ZM5.40972 51.4512C5.40972 60.7107 5.41411 69.9702 5.40533 79.2297C5.40533 81.5018 5.78316 83.5639 6.82879 85.7135C10.3567 92.9459 15.9935 96.5622 24.0071 96.5753C31.4716 96.5884 38.936 96.6278 46.3961 96.5315C48.7553 96.5009 50.3897 97.2539 51.6726 99.2809C54.3921 103.571 57.3049 107.735 60.0816 111.986C61.5402 114.219 62.8539 114.35 64.3696 112.117C67.0144 108.216 69.5758 104.259 72.1328 100.297C73.4816 98.2083 74.8831 96.3433 77.7827 96.5447C86.4334 97.1444 96.2483 90.2097 96.1693 78.6299C96.0418 60.5487 96.1649 42.4632 96.1077 24.382C96.099 22.0792 96.0946 19.6669 95.0709 17.5304C91.499 10.0572 85.48 6.2352 77.1896 6.20893C59.6291 6.15201 42.0641 6.20893 24.5036 6.1739C20.1892 6.16515 16.2132 7.30781 12.8478 9.8777C8.36211 13.3057 5.37896 17.7012 5.40093 23.664C5.43608 32.9235 5.40972 42.183 5.40972 51.4425V51.4512Z" fill="url(#paint0_linear_374_991)"/>
</g>
</g>
<path id="Vector 45" d="M51.6454 33.9648V73.4703M61.5319 63.013V43.8412M72 48.7794V57.7843M41.1773 62.1415V42.9698M31 48.7794V57.7843" stroke="url(#paint1_linear_374_991)" stroke-width="5.56112" stroke-linecap="round"/>
</g>
<defs>
<linearGradient id="paint0_linear_374_991" x1="51" y1="0" x2="51" y2="119.436" gradientUnits="userSpaceOnUse">
<stop stop-color="#60D8E3"/>
<stop offset="1" stop-color="#74F9AF"/>
</linearGradient>
<linearGradient id="paint1_linear_374_991" x1="51.5" y1="33.9648" x2="51.5" y2="73.4703" gradientUnits="userSpaceOnUse">
<stop stop-color="#62D9E2"/>
<stop offset="1" stop-color="#72F6B5"/>
</linearGradient>
</defs>
</svg>
