<svg width="96" height="126" viewBox="0 0 96 126" fill="none" xmlns="http://www.w3.org/2000/svg">
<g id="icon">
<g id="Group">
<g id="Group 238">
<g id="Group 237">
<path id="Vector" d="M0 51.596C0.110567 51.243 0.224193 50.8931 0.331689 50.5401C0.833634 48.7969 1.89168 47.2652 3.34478 46.1781C4.79788 45.0911 6.56653 44.5081 8.38163 44.518C34.6045 44.518 60.8274 44.518 87.0503 44.518C88.1565 44.5069 89.2538 44.7165 90.2779 45.1344C91.3021 45.5524 92.2325 46.1703 93.0147 46.9521C93.797 47.7338 94.4153 48.6636 94.8335 49.6871C95.2517 50.7106 95.4614 51.8072 95.4504 52.9127C95.4504 69.6797 95.4504 86.4498 95.4504 103.223C95.4594 104.327 95.2483 105.422 94.8294 106.444C94.4105 107.466 93.7923 108.394 93.0107 109.175C92.229 109.955 91.2997 110.572 90.2769 110.99C89.2541 111.408 88.1583 111.618 87.0534 111.608C60.8919 111.608 34.7315 111.608 8.57205 111.608C4.38892 111.608 1.1794 109.058 0.172012 104.957C0.124583 104.81 0.0670988 104.667 0 104.527V51.596ZM9.80058 50.1472C10.0801 50.4542 10.2213 50.6107 10.3749 50.7611C22.0172 62.4391 33.6606 74.117 45.305 85.795C46.7823 87.2745 48.6834 87.2745 50.1607 85.795C61.8072 74.1314 73.4516 62.4544 85.0939 50.7642C85.2567 50.6015 85.401 50.4173 85.6252 50.1503L9.80058 50.1472ZM9.80058 105.945H85.6406L61.6843 82.2591C61.5983 82.342 61.3772 82.5476 61.156 82.7655C58.8065 85.1167 56.4662 87.477 54.1105 89.8251C50.4587 93.45 45.004 93.447 41.3553 89.8251C39.9455 88.4224 38.5481 87.0074 37.1445 85.6016L33.7661 82.2468L9.80058 105.945ZM5.64201 101.556L29.5583 77.922L5.64201 54.2878V101.556ZM89.7961 101.673V54.4628L65.9043 78.0571L89.7961 101.673Z" fill="url(#paint0_linear_374_951)"/>
<path id="Vector_2" d="M8.27344 49.4922H87.4685C87.2312 49.7622 87.0836 49.9528 86.9136 50.1275C74.7516 62.199 62.5896 74.281 50.4276 86.3736C48.8783 87.9143 46.899 87.9143 45.356 86.3736C33.1941 74.2958 21.0331 62.2138 8.8733 50.1275C8.71291 49.9687 8.56535 49.8099 8.27344 49.4922Z" fill="url(#paint1_linear_374_951)"/>
</g>
<path id="Vector 46" d="M55.9109 35.9776L55.9105 26.9932L61.8724 26.9932L48.3982 8.01614L36.0512 26.9932L41.7629 26.9932L41.7639 35.9772M28.8375 26.9932L43.4626 4.86557M53.4653 4.86557L68.7752 26.9932" stroke="url(#paint2_linear_374_951)" stroke-width="3.97467" stroke-linecap="round" stroke-linejoin="round"/>
</g>
</g>
</g>
<defs>
<linearGradient id="paint0_linear_374_951" x1="47.7254" y1="44.5176" x2="47.7254" y2="111.609" gradientUnits="userSpaceOnUse">
<stop stop-color="#60D8E4"/>
<stop offset="1" stop-color="#74F9AF"/>
</linearGradient>
<linearGradient id="paint1_linear_374_951" x1="47.871" y1="49.4922" x2="47.871" y2="87.5291" gradientUnits="userSpaceOnUse">
<stop stop-color="#60D8E4"/>
<stop offset="1" stop-color="#74F9AF"/>
</linearGradient>
<linearGradient id="paint2_linear_374_951" x1="33.8243" y1="55.1339" x2="61.839" y2="10.0692" gradientUnits="userSpaceOnUse">
<stop stop-color="#62D9E2"/>
<stop offset="1" stop-color="#73F7B3"/>
</linearGradient>
</defs>
</svg>
