<svg width="102" height="119" viewBox="0 0 102 119" fill="none" xmlns="http://www.w3.org/2000/svg">
<g id="&#208;&#161;&#208;&#187;&#208;&#190;&#208;&#185; 2">
<g id="&#208;&#187;&#208;&#190;&#208;&#179;&#208;&#190;">
<g id="Group">
<path id="Vector" d="M50.996 0.0445359C60.6528 0.0445359 70.3139 0.109965 79.9707 0.000914634C82.6594 -0.0296196 84.9265 0.703203 86.9299 2.37386C88.1776 3.41639 89.7548 3.81769 91.1212 4.66393C94.8512 6.97144 97.6235 10.1993 99.5127 13.9158C100.765 16.3803 101.96 19.1415 101.96 22.1295C101.942 41.5973 102.114 61.0694 101.859 80.5371C101.78 86.596 98.5769 91.6254 94.1131 95.7693C91.4507 98.2426 88.3226 99.9133 84.9352 101.139C83.916 101.505 82.7781 102.02 81.7808 101.876C78.3802 101.388 76.5877 103.185 74.949 105.767C72.2822 109.972 69.4879 114.099 66.4081 118.029C66.0391 118.496 65.692 118.666 65.1999 118.775C61.5402 119.595 58.3813 118.147 56.2857 114.914C53.8429 111.141 51.1673 107.512 48.7729 103.713C47.6262 101.894 46.0929 101.453 44.1598 101.462C36.9897 101.484 29.8065 101.723 22.6496 101.409C13.9022 101.026 7.37358 96.7726 3.04605 89.1478C0.752677 85.1042 -0.0381377 80.8643 0.00140324 76.2318C0.15078 59.0148 0.190323 41.7935 0.010192 24.581C-0.0952504 14.4392 5.08021 8.12738 13.3443 2.92784C17.7289 0.171035 22.0037 0.0488971 26.6256 0.040173C34.7491 0.0227249 42.8681 0.0358117 50.9916 0.0358117V0.0532602L50.996 0.0445359ZM5.40972 51.2635C5.40972 60.4892 5.41411 69.7149 5.40533 78.9406C5.40533 81.2045 5.78316 83.259 6.82879 85.4008C10.3567 92.6069 15.9935 96.2099 24.0071 96.223C31.4716 96.2361 38.936 96.2753 46.3961 96.1794C48.7553 96.1488 50.3897 96.8991 51.6726 98.9187C54.3921 103.193 57.3049 107.342 60.0816 111.577C61.5402 113.802 62.8539 113.933 64.3696 111.708C67.0144 107.822 69.5758 103.878 72.1328 99.9307C73.4816 97.85 74.8831 95.9918 77.7827 96.1924C86.4334 96.79 96.2483 89.8806 96.1693 78.343C96.0418 60.3278 96.1649 42.3083 96.1077 24.2931C96.099 21.9986 96.0946 19.5952 95.0709 17.4665C91.499 10.0205 85.48 6.21245 77.1896 6.18628C59.6291 6.12957 42.0641 6.18628 24.5036 6.15138C20.1892 6.14266 16.2132 7.28115 12.8478 9.84166C8.36211 13.2571 5.37896 17.6366 5.40093 23.5777C5.43608 32.8034 5.40972 42.0291 5.40972 51.2548V51.2635Z" fill="url(#paint0_linear_374_1003)"/>
<path id="Vector_2" d="M81.4468 51.237C81.4468 58.2861 81.482 65.3351 81.438 72.3842C81.4073 77.274 79.5664 81.2522 75.2477 83.9087C73.5255 84.9686 71.6671 85.5531 69.6505 85.5531C56.6942 85.5662 43.738 85.6011 30.7818 85.5444C24.5343 85.5182 18.9547 80.1573 18.8668 73.8847C18.7262 63.7125 18.7877 53.5358 18.8536 43.3636C18.88 39.6733 20.2156 36.4934 22.9307 33.8238C27.144 29.6886 31.2035 25.3964 35.3466 21.1957C38.2374 18.2644 41.6995 16.6767 45.9084 16.6985C53.8034 16.7421 61.7071 16.4804 69.589 16.777C76.5921 17.0387 81.2228 22.1816 81.4073 29.4312C81.5918 36.694 81.4468 43.9655 81.4512 51.2327L81.4468 51.237ZM35.3553 61.3395H35.3641C35.3641 63.8084 35.3422 66.2773 35.3685 68.7419C35.4125 72.5368 38.8086 76.2838 42.6309 76.3972C47.8898 76.5543 53.1575 76.5412 58.4165 76.3972C62.1728 76.2926 66.0786 71.9654 66.083 68.2533C66.083 63.6819 66.105 59.1061 66.083 54.5347C66.0654 50.7398 61.9224 46.4126 58.1089 46.3472C52.995 46.2643 47.8722 46.2731 42.7583 46.3516C39.2699 46.4083 35.4476 50.2687 35.3641 53.719C35.3026 56.2577 35.3509 58.8008 35.3509 61.3395H35.3553Z" fill="url(#paint1_linear_374_1003)"/>
<path id="Vector_3" d="M60.1082 61.8763C60.1082 64.2667 60.0994 66.6571 60.1082 69.0431C60.117 70.4433 59.5942 71.6036 58.118 71.6778C56.3474 71.765 56.3518 70.3212 56.3518 69.0518C56.343 64.2012 56.343 59.3507 56.343 54.5001C56.343 53.1958 56.4572 51.8741 58.1839 51.8829C59.8709 51.8872 60.0862 53.2133 60.1038 54.4957C60.1433 56.9559 60.117 59.4205 60.117 61.8806H60.1082V61.8763Z" fill="#60D7E5"/>
<path id="Vector_4" d="M44.7835 61.8377C44.7835 64.3764 44.7835 66.9107 44.7835 69.4494C44.7835 70.5269 44.6034 71.6435 43.2854 71.6915C42.02 71.7351 41.4841 70.854 41.2073 69.6108C40.9393 68.4113 41.3742 67.3164 41.3215 66.1648C41.1458 62.4048 41.528 58.6403 41.0623 54.8803C40.8821 53.4277 41.3962 51.9141 43.1448 51.8966C44.8494 51.8792 44.7923 53.419 44.8011 54.6665C44.8143 57.0569 44.8011 59.4517 44.8011 61.8421H44.7835V61.8377Z" fill="#60D7E5"/>
<path id="Vector_5" d="M52.226 61.8853C52.226 64.3542 52.226 66.8188 52.226 69.2877C52.226 70.3433 52.226 71.4338 50.7191 71.412C49.4582 71.3945 48.8431 70.6268 48.8343 69.4578C48.8036 64.2321 48.7992 59.0107 48.8343 53.785C48.8431 52.7425 49.4099 51.9312 50.5697 51.9312C51.7603 51.9312 52.2085 52.7861 52.2216 53.833C52.2524 56.5156 52.2304 59.2027 52.2304 61.8853H52.2216H52.226Z" fill="#60D7E5"/>
</g>
</g>
</g>
<defs>
<linearGradient id="paint0_linear_374_1003" x1="51" y1="0" x2="51" y2="119" gradientUnits="userSpaceOnUse">
<stop stop-color="#60D8E3"/>
<stop offset="1" stop-color="#74F9AF"/>
</linearGradient>
<linearGradient id="paint1_linear_374_1003" x1="50.1415" y1="16.6333" x2="50.1415" y2="85.5758" gradientUnits="userSpaceOnUse">
<stop stop-color="#60D7E5"/>
<stop offset="1" stop-color="#75FAAE"/>
</linearGradient>
</defs>
</svg>
