<svg width="108" height="99" viewBox="0 0 108 99" fill="none" xmlns="http://www.w3.org/2000/svg">
<g id="&#208;&#161;&#208;&#187;&#208;&#190;&#208;&#185; 2">
<g id="Group">
<path id="Vector" d="M50.0294 98.9713C40.3736 98.9713 30.7166 98.9404 21.0619 98.9998C19.3538 99.0105 17.75 98.5957 16.1118 98.3057C14.6979 98.0562 13.3124 97.6509 11.9968 97.0603C10.8284 96.5362 9.74065 95.8623 8.69084 95.1326C7.54377 94.3352 6.38602 93.552 5.43941 92.4966C4.50348 91.4532 3.72651 90.3016 2.93412 89.1512C2.19154 88.0733 1.7562 86.8539 1.16902 85.7071C0.928217 85.2364 0.852299 84.6838 0.752657 84.1728C0.521344 82.982 0.00296555 81.8553 0.0195726 80.6087C0.0421108 78.9674 0.00177933 77.325 0.00177933 75.6837C-0.00059311 60.0355 -0.00059311 44.3873 0.00177933 28.7391C0.00177933 27.6707 0.0183864 26.6023 0.0409246 25.535C0.0551592 24.8683 0.0848147 24.2266 0.40628 23.5848C0.696904 23.0036 0.677925 22.2953 0.840437 21.6464C1.10971 20.5697 1.62809 19.6166 2.04682 18.6195C2.3671 17.8553 2.90209 17.1779 3.37302 16.4827C4.00171 15.5569 4.67074 14.6608 5.43823 13.8419C6.29942 12.9221 7.26026 12.133 8.33142 11.4674C9.13093 10.9707 9.94942 10.4786 10.6588 9.86779C11.1677 9.42925 11.533 8.81483 11.9209 8.24913C12.9292 6.77903 14.0751 5.41351 15.5282 4.39977C17.0359 3.34799 18.5234 2.22729 20.2387 1.51779C21.3763 1.04717 22.5827 0.765509 23.7606 0.408976C25.6075 -0.149592 27.4699 0.0274857 29.3263 0.0239204C41.9643 0.00134 54.6023 0.012036 67.2391 0.0132244C68.2071 0.0132244 69.1762 -0.00341377 70.1406 0.0536315C71.2699 0.118996 72.3553 0.455325 73.4525 0.712029C73.6435 0.757189 73.8345 0.836815 74.0266 0.84038C74.9863 0.860584 75.8914 1.19335 76.7668 1.48927C77.8024 1.83867 78.8047 2.3497 79.73 2.97482C80.8059 3.70215 81.7608 4.57328 82.7572 5.40043C85.4369 7.62282 87.6753 10.2968 90.2233 12.6499C93.1651 15.3679 95.8899 18.3069 98.7949 21.0617C99.9337 22.142 101.151 23.1368 102.211 24.3014C103.218 25.4079 104.049 26.6272 104.852 27.8858C105.359 28.6832 105.714 29.5472 106.069 30.3898C106.511 31.4404 107.081 32.4922 107.061 33.6973C107.059 33.7757 107.063 33.8613 107.094 33.9302C107.816 35.569 107.963 37.3291 107.969 39.0678C108.009 49.6521 107.983 60.2352 108 70.8195C108.001 71.7975 107.737 72.7364 107.695 73.6979C107.648 74.7983 107.191 75.8014 106.992 76.8662C106.879 77.4724 106.6 78.1379 106.316 78.7547C106.082 79.2621 105.703 79.7244 105.633 80.3092C105.601 80.5754 105.308 80.6288 105.197 80.8428C103.724 83.6748 101.598 85.896 98.9005 87.5848C98.2777 87.9746 97.687 88.4155 97.0773 88.8255C96.3821 89.2938 96.1413 90.1007 95.6669 90.733C94.5933 92.1639 93.4071 93.4795 91.9457 94.5027C90.6337 95.4214 89.3241 96.3745 87.8437 97.0056C86.7714 97.4631 85.6991 97.9314 84.5188 98.1251C83.711 98.2582 82.8509 98.3675 82.1155 98.6468C81.1202 99.0247 80.1523 98.9546 79.1737 98.957C69.4585 98.9784 59.7434 98.9701 50.0282 98.9701L50.0294 98.9713ZM57.862 87.4232C60.9628 87.4232 64.0624 87.4267 67.1632 87.4232C74.411 87.4149 81.6576 87.4042 88.9054 87.3911C90.1794 87.3887 91.4036 87.0464 92.6064 86.6982C93.9634 86.306 95.2363 85.6797 96.4343 84.9084C97.8803 83.9767 99.1627 82.8453 100.352 81.6224C101.156 80.7964 101.744 79.7934 102.318 78.7808C103.068 77.4569 103.651 76.051 103.967 74.6011C104.295 73.0906 104.469 71.523 104.467 69.9531C104.459 60.4372 104.46 50.9213 104.466 41.4055C104.466 39.9413 104.409 38.4879 104.236 37.0296C104.108 35.9482 103.924 34.8809 103.561 33.8743C103.298 33.1434 103.019 32.4066 102.701 31.69C102.322 30.8343 101.942 29.981 101.447 29.1824C100.873 28.2554 100.16 27.4639 99.3572 26.7211C98.0998 25.5576 96.9243 24.3038 95.7048 23.0987C93.9943 21.4088 92.298 19.7057 90.5293 18.0728C88.8093 16.4839 87.1723 14.801 85.5413 13.1194C83.7714 11.2951 81.832 9.65149 80.0526 7.83555C78.6055 6.35832 76.8475 5.33982 74.8345 4.74204C73.6921 4.40214 72.5178 4.27617 71.3683 3.9957C69.8559 3.62728 68.3114 3.44664 66.7373 3.4502C54.5726 3.47159 42.408 3.46565 30.2433 3.45852C28.4841 3.45852 26.7451 3.52388 25.0026 3.86378C22.9955 4.25596 21.1746 5.0237 19.457 6.09211C18.2292 6.85628 17.2032 7.85932 16.1439 8.83266C15.0869 9.80361 14.3657 10.9956 13.6421 12.2031C13.0763 13.1467 12.6872 14.1711 12.3574 15.2039C12.1273 15.9241 11.8201 16.6455 11.7406 17.3978C11.6244 18.4971 11.5817 19.6071 11.5805 20.7135C11.5686 30.4278 11.5734 40.141 11.5734 49.8553C11.5734 56.9182 11.5734 63.9811 11.5745 71.0441C11.5745 72.0721 11.5698 73.125 11.8391 74.1031C12.0526 74.8792 12.3159 75.6659 12.5674 76.4372C12.8995 77.4569 13.393 78.3684 13.9019 79.2812C14.5543 80.4482 15.3787 81.4691 16.3752 82.3901C17.6682 83.5845 18.9825 84.7088 20.5471 85.5419C22.8662 86.7767 25.3133 87.4303 27.942 87.4291C37.9146 87.4232 47.8871 87.4267 57.8597 87.4267L57.862 87.4232Z" fill="url(#paint0_linear_95_839)"/>
<path id="Vector_2" d="M59.7615 68.2431C69.3355 68.2431 78.9095 68.2431 88.4835 68.2431C89.8535 68.2431 90.6744 68.8564 90.8939 70.0282C91.1228 71.2487 90.2201 72.4395 88.9829 72.5405C88.7468 72.5596 88.5096 72.5512 88.2723 72.5512C69.262 72.5512 50.2528 72.5512 31.2424 72.55C30.8498 72.55 30.4571 72.5786 30.0704 72.4455C29.1167 72.1175 28.475 71.156 28.5912 70.1993C28.7276 69.0834 29.5354 68.3061 30.6232 68.2503C30.8593 68.2384 31.0965 68.2431 31.3338 68.2431C40.8093 68.2431 50.2848 68.2431 59.7603 68.2431H59.7615Z" fill="url(#paint1_linear_95_839)"/>
<path id="Vector_3" d="M59.2952 56.2049C49.7212 56.2049 40.1472 56.2049 30.5732 56.2049C29.2186 56.2049 28.387 55.6119 28.1604 54.4936C27.8995 53.2089 28.7974 52.0038 30.0999 51.898C30.2565 51.8849 30.4155 51.8921 30.5732 51.8921C49.7212 51.8921 68.8691 51.8921 88.0159 51.8921C89.4014 51.8921 90.2674 52.5837 90.4358 53.8197C90.59 54.9535 89.7454 56.0504 88.6067 56.1776C88.3326 56.2085 88.0551 56.2037 87.7787 56.2037C78.2842 56.2049 68.7885 56.2037 59.294 56.2037L59.2952 56.2049Z" fill="url(#paint2_linear_95_839)"/>
<path id="Vector_4" d="M37.904 29.5106C37.904 26.347 37.9135 23.1845 37.8933 20.0209C37.8909 19.5729 38.0119 19.4623 38.452 19.4659C41.4911 19.4873 44.5302 19.4659 47.5693 19.4885C49.1185 19.5004 50.6333 19.7737 52.0686 20.3715C55.4695 21.7893 57.5632 24.2755 58.0614 27.974C58.4695 31.0033 57.9072 33.8104 55.829 36.1623C54.0306 38.1981 51.695 39.2487 49.0414 39.5209C45.8362 39.8501 42.6145 39.6017 39.3998 39.6516C38.917 39.6587 38.2729 39.8786 37.9918 39.5423C37.7545 39.2582 37.9075 38.639 37.9064 38.1672C37.9028 35.2805 37.904 32.395 37.904 29.5082V29.5106ZM42.599 29.5879C42.599 31.487 42.6133 33.3861 42.5884 35.2853C42.5824 35.7369 42.7189 35.8569 43.1578 35.8462C44.4211 35.8165 45.6856 35.8533 46.9489 35.8272C48.37 35.7975 49.7377 35.5301 50.9358 34.7041C52.867 33.3719 53.5099 31.4537 53.4375 29.1957C53.3426 26.2709 51.5289 24.0747 48.6761 23.5066C46.7793 23.1299 44.8564 23.3664 42.9454 23.3022C42.5208 23.2879 42.6002 23.5862 42.6002 23.8299C42.5967 25.7492 42.599 27.6685 42.599 29.5867V29.5879Z" fill="url(#paint3_linear_95_839)"/>
<path id="Vector_5" d="M33.1187 29.633C33.1187 32.7384 33.0973 35.8438 33.1365 38.948C33.1448 39.579 32.9502 39.6967 32.3785 39.6753C31.216 39.6313 30.0487 39.6491 28.8851 39.6694C28.5268 39.6753 28.4165 39.5802 28.4165 39.2082C28.4284 32.7811 28.4284 26.3529 28.4165 19.9258C28.4165 19.5455 28.5422 19.4646 28.8922 19.4706C30.1164 19.4884 31.3405 19.5062 32.5635 19.4635C33.0783 19.4456 33.1294 19.6548 33.1282 20.0803C33.1139 23.2641 33.1211 26.4491 33.1211 29.633H33.1187Z" fill="url(#paint4_linear_95_839)"/>
</g>
</g>
<defs>
<linearGradient id="paint0_linear_95_839" x1="54" y1="0" x2="54" y2="99" gradientUnits="userSpaceOnUse">
<stop stop-color="#60D8E4"/>
<stop offset="1" stop-color="#74F9AF"/>
</linearGradient>
<linearGradient id="paint1_linear_95_839" x1="59.7536" y1="68.2422" x2="59.7536" y2="72.553" gradientUnits="userSpaceOnUse">
<stop stop-color="#60D8E4"/>
<stop offset="1" stop-color="#74F9AF"/>
</linearGradient>
<linearGradient id="paint2_linear_95_839" x1="59.2846" y1="51.8901" x2="59.2846" y2="56.2049" gradientUnits="userSpaceOnUse">
<stop stop-color="#60D8E4"/>
<stop offset="1" stop-color="#74F9AF"/>
</linearGradient>
<linearGradient id="paint3_linear_95_839" x1="48.0222" y1="19.4658" x2="48.0222" y2="39.7287" gradientUnits="userSpaceOnUse">
<stop stop-color="#60D8E4"/>
<stop offset="1" stop-color="#74F9AF"/>
</linearGradient>
<linearGradient id="paint4_linear_95_839" x1="30.7766" y1="19.4624" x2="30.7766" y2="39.6776" gradientUnits="userSpaceOnUse">
<stop stop-color="#60D8E4"/>
<stop offset="1" stop-color="#74F9AF"/>
</linearGradient>
</defs>
</svg>
