<svg width="90" height="114" viewBox="0 0 90 114" fill="none" xmlns="http://www.w3.org/2000/svg">
<g id="Group">
<path id="Vector" d="M66.5832 0C67.4401 0.476116 67.7258 1.28254 67.8805 2.18418C68.9248 8.34095 69.99 14.4948 71.0135 20.6545C71.1058 21.2169 71.442 21.4877 71.8139 21.7793C80.6209 28.6741 86.3186 37.5983 88.2794 48.5817C91.1268 64.5345 86.5507 78.2645 74.9142 89.5901C74.1436 90.34 73.3581 91.0958 72.4685 91.688C71.4568 92.3605 71.0284 93.2265 70.835 94.3929C69.8918 100.154 68.8713 105.903 67.8983 111.658C67.5711 113.601 67.1277 114.003 65.1283 114.003C51.3674 114.003 37.6064 114.003 23.8425 114.003C21.9919 114.003 21.5248 113.646 21.2183 111.884C20.1621 105.805 19.0999 99.7254 18.0942 93.6401C17.9871 92.9914 17.7491 92.5688 17.2551 92.182C8.42138 85.2575 2.72063 76.2916 0.78964 65.2606C-1.98635 49.3911 2.57782 35.7236 14.1519 24.4575C14.9463 23.6838 15.7705 22.9131 16.6779 22.2822C17.5884 21.6484 18.0585 20.9015 18.24 19.7856C19.1772 13.9859 20.1978 8.2011 21.1737 2.40736C21.3373 1.43727 21.5515 0.526703 22.4977 0.00297572H66.5832V0ZM44.5539 16.0332C22.0276 16.0511 3.56563 34.4648 3.58051 56.9018C3.59241 79.5143 21.9621 98.0323 44.4676 97.9489C67.3122 97.8626 85.4171 79.6661 85.4855 56.9226C85.554 34.4381 67.0266 16.0153 44.5568 16.0332H44.5539ZM22.2091 95.6368C22.2448 96.0683 22.2478 96.4373 22.3102 96.7973C23.0422 101.059 23.792 105.317 24.515 109.578C24.6251 110.233 24.8869 110.456 25.5891 110.453C38.2015 110.426 50.8169 110.42 63.4294 110.462C64.3041 110.462 64.4708 110.111 64.5838 109.417C64.9885 106.974 65.4288 104.54 65.8454 102.1C66.2084 99.9754 66.5594 97.8478 66.9343 95.607C51.9327 103.57 37.0947 103.555 22.2061 95.6368H22.2091ZM66.8808 18.3632C66.8451 17.9406 66.8451 17.6074 66.7885 17.283C66.0507 12.9861 65.286 8.69209 64.5719 4.38919C64.438 3.58575 64.0096 3.55004 63.352 3.55004C50.811 3.56789 38.2729 3.57087 25.7319 3.54111C24.8809 3.54111 24.6102 3.79107 24.4822 4.60642C24.0419 7.45419 23.5093 10.2871 23.0243 13.1289C22.7298 14.8429 22.456 16.5569 22.1555 18.384C37.1423 10.4537 51.9416 10.4329 66.8808 18.3602V18.3632Z" fill="url(#paint0_linear_374_1061)"/>
<path id="Vector_2" d="M44.5422 60.562C35.2651 60.562 25.991 60.562 16.7139 60.562C14.768 60.562 14.2622 60.071 14.2622 58.1695C14.2622 51.4533 14.2622 44.7371 14.2622 38.0209C14.2622 36.1521 14.774 35.6284 16.5978 35.6284C35.2234 35.6284 53.8491 35.6284 72.4747 35.6284C74.2688 35.6284 74.8162 36.1611 74.8162 37.9078C74.8162 44.6984 74.8162 51.489 74.8162 58.2796C74.8162 60.0294 74.2688 60.565 72.4776 60.565C63.1648 60.565 53.852 60.565 44.5392 60.565L44.5422 60.562ZM44.5422 57.0001C53.1141 57.0001 61.6831 56.9882 70.2551 57.0209C71.0852 57.0239 71.2875 56.8305 71.2815 55.9972C71.2399 50.7272 71.2399 45.4602 71.2815 40.1902C71.2875 39.357 71.0852 39.1666 70.2551 39.1666C53.1141 39.1933 35.9732 39.1933 18.8293 39.1666C17.9992 39.1666 17.7969 39.357 17.8029 40.1902C17.8445 45.4602 17.8445 50.7272 17.8029 55.9972C17.7969 56.8305 17.9992 57.0239 18.8293 57.0209C27.4013 56.9852 35.9703 57.0001 44.5422 57.0001Z" fill="#60D7E5"/>
<path id="Vector_3" d="M53.4921 82.1063C53.3225 85.7664 51.7247 88.5368 48.4429 90.1407C45.1641 91.7416 41.9359 91.3935 39.0676 89.1528C36.2381 86.9418 35.1313 83.9542 35.8186 80.3952C36.6576 76.0745 39.0587 72.5244 41.5491 69.0309C42.043 68.3376 42.5547 67.6532 43.129 67.0283C43.974 66.1058 45.1582 66.0492 45.9347 67.0164C49.2106 71.0931 52.2157 75.3335 53.3225 80.5916C53.4296 81.0945 53.4385 81.6182 53.4891 82.1063H53.4921ZM49.8889 82.3324C49.877 82.0943 49.883 81.9426 49.8622 81.7968C49.2373 77.8361 47.0029 74.661 44.816 71.4621C44.5899 71.1288 44.4292 71.23 44.2447 71.5037C42.1828 74.5181 40.0674 77.5088 39.3444 81.1987C38.9219 83.359 39.6211 85.1653 41.3111 86.5133C42.9743 87.8434 44.8517 88.0934 46.8065 87.1352C48.8268 86.1413 49.7342 84.4214 49.8949 82.3324H49.8889Z" fill="url(#paint1_linear_374_1061)"/>
<path id="Vector_4" d="M28.4308 49.876C27.8387 49.876 27.2436 49.8998 26.6515 49.87C25.6191 49.8165 24.9377 49.0785 24.9496 48.0697C24.9615 47.0639 25.6488 46.3468 26.6991 46.32C27.922 46.2903 29.1478 46.2843 30.3707 46.32C31.4031 46.3498 32.0845 47.1086 32.0726 48.1144C32.0607 49.1172 31.3674 49.8254 30.3201 49.8671C29.6893 49.8939 29.0586 49.873 28.4278 49.87L28.4308 49.876Z" fill="url(#paint2_linear_374_1061)"/>
<path id="Vector_5" d="M39.1688 49.876C38.6124 49.876 38.0561 49.8879 37.4997 49.876C36.3631 49.8462 35.649 49.1677 35.6371 48.1233C35.6252 47.0758 36.3363 46.3438 37.4461 46.32C38.5946 46.2962 39.746 46.2991 40.8975 46.32C42.0371 46.3378 42.7482 47.0252 42.763 48.0697C42.7749 49.1142 42.0609 49.8373 40.9511 49.876C40.359 49.8968 39.7639 49.8789 39.1718 49.8789L39.1688 49.876Z" fill="url(#paint3_linear_374_1061)"/>
<path id="Vector_6" d="M49.9662 46.3111C50.5226 46.3111 51.079 46.2962 51.6354 46.3141C52.7452 46.3528 53.4593 47.0729 53.4474 48.1174C53.4355 49.1202 52.7422 49.8403 51.6919 49.8671C50.4691 49.8969 49.2432 49.9028 48.0204 49.8671C46.9879 49.8344 46.3095 49.0756 46.3214 48.0668C46.3333 47.061 47.0206 46.3587 48.0739 46.3171C48.7047 46.2933 49.3355 46.3111 49.9662 46.3111Z" fill="url(#paint4_linear_374_1061)"/>
<path id="Vector_7" d="M60.6239 46.3142C61.216 46.3142 61.811 46.2904 62.4031 46.3201C63.4445 46.3678 64.1318 47.0879 64.1318 48.0937C64.1318 49.0965 63.4445 49.8404 62.4061 49.8702C61.1832 49.9059 59.9574 49.9029 58.7345 49.8702C57.6932 49.8404 57.0088 49.1054 57.0059 48.0996C57.0059 47.0909 57.6872 46.3707 58.7286 46.3231C59.3593 46.2934 59.9901 46.3172 60.6209 46.3172L60.6239 46.3142Z" fill="url(#paint5_linear_374_1061)"/>
<path id="Ellipse 28" d="M51.0044 81.5C51.0044 85.0899 48.3181 88 45.0044 88C41.6907 88 39.0044 85.0899 39.0044 81.5C39.0044 77.9101 41.6907 70.5 45.0044 70.5C48.3181 70.5 51.0044 77.9101 51.0044 81.5Z" fill="url(#paint6_linear_374_1061)"/>
</g>
<defs>
<linearGradient id="paint0_linear_374_1061" x1="44.5505" y1="0" x2="44.5505" y2="114.003" gradientUnits="userSpaceOnUse">
<stop stop-color="#60D7E5"/>
<stop offset="1" stop-color="#73F7B3"/>
</linearGradient>
<linearGradient id="paint1_linear_374_1061" x1="44.5563" y1="66.3135" x2="44.5563" y2="91.1309" gradientUnits="userSpaceOnUse">
<stop stop-color="#60D7E5"/>
<stop offset="1" stop-color="#73F7B3"/>
</linearGradient>
<linearGradient id="paint2_linear_374_1061" x1="28.5111" y1="46.2954" x2="28.5111" y2="49.885" gradientUnits="userSpaceOnUse">
<stop stop-color="#60D7E5"/>
<stop offset="1" stop-color="#73F7B3"/>
</linearGradient>
<linearGradient id="paint3_linear_374_1061" x1="39.2001" y1="46.3032" x2="39.2001" y2="49.8861" gradientUnits="userSpaceOnUse">
<stop stop-color="#60D7E5"/>
<stop offset="1" stop-color="#73F7B3"/>
</linearGradient>
<linearGradient id="paint4_linear_374_1061" x1="49.8844" y1="46.3047" x2="49.8844" y2="49.8917" gradientUnits="userSpaceOnUse">
<stop stop-color="#60D7E5"/>
<stop offset="1" stop-color="#73F7B3"/>
</linearGradient>
<linearGradient id="paint5_linear_374_1061" x1="60.5688" y1="46.3052" x2="60.5688" y2="49.8959" gradientUnits="userSpaceOnUse">
<stop stop-color="#60D7E5"/>
<stop offset="1" stop-color="#73F7B3"/>
</linearGradient>
<linearGradient id="paint6_linear_374_1061" x1="45.0044" y1="70.5" x2="45.0044" y2="88" gradientUnits="userSpaceOnUse">
<stop stop-color="#63DDDC"/>
<stop offset="1" stop-color="#71F4B8"/>
</linearGradient>
</defs>
</svg>
