<svg width="101" height="100" viewBox="0 0 101 100" fill="none" xmlns="http://www.w3.org/2000/svg">
<g id="Group">
<path id="Vector" d="M0 5.08971C0.420176 5.21745 0.292296 4.83423 0.341882 4.68041C1.15614 2.15685 2.84728 0.587447 5.48055 0.235504C7.94941 -0.0955826 9.93285 0.874216 11.3317 2.93895C11.6057 3.34303 11.9111 3.35606 12.3156 3.35606C16.8357 3.34824 21.3559 3.36389 25.8734 3.33521C26.4658 3.3326 26.7973 3.49424 27.0948 4.01824C29.2296 7.80358 31.3853 11.5785 33.5697 15.3352C33.9168 15.9322 33.8594 16.1772 33.2226 16.4614C31.9203 17.0479 30.6859 17.7753 29.5089 18.5861C29.0626 18.8937 28.859 18.9484 28.5406 18.3723C26.9591 15.5046 25.2967 12.6812 23.6943 9.82139C23.4202 9.33127 23.1175 9.15139 22.5564 9.154C19.1089 9.18007 15.6639 9.17746 12.2164 9.154C11.7623 9.15139 11.53 9.3052 11.2795 9.65975C9.89631 11.6358 7.96507 12.5796 5.57711 12.2928C3.03257 11.9904 1.31533 10.5409 0.430615 8.11381C0.347102 7.88179 0.514128 7.41514 0 7.42817V5.0871L0 5.08971Z" fill="url(#paint0_linear_374_1071)"/>
<path id="Vector_2" d="M92.3682 99.8921C92.3134 99.4907 91.9376 99.5584 91.6975 99.4672C90.4448 98.9953 89.3905 98.2575 88.6702 97.1261C88.3857 96.6803 88.0725 96.5604 87.5636 96.563C83.0748 96.5839 78.5886 96.563 74.0997 96.5917C73.5073 96.5943 73.1706 96.4327 72.8757 95.9087C70.7409 92.1233 68.5905 88.3458 66.4035 84.5917C66.0433 83.9713 66.1608 83.7445 66.7636 83.4629C68.0268 82.8737 69.2429 82.1881 70.3808 81.3851C70.9053 81.0149 71.1715 81.0123 71.5239 81.6458C73.0793 84.4562 74.713 87.2222 76.2815 90.0221C76.5712 90.5409 76.8818 90.7442 77.4872 90.739C80.8695 90.7077 84.2518 90.7129 87.6341 90.7364C88.1143 90.739 88.3753 90.5826 88.6519 90.1941C90.3169 87.8557 92.9659 86.9537 95.5913 87.7853C98.1463 88.5935 99.9183 90.9945 99.921 93.6458C99.921 96.3258 98.1828 98.6434 95.5104 99.561C95.3069 99.6314 94.9415 99.488 94.9076 99.8921H92.3682Z" fill="url(#paint1_linear_374_1071)"/>
<path id="Vector_3" d="M0 92.4781C0.420176 92.6058 0.292296 92.2226 0.341882 92.0688C1.15614 89.5452 2.84728 87.9758 5.48055 87.6239C7.94941 87.2928 9.92763 88.2652 11.3343 90.3247C11.5718 90.6741 11.8223 90.7497 12.2164 90.747C15.6639 90.7314 19.1089 90.7236 22.5564 90.7497C23.1175 90.7549 23.4202 90.575 23.6943 90.0849C25.281 87.2563 26.9226 84.4564 28.5015 81.6252C28.8147 81.0647 29.0443 80.9813 29.5715 81.3515C30.7407 82.1727 31.9934 82.8661 33.2826 83.4788C33.7811 83.716 33.9638 83.8724 33.6219 84.4564C31.3827 88.2965 29.1774 92.1548 27.0061 96.0288C26.7164 96.545 26.3615 96.558 25.8995 96.558C21.3794 96.5528 16.8618 96.5554 12.3417 96.558C11.9998 96.558 11.6527 96.4485 11.4048 96.8656C10.5488 98.3125 9.22821 99.1441 7.63624 99.5899C7.49009 99.6317 7.29696 99.6499 7.42223 99.8897H5.27438C5.35267 99.6551 5.18043 99.6317 5.02384 99.5925C2.49235 98.9747 0.913425 97.4053 0.297516 94.8739C0.260979 94.7201 0.234881 94.5454 0 94.6236L0 92.4781Z" fill="url(#paint2_linear_374_1071)"/>
<path id="Vector_4" d="M0 29.4727H18.5399C17.4569 31.2767 16.4443 33.039 15.6352 34.903C15.4186 35.4035 14.9828 35.2445 14.6226 35.2445C10.1025 35.2523 5.58233 35.2497 1.06218 35.2549C0.707252 35.2549 0.354931 35.3019 0 35.3253V29.4727Z" fill="url(#paint3_linear_374_1071)"/>
<path id="Vector_5" d="M0 64.5837C1.2005 64.6071 2.39839 64.6514 3.5989 64.654C7.27347 64.6645 10.9481 64.6749 14.6226 64.641C15.2751 64.6358 15.5961 64.8287 15.8545 65.4388C16.5669 67.1411 17.5064 68.734 18.566 70.4337H0C0 68.4837 0 66.5311 0 64.5811V64.5837Z" fill="url(#paint4_linear_374_1071)"/>
<path id="Vector_6" d="M41.2059 99.8927C41.2059 95.6746 41.2216 91.4539 41.1955 87.2358C41.1902 86.5346 41.3155 86.3807 42.0593 86.5528C43.4138 86.8656 44.8022 87.0872 46.188 87.1941C46.9657 87.2541 47.0518 87.5539 47.0492 88.2109C47.0309 92.1057 47.0544 95.9979 47.0649 99.8927H41.2059Z" fill="url(#paint5_linear_374_1071)"/>
<path id="Vector_7" d="M52.9208 99.8926C52.9235 95.9612 52.9417 92.0273 52.9156 88.096C52.9104 87.4599 53.1088 87.22 53.7221 87.2044C55.1861 87.1679 56.6189 86.8681 58.0386 86.5526C58.6676 86.4118 58.8137 86.4614 58.8085 87.1183C58.7772 91.3755 58.785 95.6328 58.7798 99.89H52.9208V99.8926Z" fill="url(#paint6_linear_374_1071)"/>
<path id="Vector_8" d="M0 47.028C3.89641 47.0332 7.79282 47.0567 11.6892 47.028C12.3939 47.0228 12.6105 47.1323 12.5505 47.9144C12.4461 49.3013 12.4643 50.7038 12.5531 52.0934C12.5974 52.7842 12.3939 52.8781 11.7858 52.8755C7.85807 52.8572 3.92773 52.8755 0 52.8807V47.028Z" fill="url(#paint7_linear_374_1071)"/>
<path id="Vector_9" d="M44.1543 41.6151C44.1543 43.3802 44.1287 45.1473 44.1701 46.9104C44.1839 47.481 44.0066 47.6109 43.4688 47.5873C42.4898 47.544 41.5049 47.5538 40.5239 47.5833C40.0826 47.5971 39.9211 47.4869 39.9368 47.0166C39.9723 45.9383 39.929 44.858 39.9565 43.7797C39.9684 43.3015 39.8049 43.1323 39.3242 43.1421C38.1955 43.1677 37.0648 43.1697 35.9361 43.1421C35.414 43.1303 35.2564 43.335 35.2683 43.8328C35.2939 44.8875 35.2564 45.9422 35.284 46.995C35.2958 47.42 35.219 47.603 34.7325 47.5833C33.653 47.542 32.5735 47.5676 31.492 47.5735C31.2261 47.5735 31.0252 47.5774 31.0311 47.2036C31.0784 43.4786 30.8853 39.7458 31.1158 36.0267C31.3364 32.4612 34.2755 29.9916 37.965 30.0743C41.1995 30.1471 44.0046 32.9551 44.1268 36.316C44.1918 38.0791 44.1386 39.8461 44.1386 41.6112C44.1425 41.6112 44.1484 41.6112 44.1524 41.6112L44.1543 41.6151ZM37.5907 38.9154C38.2014 38.9154 38.814 38.9056 39.4247 38.9193C39.7931 38.9272 39.9605 38.7934 39.9506 38.4077C39.9329 37.7977 39.9723 37.1838 39.9388 36.5757C39.864 35.2514 38.8061 34.2498 37.5553 34.2853C36.2512 34.3207 35.3155 35.2947 35.2801 36.6662C35.2663 37.2271 35.2919 37.7898 35.2722 38.3526C35.2584 38.7599 35.4219 38.9292 35.8297 38.9193C36.4167 38.9036 37.0037 38.9154 37.5907 38.9154Z" fill="url(#paint8_linear_374_1071)"/>
<path id="Vector_10" d="M47.9144 38.789C47.9144 36.1149 47.9282 33.4387 47.9026 30.7645C47.8967 30.2372 47.9952 30.0503 48.5763 30.0562C50.6624 30.0798 52.7485 29.9893 54.8326 30.0286C57.9863 30.0857 60.8269 32.7756 61.0495 35.8374C61.3056 39.3754 59.1308 42.4136 55.9101 43.065C54.8838 43.2716 53.8555 43.1988 52.8273 43.1968C52.3565 43.1968 52.1811 43.3168 52.1969 43.8107C52.2304 44.8891 52.1811 45.9713 52.2186 47.0497C52.2363 47.5495 52.0649 47.6774 51.5922 47.6538C50.5639 47.6026 49.5336 47.5652 48.5054 47.5888C47.9991 47.6006 47.9006 47.4275 47.9026 46.9611C47.9223 44.2377 47.9124 41.5144 47.9124 38.789H47.9144ZM52.2087 36.5694C52.2087 36.5694 52.2245 36.5694 52.2324 36.5694C52.2324 37.2798 52.2304 37.9901 52.2383 38.7005C52.2383 38.7477 52.3328 38.8343 52.384 38.8343C53.1188 38.85 53.8555 38.854 54.5923 38.8599C54.6159 38.8599 54.6415 38.8599 54.6651 38.8559C56.2272 38.6887 57.1767 37.0397 56.5168 35.6426C55.9653 34.4757 54.4327 33.8795 52.5515 34.4088C51.7576 34.6312 52.3939 35.6485 52.2146 36.2762C52.189 36.3667 52.2107 36.471 52.2107 36.5694H52.2087Z" fill="url(#paint9_linear_374_1071)"/>
<path id="Vector_11" d="M80.8091 3.33258C83.0561 3.33258 85.3005 3.31693 87.545 3.343C88.046 3.34822 88.3514 3.2283 88.6593 2.79293C90.3948 0.342365 93.2708 -0.530975 95.9772 0.511819C98.5061 1.48683 100.223 4.2763 99.8866 6.85983C99.4952 9.86047 97.3421 12.079 94.3278 12.3866C92.0207 12.6213 90.1104 11.7271 88.7507 9.84222C88.3775 9.32603 88.0147 9.1644 87.4014 9.16961C84.0818 9.2009 80.7621 9.19829 77.4425 9.16961C76.8814 9.1644 76.5812 9.34168 76.3046 9.8344C74.7335 12.6395 73.0919 15.4029 71.547 18.2185C71.1659 18.9119 70.8997 18.8885 70.3334 18.4896C69.1694 17.6658 67.9167 16.9749 66.6223 16.3753C66.116 16.1407 66.0507 15.9295 66.3378 15.4368C68.5666 11.5889 70.7771 7.73056 72.9589 3.85658C73.2172 3.39775 73.5173 3.32215 73.9714 3.32476C76.2498 3.33779 78.5281 3.32997 80.8065 3.32997L80.8091 3.33258Z" fill="url(#paint10_linear_374_1071)"/>
<path id="Vector_12" d="M64.0688 38.7502C64.0688 36.0524 64.0826 33.3527 64.0569 30.6549C64.051 30.1394 64.1889 29.9819 64.709 30.0016C65.7628 30.0429 66.8207 30.0311 67.8765 30.0055C68.2961 29.9957 68.4163 30.1275 68.4163 30.5447C68.4044 36.0643 68.4044 41.5838 68.4163 47.1033C68.4163 47.5225 68.2941 47.6523 67.8765 47.6425C66.8207 47.6169 65.7628 47.6051 64.709 47.6464C64.187 47.6661 64.053 47.5067 64.0569 46.9932C64.0826 44.2462 64.0688 41.4992 64.0688 38.7502Z" fill="url(#paint11_linear_374_1071)"/>
<path id="Vector_13" d="M81.4277 29.449C81.7905 29.4281 82.041 29.4021 82.2916 29.4021C87.8896 29.4021 93.4849 29.4125 99.0829 29.3838C99.7928 29.3812 100.043 29.5246 100.007 30.2832C99.9389 31.7093 99.965 33.1431 99.999 34.5717C100.012 35.1166 99.8554 35.2939 99.2943 35.2913C94.5758 35.2704 89.8573 35.2782 85.1389 35.2808C84.8466 35.2808 84.5308 35.3199 84.3872 34.981C83.5782 33.0779 82.5473 31.2921 81.4303 29.449H81.4277Z" fill="url(#paint12_linear_374_1071)"/>
<path id="Vector_14" d="M81.3726 70.5065C82.5417 68.6608 83.5048 66.9402 84.2877 65.1283C84.4625 64.7242 84.7079 64.6226 85.1072 64.6226C89.8596 64.6304 94.6094 64.633 99.3618 64.6226C99.8081 64.6226 100.001 64.7268 99.9934 65.2143C99.9673 66.8072 99.9751 68.4001 99.9882 69.9929C99.9908 70.3579 99.8838 70.5117 99.4949 70.5117C93.5107 70.5039 87.5264 70.5065 81.3726 70.5065Z" fill="url(#paint13_linear_374_1071)"/>
<path id="Vector_15" d="M41.208 6.77394C41.208 4.76135 41.2237 2.75136 41.1976 0.738769C41.1898 0.204337 41.3229 0.00620668 41.8918 0.0218486C43.3846 0.0609534 44.88 0.0505254 46.3728 0.0244556C46.8634 0.0166346 47.0487 0.133949 47.0461 0.665774C47.0252 4.43026 47.0226 8.19475 47.0461 11.9566C47.0487 12.5276 46.8295 12.6501 46.3154 12.6892C44.8278 12.8039 43.3428 12.9994 41.8996 13.3879C41.2811 13.5547 41.1924 13.354 41.1976 12.8065C41.2211 10.7939 41.2054 8.78392 41.2054 6.77133L41.208 6.77394Z" fill="url(#paint14_linear_374_1071)"/>
<path id="Vector_16" d="M58.7986 6.84403C58.7986 8.79145 58.7881 10.7389 58.8038 12.6863C58.809 13.2416 58.8482 13.5492 58.0417 13.3563C56.6011 13.0122 55.1318 12.715 53.6338 12.6889C53.1145 12.6811 52.9161 12.4673 52.9187 11.9146C52.9422 8.18142 52.9422 4.44821 52.9187 0.715013C52.9161 0.170153 53.0544 -0.0123359 53.6182 0.000699033C55.111 0.0371968 56.609 0.0371968 58.1018 0.000699033C58.6524 -0.0123359 58.8142 0.154511 58.8064 0.704585C58.7751 2.74846 58.7934 4.79494 58.7934 6.83882L58.7986 6.84403Z" fill="url(#paint15_linear_374_1071)"/>
<path id="Vector_17" d="M93.6343 47.0283C95.5186 47.0283 97.4028 47.0466 99.2871 47.0179C99.8247 47.0101 100.015 47.1456 99.9996 47.7114C99.9604 49.2364 99.9709 50.7615 99.997 52.2866C100.005 52.748 99.8717 52.894 99.3993 52.894C95.5995 52.8758 91.7996 52.8758 87.9972 52.894C87.4778 52.8966 87.4439 52.6777 87.4517 52.2527C87.4778 50.7276 87.4882 49.2025 87.4491 47.6775C87.436 47.1613 87.5692 47.0127 88.0833 47.0205C89.9336 47.0466 91.7866 47.0309 93.6369 47.0309L93.6343 47.0283Z" fill="url(#paint16_linear_374_1071)"/>
<path id="Vector 43" d="M50.5887 55V75M56.617 69.7059V60M63 62.5V67.0588M44.2057 69.2647V59.5588M38 62.5V67.0588" stroke="url(#paint17_linear_374_1071)" stroke-width="3.45675" stroke-linecap="round"/>
</g>
<defs>
<linearGradient id="paint0_linear_374_1071" x1="16.8904" y1="0.171875" x2="16.8904" y2="18.8133" gradientUnits="userSpaceOnUse">
<stop stop-color="#60D9E2"/>
<stop offset="1" stop-color="#73F7B3"/>
</linearGradient>
<linearGradient id="paint1_linear_374_1071" x1="83.0606" y1="81.1328" x2="83.0606" y2="99.8921" gradientUnits="userSpaceOnUse">
<stop stop-color="#60D9E2"/>
<stop offset="1" stop-color="#73F7B3"/>
</linearGradient>
<linearGradient id="paint2_linear_374_1071" x1="16.8985" y1="81.1265" x2="16.8985" y2="99.8897" gradientUnits="userSpaceOnUse">
<stop stop-color="#60D9E2"/>
<stop offset="1" stop-color="#73F7B3"/>
</linearGradient>
<linearGradient id="paint3_linear_374_1071" x1="9.26996" y1="29.4727" x2="9.26996" y2="35.3253" gradientUnits="userSpaceOnUse">
<stop stop-color="#60D9E2"/>
<stop offset="1" stop-color="#73F7B3"/>
</linearGradient>
<linearGradient id="paint4_linear_374_1071" x1="9.28301" y1="64.5811" x2="9.28301" y2="70.4337" gradientUnits="userSpaceOnUse">
<stop stop-color="#60D9E2"/>
<stop offset="1" stop-color="#73F7B3"/>
</linearGradient>
<linearGradient id="paint5_linear_374_1071" x1="44.1301" y1="86.4883" x2="44.1301" y2="99.8928" gradientUnits="userSpaceOnUse">
<stop stop-color="#60D9E2"/>
<stop offset="1" stop-color="#73F7B3"/>
</linearGradient>
<linearGradient id="paint6_linear_374_1071" x1="55.8621" y1="86.4883" x2="55.8621" y2="99.8926" gradientUnits="userSpaceOnUse">
<stop stop-color="#60D9E2"/>
<stop offset="1" stop-color="#73F7B3"/>
</linearGradient>
<linearGradient id="paint7_linear_374_1071" x1="6.27999" y1="47.0278" x2="6.27999" y2="52.8807" gradientUnits="userSpaceOnUse">
<stop stop-color="#60D9E2"/>
<stop offset="1" stop-color="#73F7B3"/>
</linearGradient>
<linearGradient id="paint8_linear_374_1071" x1="37.5854" y1="30.0723" x2="37.5854" y2="47.5899" gradientUnits="userSpaceOnUse">
<stop stop-color="#60D9E2"/>
<stop offset="1" stop-color="#73F7B3"/>
</linearGradient>
<linearGradient id="paint9_linear_374_1071" x1="54.4861" y1="30.0186" x2="54.4861" y2="47.6564" gradientUnits="userSpaceOnUse">
<stop stop-color="#60D9E2"/>
<stop offset="1" stop-color="#73F7B3"/>
</linearGradient>
<linearGradient id="paint10_linear_374_1071" x1="83.0483" y1="0.0791016" x2="83.0483" y2="18.769" gradientUnits="userSpaceOnUse">
<stop stop-color="#60D9E2"/>
<stop offset="1" stop-color="#73F7B3"/>
</linearGradient>
<linearGradient id="paint11_linear_374_1071" x1="66.2365" y1="30" x2="66.2365" y2="47.648" gradientUnits="userSpaceOnUse">
<stop stop-color="#60D9E2"/>
<stop offset="1" stop-color="#73F7B3"/>
</linearGradient>
<linearGradient id="paint12_linear_374_1071" x1="90.719" y1="29.3838" x2="90.719" y2="35.2913" gradientUnits="userSpaceOnUse">
<stop stop-color="#60D9E2"/>
<stop offset="1" stop-color="#73F7B3"/>
</linearGradient>
<linearGradient id="paint13_linear_374_1071" x1="90.6831" y1="64.6226" x2="90.6831" y2="70.5117" gradientUnits="userSpaceOnUse">
<stop stop-color="#60D9E2"/>
<stop offset="1" stop-color="#73F7B3"/>
</linearGradient>
<linearGradient id="paint14_linear_374_1071" x1="44.1217" y1="0.0209961" x2="44.1217" y2="13.4449" gradientUnits="userSpaceOnUse">
<stop stop-color="#60D9E2"/>
<stop offset="1" stop-color="#73F7B3"/>
</linearGradient>
<linearGradient id="paint15_linear_374_1071" x1="55.8627" y1="0" x2="55.8627" y2="13.414" gradientUnits="userSpaceOnUse">
<stop stop-color="#60D9E2"/>
<stop offset="1" stop-color="#73F7B3"/>
</linearGradient>
<linearGradient id="paint16_linear_374_1071" x1="93.7243" y1="47.0176" x2="93.7243" y2="52.8941" gradientUnits="userSpaceOnUse">
<stop stop-color="#60D9E2"/>
<stop offset="1" stop-color="#73F7B3"/>
</linearGradient>
<linearGradient id="paint17_linear_374_1071" x1="50.5" y1="55" x2="50.5" y2="75" gradientUnits="userSpaceOnUse">
<stop stop-color="#62D9E2"/>
<stop offset="1" stop-color="#72F6B5"/>
</linearGradient>
</defs>
</svg>
