<svg width="90" height="107" viewBox="0 0 90 107" fill="none" xmlns="http://www.w3.org/2000/svg">
<g id="icon">
<g id="Group">
<path id="Vector" d="M67.1006 106.553C64.333 106.524 61.9008 105.813 59.6363 104.505C35.2306 90.4307 16.1087 71.0105 2.24242 46.2164C-1.44779 39.6482 -0.553191 32.9094 4.70256 27.5355C7.55408 24.6068 10.4336 21.7066 13.313 18.8064C17.5903 14.4845 23.3213 14.4845 27.5707 18.8064C30.8415 22.1047 34.1124 25.4314 37.3553 28.7866C41.5208 33.0516 41.5208 38.7668 37.3553 43.0887C36.0134 44.4819 34.6436 45.8467 33.3017 47.24C31.3727 49.2588 31.0652 51.6188 32.435 54.0356C37.0478 62.1961 43.282 68.8211 51.1097 73.9107C53.3462 75.3608 55.9182 75.0765 57.8192 73.2283C59.3568 71.7213 60.8385 70.1575 62.3481 68.6221C66.5974 64.357 72.2725 64.3286 76.4939 68.6221C79.7647 71.9204 83.0356 75.2471 86.2785 78.6023C90.4999 82.9526 90.5279 88.6678 86.3344 92.9897C83.399 96.0037 80.4077 98.9892 77.4444 102.003C74.537 104.96 71.0424 106.496 67.0727 106.581L67.1006 106.553Z" fill="url(#paint0_linear_374_998)"/>
<path id="Vector 46" d="M69.4677 2L50.3223 13.1129L63.6069 34.1482L59.6996 36.9264L77.6729 44.4673V24.2259L73.7657 27.0041L65.9512 15.8912L73.7657 10.7316M82.3616 20.6539L82.7523 43.6735M75.3285 49.23L54.2295 40.1015" stroke="url(#paint1_linear_374_998)" stroke-width="3.53303" stroke-linecap="round" stroke-linejoin="round"/>
</g>
</g>
<defs>
<linearGradient id="paint0_linear_374_998" x1="44.7311" y1="15.5649" x2="44.7311" y2="106.581" gradientUnits="userSpaceOnUse">
<stop stop-color="#61D8E3"/>
<stop offset="1" stop-color="#74F9B0"/>
</linearGradient>
<linearGradient id="paint1_linear_374_998" x1="66.5373" y1="2" x2="66.5373" y2="49.23" gradientUnits="userSpaceOnUse">
<stop stop-color="#62D9E2"/>
<stop offset="1" stop-color="#73F7B3"/>
</linearGradient>
</defs>
</svg>
