<svg width="121" height="120" viewBox="0 0 121 120" fill="none" xmlns="http://www.w3.org/2000/svg">
<g id="Group 266">
<g id="Group">
<path id="Vector" d="M78.5501 119.994C77.0595 119.452 75.4655 119.452 73.9341 119.101C64.7961 117.025 57.4024 112.262 51.7185 104.835C51.2613 104.236 50.8166 104.027 50.0807 104.027C35.6315 104.049 21.1854 103.986 6.73613 104.08C2.74333 104.108 -0.0124839 101.118 4.25282e-05 97.4068C0.0939907 70.7362 0.059543 44.0688 0.028227 17.3983C0.028227 15.8389 0.513626 14.6395 1.61595 13.5529C5.64633 9.57596 9.64852 5.57084 13.6288 1.5438C14.681 0.47598 15.8554 0 17.3711 0C36.0354 0.028183 54.6998 0.0187887 73.3673 0.0187887C77.6827 0.0187887 80.0721 2.40182 80.0752 6.7514C80.0846 18.8169 80.0815 30.8823 80.0689 42.9478C80.0689 43.6868 80.0501 44.1002 81.0773 44.0751C92.8835 43.8027 102.739 48.1648 110.583 56.9203C115.926 62.8826 118.979 69.9408 119.803 77.9323C119.818 78.0951 119.84 78.236 120.025 78.283V85.7797C119.496 87.2703 119.455 88.861 119.114 90.3923C115.835 105.079 103.869 116.59 89.0473 119.327C87.7382 119.568 86.3823 119.53 85.1108 119.991H78.5501V119.994ZM70.0917 45.932C71.8328 45.3778 73.4393 44.9269 75.0928 44.6857C75.8037 44.5824 76.0073 44.3162 76.0073 43.5897C75.9822 31.2111 75.9916 18.8294 75.9885 6.45078C75.9885 4.76606 75.2682 4.03017 73.5709 4.02704C55.3731 4.02078 37.1722 4.02704 18.9744 4.00512C18.2448 4.00512 18.0569 4.19301 18.0725 4.91011C18.1195 7.17414 18.0945 9.44131 18.0882 11.7053C18.0757 15.4443 15.5046 18.0371 11.7937 18.0528C9.52952 18.0622 7.26224 18.0872 4.99809 18.0371C4.22458 18.0183 4.03981 18.2438 4.03981 19.0047C4.0586 45.1304 4.05547 71.2561 4.0586 97.3817C4.0586 99.2512 4.72877 99.9495 6.57642 99.9495C20.2052 99.9589 33.8339 99.9495 47.4658 99.9651C48.2863 99.9651 48.5117 99.8462 48.0796 99.0226C46.7925 96.5738 45.7904 93.9997 45.2267 91.2942C44.9887 90.1512 44.4751 89.9696 43.4323 89.9758C33.6304 90.0165 23.8284 90.004 14.0265 89.9946C10.7634 89.9946 8.09524 87.3955 8.03574 84.2077C7.96998 80.8759 10.4283 78.1891 13.7415 78.0231C14.9096 77.9636 16.084 77.9918 17.2552 77.9918C25.8859 77.9918 34.5166 77.9918 43.1473 77.9793C43.5325 77.9793 44.1369 78.236 44.2653 77.6661C44.5221 76.5325 44.6567 75.3676 44.8321 74.2153C44.9073 73.7142 44.4563 73.7048 44.1745 73.542C42.8185 72.7623 42.0293 71.5943 42.0293 70.0285C42.0105 57.3368 42.0105 44.645 42.0262 31.9533C42.0262 30.0462 43.3039 28.5588 45.1641 28.1047C46.4762 27.7853 47.8071 27.9669 49.1287 27.9544C52.5922 27.9262 54.1079 29.4638 54.1079 32.9397C54.1079 40.2422 54.1079 47.5447 54.1173 54.8473C54.1173 55.2356 53.9795 55.6708 54.2708 56.0247C55.2792 55.0727 56.2092 54.1208 57.2207 53.269C57.7782 52.7993 58.0099 52.3327 58.0037 51.5937C57.9629 47.8454 57.9723 44.097 57.9911 40.3455C58.0036 37.8811 59.4317 36.1964 61.8085 36.0022C63.3211 35.877 64.8587 35.877 66.3682 36.0148C68.6542 36.2214 70.0729 37.8748 70.101 40.1858C70.123 42.0585 70.1042 43.9311 70.1042 45.9227L70.0917 45.932ZM48.0796 81.9124C48.0702 100.685 63.271 115.986 81.9354 115.995C100.687 116.004 115.988 100.732 116.02 81.9687C116.054 63.3648 100.756 48.0583 82.117 48.0489C63.3274 48.0395 48.0859 63.202 48.0765 81.9092L48.0796 81.9124ZM46.0628 69.2206C46.4699 68.967 46.5075 68.5505 46.639 68.206C47.4094 66.205 48.3614 64.2948 49.4825 62.4755C49.8458 61.8836 49.9961 61.3043 49.993 60.6154C49.9773 51.9476 49.9805 43.2797 49.9805 34.6119C49.9805 32.0817 49.9773 32.1662 47.4627 32.0472C46.21 31.9877 46.0315 32.4167 46.0347 33.5378C46.0754 45.406 46.0597 57.2773 46.0597 69.2206H46.0628ZM28.8077 86.002C32.9477 86.002 37.0877 86.0177 41.2276 85.9895C42.189 85.9832 43.52 86.4373 44.0179 85.7922C44.4814 85.1879 44.0492 83.9259 44.0743 82.952C44.0931 82.2756 43.9271 82.0094 43.1661 82.0126C33.5583 82.0407 23.9506 82.0314 14.3428 82.0314C14.1862 82.0314 14.0296 82.0188 13.8762 82.0407C12.8929 82.1754 12.1068 82.9645 12.1037 83.9196C12.0974 84.9248 12.5797 85.6419 13.5943 85.883C14.0046 85.9801 14.443 85.9958 14.8658 85.9958C19.5131 86.002 24.1604 86.002 28.8077 86.002ZM62.1061 49.624C63.2804 49.0009 64.2449 48.4372 65.2564 47.9706C65.8515 47.6951 66.0206 47.3287 65.9955 46.7024C65.9485 45.4968 65.983 44.288 65.983 43.0824C65.983 39.8821 65.983 39.8915 62.7856 40.0606C62.3221 40.0856 62.0904 40.1389 62.0935 40.69C62.1186 43.6054 62.1061 46.5239 62.1061 49.624ZM7.27789 13.9882C8.83117 13.9882 10.3813 14.0289 11.9315 13.9756C13.2154 13.9287 13.9294 13.2836 13.9889 12.0498C14.0641 10.4371 14.0077 8.81815 14.0077 7.26182C11.7655 9.50394 9.54518 11.721 7.27789 13.9882Z" fill="url(#paint0_linear_374_971)"/>
<path id="Vector_2" d="M38.046 47.9395C38.046 55.0448 38.046 62.15 38.046 69.2584C38.046 72.5621 36.5616 74.0526 33.2891 74.0526C32.2337 74.0526 31.1815 74.0683 30.1261 74.0495C27.7712 74.0025 26.055 72.3303 26.055 69.9943C26.0425 55.3548 26.0425 40.7121 26.055 26.0726C26.055 23.6739 27.6804 22.0738 30.0948 22.0237C31.3819 21.9986 32.6721 21.9986 33.9592 22.0237C36.4363 22.0706 38.0303 23.652 38.0366 26.1572C38.0585 33.419 38.0428 40.6808 38.046 47.9426V47.9395ZM30.0447 47.9333C30.0447 54.3339 30.0353 60.7377 30.0541 67.1384C30.0541 68.0653 29.6407 69.296 30.2451 69.8315C30.7556 70.2824 31.9675 69.8784 32.8538 69.9786C33.8465 70.0914 34.0532 69.7438 34.0532 68.7793C34.0187 55.5082 34.0344 42.234 34.0187 28.963C34.0187 28.0047 34.4603 26.7302 33.8152 26.176C33.2703 25.7094 32.027 26.1071 31.1032 26.0131C30.217 25.9223 30.0197 26.2167 30.0259 27.0872C30.0666 34.0359 30.0478 40.9846 30.0478 47.9333H30.0447Z" fill="url(#paint1_linear_374_971)"/>
<path id="Vector_3" d="M22.0748 56.9577C22.0748 61.2133 22.0811 65.4658 22.0748 69.7215C22.0686 72.3425 20.39 74.0272 17.7689 74.0491C16.5193 74.0585 15.2698 74.0773 14.0203 74.0429C11.9128 73.9834 10.3376 72.5429 10.0776 70.4636C10.0181 70.0002 10.0119 69.5305 10.0119 69.0639C10.0087 61.0223 10.0087 52.9808 10.0119 44.9423C10.0119 41.432 11.4712 39.9727 14.9786 39.9727C16.0308 39.9727 17.0893 39.9289 18.1384 39.9978C20.5998 40.1638 22.0717 41.7984 22.0748 44.3129C22.0811 48.5278 22.0748 52.7428 22.0748 56.9608V56.9577ZM14.0986 56.8356C14.0986 60.2676 14.083 63.7028 14.108 67.1349C14.1143 68.0587 13.6915 69.2862 14.299 69.8248C14.8095 70.2757 16.0152 69.8906 16.9014 69.9782C17.844 70.0722 18.0632 69.7246 18.0601 68.8134C18.0225 61.5578 18.0476 54.3022 18.0288 47.0467C18.0288 46.0853 18.4609 44.8265 17.844 44.2378C17.2365 43.6553 15.9838 44.1595 15.0224 44.0499C14.2207 43.9591 14.0736 44.2847 14.0798 45.0175C14.1143 48.9568 14.0955 52.8962 14.0955 56.8387L14.0986 56.8356Z" fill="url(#paint2_linear_374_971)"/>
</g>
<rect id="Rectangle 44" x="12.2322" y="42.8096" width="6.88042" height="29.0492" fill="url(#paint3_linear_374_971)"/>
<rect id="Rectangle 45" x="28.2864" y="25.2271" width="6.88042" height="46.6316" rx="1.52898" fill="url(#paint4_linear_374_971)"/>
<rect id="Rectangle 46" x="44.3408" y="30.5781" width="6.88042" height="41.2804" rx="1.52898" fill="url(#paint5_linear_374_971)"/>
<rect id="Rectangle 47" x="60.395" y="39.7515" width="6.88042" height="32.107" rx="1.52898" fill="url(#paint6_linear_374_971)"/>
<path id="Subtract" fill-rule="evenodd" clip-rule="evenodd" d="M82.1833 116.961C101.394 116.961 116.968 101.388 116.968 82.1786C116.968 62.9687 101.394 47.396 82.1833 47.396C62.9724 47.396 47.3989 62.9687 47.3989 82.1786C47.3989 101.388 62.9724 116.961 82.1833 116.961ZM54.2088 79.1041C53.829 79.178 53.622 79.4219 53.5143 79.7446L53.5137 79.744V80.0402C53.5937 80.2414 53.7128 80.4136 53.8971 80.5578C54.498 81.0289 55.0968 81.5021 55.6957 81.9752C56.245 82.4093 56.7943 82.8433 57.3451 83.2757C57.4534 83.3608 57.4844 83.4341 57.4511 83.563C57.19 84.5792 56.9334 85.5962 56.6767 86.6132C56.5904 86.9551 56.5041 87.2971 56.4176 87.639C56.3791 87.7904 56.3712 87.9405 56.4203 88.0916C56.5934 88.6259 57.2339 88.8309 57.7974 88.5279C59.1215 87.8162 60.4449 87.103 61.7664 86.3868C61.8763 86.3271 61.956 86.3182 62.0735 86.382C63.1371 86.9607 64.2033 87.5354 65.2695 88.11L65.271 88.1108L66.0409 88.5258C66.4161 88.7283 66.79 88.7294 67.0991 88.5125C67.4219 88.286 67.5118 87.9859 67.4213 87.6289C67.2595 86.9911 67.0992 86.353 66.9389 85.7149L66.9384 85.7131C66.7537 84.9781 66.569 84.2431 66.3822 83.5086C66.3601 83.4229 66.3763 83.3742 66.4474 83.3193C66.6756 83.1431 66.9014 82.9642 67.1271 82.7853L67.3377 82.6185C67.5835 82.4241 67.8294 82.2298 68.0754 82.0355L68.0794 82.0324L68.08 82.0318L68.0801 82.0318C68.7257 81.5218 69.3713 81.0118 70.0142 80.499C70.3029 80.269 70.4036 79.974 70.2838 79.6419C70.1673 79.3184 69.9092 79.1251 69.5281 79.0895C69.1783 79.0569 68.8281 79.0287 68.4778 79.0006H68.4778H68.4778C68.3379 78.9894 68.198 78.9782 68.0582 78.9666L67.4015 78.9125C66.5586 78.843 65.7156 78.7734 64.8725 78.7081C64.727 78.6968 64.6437 78.6574 64.5828 78.5271C64.2304 77.7741 63.8742 77.0223 63.518 76.2705L63.5179 76.2703L63.5178 76.27L63.517 76.2683L63.5152 76.2645C63.2692 75.7454 63.0232 75.2262 62.7785 74.7066C62.6149 74.3593 62.3414 74.1495 61.9168 74.1519C61.5005 74.1542 61.2296 74.3602 61.0686 74.7016C60.7834 75.3068 60.497 75.9115 60.2106 76.5162L60.21 76.5173L60.21 76.5173C59.8894 77.1942 59.5687 77.8711 59.2498 78.5487C59.2041 78.6464 59.1485 78.6945 59.027 78.704C57.6433 78.8126 56.26 78.9251 54.8769 79.0376C54.8197 79.0423 54.7622 79.0462 54.7046 79.0501H54.7046C54.5378 79.0614 54.3708 79.0727 54.2088 79.1041ZM74.1555 79.7447C74.2632 79.4221 74.4702 79.1781 74.85 79.1042C75.012 79.0728 75.179 79.0615 75.3458 79.0502H75.3458C75.4034 79.0463 75.4609 79.0424 75.5182 79.0377C76.9012 78.9252 78.2845 78.8127 79.6682 78.7041C79.7897 78.6946 79.8453 78.6465 79.891 78.5489C80.2095 77.8721 80.5298 77.196 80.85 76.5199L80.8514 76.5171C81.1379 75.9122 81.4245 75.3072 81.7098 74.7017C81.8708 74.3604 82.1417 74.1544 82.558 74.152C82.9826 74.1496 83.2561 74.3595 83.4197 74.7067C83.6653 75.2281 83.9121 75.7491 84.159 76.2701C84.5153 77.022 84.8715 77.774 85.224 78.5272C85.2849 78.6575 85.3682 78.697 85.5137 78.7082C86.3568 78.7735 87.1998 78.8431 88.0427 78.9127L88.6994 78.9668C88.8392 78.9783 88.9791 78.9895 89.119 79.0007C89.4693 79.0289 89.8195 79.057 90.1693 79.0896C90.5504 79.1253 90.8085 79.3185 90.925 79.642C91.0448 79.9741 90.9441 80.2691 90.6554 80.4992C90.0125 81.012 89.3669 81.522 88.7212 82.032L88.7211 82.0321C88.4737 82.2275 88.2262 82.423 87.9789 82.6187L87.7682 82.7855C87.5425 82.9644 87.3168 83.1433 87.0886 83.3194C87.0175 83.3743 87.0013 83.423 87.0234 83.5088C87.2104 84.2438 87.3952 84.9794 87.58 85.715L87.5807 85.7174C87.7408 86.3547 87.9009 86.992 88.0625 87.629C88.153 87.9861 88.0631 88.2861 87.7403 88.5126C87.4312 88.7296 87.0573 88.7284 86.6821 88.526L85.9114 88.1105L85.9109 88.1102C84.8447 87.5356 83.7784 86.9609 82.7147 86.3821C82.5972 86.3183 82.5175 86.3272 82.4076 86.3869C81.0861 87.1031 79.7627 87.8163 78.4386 88.528C77.8751 88.8311 77.2346 88.626 77.0615 88.0917C77.0124 87.9407 77.0203 87.7905 77.0588 87.6391C77.1448 87.299 77.2307 86.9588 77.3165 86.6186L77.3179 86.6132L77.3179 86.6131C77.5746 85.5962 77.8312 84.5792 78.0923 83.5631C78.1256 83.4343 78.0946 83.361 77.9863 83.2758C77.4355 82.8434 76.8862 82.4094 76.3369 81.9753C75.738 81.5022 75.1391 81.029 74.5383 80.5579C74.354 80.4137 74.2349 80.2415 74.1549 80.0403V79.7441L74.1555 79.7447ZM95.4914 79.1042C95.1115 79.1781 94.9045 79.4221 94.7969 79.7447L94.7962 79.7441V80.0403C94.8762 80.2415 94.9954 80.4137 95.1797 80.5579C95.7806 81.029 96.3795 81.5022 96.9783 81.9754C97.5276 82.4094 98.0769 82.8434 98.6277 83.2758C98.736 83.361 98.7669 83.4343 98.7337 83.5631C98.4727 84.5788 98.2161 85.5954 97.9596 86.612C97.8732 86.9544 97.7868 87.2968 97.7002 87.6391C97.6617 87.7905 97.6538 87.9407 97.7028 88.0917C97.876 88.626 98.5165 88.8311 99.0799 88.528C100.404 87.8163 101.727 87.1031 103.049 86.3869C103.159 86.3272 103.239 86.3183 103.356 86.3821C104.42 86.961 105.486 87.5357 106.553 88.1105C106.81 88.249 107.067 88.3874 107.323 88.526C107.699 88.7284 108.073 88.7296 108.382 88.5126C108.705 88.2861 108.794 87.9861 108.704 87.629C108.542 86.9912 108.382 86.3531 108.221 85.715C108.037 84.9794 107.852 84.2438 107.665 83.5088C107.643 83.423 107.659 83.3743 107.73 83.3194C107.958 83.1433 108.184 82.9644 108.41 82.7855C108.48 82.7298 108.55 82.6742 108.62 82.6187C108.868 82.423 109.115 82.2275 109.362 82.0321C110.008 81.522 110.654 81.012 111.297 80.4992C111.585 80.2691 111.686 79.9741 111.566 79.642C111.45 79.3185 111.192 79.1253 110.811 79.0896C110.461 79.057 110.111 79.0289 109.76 79.0007C109.62 78.9895 109.481 78.9783 109.341 78.9668C109.122 78.9488 108.903 78.9307 108.684 78.9127C107.841 78.8431 106.998 78.7735 106.155 78.7082C106.01 78.697 105.926 78.6575 105.865 78.5272C105.513 77.774 105.157 77.022 104.8 76.2701C104.553 75.7491 104.307 75.2281 104.061 74.7067C103.897 74.3595 103.624 74.1496 103.199 74.152C102.783 74.1544 102.512 74.3604 102.351 74.7017C102.066 75.3072 101.779 75.9122 101.493 76.5171C101.172 77.1941 100.851 77.8711 100.532 78.5489C100.487 78.6465 100.431 78.6946 100.31 78.7041C98.9259 78.8127 97.5425 78.9252 96.1595 79.0377C96.1022 79.0424 96.0447 79.0463 95.9872 79.0502C95.8204 79.0615 95.6534 79.0728 95.4914 79.1042Z" fill="url(#paint7_linear_374_971)"/>
</g>
<defs>
<linearGradient id="paint0_linear_374_971" x1="60.0125" y1="0" x2="60.0125" y2="119.994" gradientUnits="userSpaceOnUse">
<stop stop-color="#60D9E2"/>
<stop offset="1" stop-color="#73F8B1"/>
</linearGradient>
<linearGradient id="paint1_linear_374_971" x1="32.0471" y1="22.0049" x2="32.0471" y2="74.0588" gradientUnits="userSpaceOnUse">
<stop stop-color="#60D9E2"/>
<stop offset="1" stop-color="#73F8B1"/>
</linearGradient>
<linearGradient id="paint2_linear_374_971" x1="16.0436" y1="39.959" x2="16.0436" y2="74.0628" gradientUnits="userSpaceOnUse">
<stop stop-color="#60D9E2"/>
<stop offset="1" stop-color="#73F8B1"/>
</linearGradient>
<linearGradient id="paint3_linear_374_971" x1="15.6724" y1="42.8096" x2="15.6724" y2="71.8587" gradientUnits="userSpaceOnUse">
<stop stop-color="#61DAE1"/>
<stop offset="1" stop-color="#74F5B7"/>
</linearGradient>
<linearGradient id="paint4_linear_374_971" x1="31.7266" y1="25.2271" x2="31.7266" y2="71.8586" gradientUnits="userSpaceOnUse">
<stop stop-color="#61DAE1"/>
<stop offset="1" stop-color="#74F5B7"/>
</linearGradient>
<linearGradient id="paint5_linear_374_971" x1="47.781" y1="30.5781" x2="47.781" y2="71.8585" gradientUnits="userSpaceOnUse">
<stop stop-color="#65E1D6"/>
<stop offset="1" stop-color="#6BEBC5"/>
</linearGradient>
<linearGradient id="paint6_linear_374_971" x1="63.8352" y1="39.7515" x2="63.8352" y2="71.8585" gradientUnits="userSpaceOnUse">
<stop stop-color="#66E3D3"/>
<stop offset="1" stop-color="#74F5B7"/>
</linearGradient>
<linearGradient id="paint7_linear_374_971" x1="82.1833" y1="47.396" x2="82.1833" y2="116.961" gradientUnits="userSpaceOnUse">
<stop stop-color="#67E5CF"/>
<stop offset="1" stop-color="#73F7B2"/>
</linearGradient>
</defs>
</svg>
