<svg width="98" height="110" viewBox="0 0 98 110" fill="none" xmlns="http://www.w3.org/2000/svg">
<g id="&#208;&#161;&#208;&#187;&#208;&#190;&#208;&#185; 1">
<g id="Group">
<path id="Vector" d="M68.9861 0C70.7973 0.81803 71.4833 2.22447 71.3656 4.18774C71.2594 5.96731 71.3541 7.7555 71.3398 9.54081C71.3226 11.4897 69.9448 12.8904 68.082 12.8876C66.2565 12.8818 64.9132 11.5328 64.8845 9.61257C64.8558 7.75837 64.9505 5.89556 64.8558 4.04709C64.7554 2.10966 65.45 0.743402 67.2697 0.00287028H68.989L68.9861 0Z" fill="url(#paint0_linear_374_1024)"/>
<path id="Vector_2" d="M38.6902 17.9648C52.0514 31.3289 65.381 44.6584 78.7106 57.9938C76.4947 58.4932 74.2042 58.9725 71.9539 59.6413C62.9785 62.3135 54.9877 66.7969 47.7488 72.681C46.463 73.7258 46.4773 73.7516 45.2976 72.5719C38.1363 65.4106 30.9807 58.2435 23.7964 51.1022C23.2166 50.5253 23.1936 50.2096 23.7217 49.5695C30.6276 41.2342 35.4526 31.8398 37.9669 21.2886C38.2339 20.1635 38.4578 19.0297 38.6874 17.9648H38.6902Z" fill="url(#paint1_linear_374_1024)"/>
<path id="Vector_3" d="M18.842 96.7939C16.4166 96.7049 14.1835 96.0103 12.4211 94.2939C9.09161 91.0476 5.76496 87.7927 2.56173 84.4259C-0.851037 80.8409 -0.862518 75.0372 2.57895 71.4953C7.7885 66.1336 13.1301 60.9011 18.3999 55.5968C18.7702 55.2237 18.9539 55.2466 19.3098 55.6025C26.5831 62.8988 33.8679 70.1836 41.1641 77.4597C41.5545 77.8501 41.5975 78.0625 41.1813 78.4758C35.9517 83.6681 30.7536 88.892 25.524 94.0844C23.6899 95.907 21.4022 96.7021 18.842 96.7939ZM15.6846 77.9505C15.7248 79.2737 16.2845 80.2812 17.5101 80.8524C18.8247 81.4638 20.0446 81.2255 21.0664 80.2496C22.5934 78.7915 24.0745 77.2875 25.5527 75.7777C26.8931 74.4086 26.9247 72.4367 25.6675 71.1738C24.3816 69.8851 22.4585 69.8937 21.0722 71.2427C19.5854 72.6893 18.1273 74.1704 16.6663 75.6428C16.0377 76.2772 15.6732 77.0292 15.6875 77.9505H15.6846Z" fill="url(#paint2_linear_374_1024)"/>
<path id="Vector_4" d="M46.2221 0.849609C48.2313 0.866831 49.7783 1.49829 51.0527 2.76409C52.8553 4.55514 54.6492 6.3548 56.4431 8.1516C68.8399 20.5512 81.2423 32.9479 93.6333 45.3504C96.1936 47.9107 96.5524 51.2546 94.6006 53.9785C92.3589 57.1042 87.9645 57.6036 85.0799 55.0577C84.8646 54.8683 84.6637 54.6645 84.4599 54.4636C70.3669 40.3705 56.2709 26.2803 42.1807 12.1815C39.6262 9.62692 39.2588 6.29166 41.2192 3.55628C42.4936 1.77958 44.2674 0.935718 46.2192 0.85248L46.2221 0.849609Z" fill="url(#paint3_linear_374_1024)"/>
<path id="Vector_5" d="M62.3355 84.5351C62.2522 86.903 61.5002 89.0586 59.8584 90.8324C58.5725 92.2217 57.2436 93.5822 55.8486 94.8594C55.1483 95.5024 55.2545 95.8468 55.9032 96.4037C56.8216 97.1959 57.6712 98.0742 58.5209 98.9439C61.0352 101.518 61.0668 105.477 58.6127 108.008C56.1127 110.586 52.1115 110.686 49.4795 108.163C44.732 103.608 40.0276 99.007 35.2859 94.4433C34.8382 94.0127 34.8554 93.7888 35.2859 93.3669C37.9869 90.7062 40.6677 88.0253 43.3256 85.3215C43.7848 84.8565 44.0202 84.8364 44.4909 85.31C46.282 87.1097 48.1391 88.8433 49.9416 90.6287C50.3233 91.0047 50.5386 91.0563 50.9376 90.6401C52.1976 89.3227 53.5237 88.0684 54.7895 86.7538C56.2074 85.2842 56.173 83.4874 54.7235 82.0035C53.65 80.9042 52.5708 79.8048 51.4571 78.7457C51.0266 78.3353 51.084 78.1028 51.526 77.7784C52.9066 76.7623 54.2757 75.7319 55.6305 74.6814C56.0323 74.3714 56.2935 74.3255 56.6781 74.7359C57.654 75.7807 58.7074 76.7537 59.6891 77.7956C61.4571 79.6699 62.2953 81.9288 62.3355 84.5293V84.5351Z" fill="url(#paint4_linear_374_1024)"/>
<path id="Vector_6" d="M80.9291 19.3339C79.5657 19.2621 78.5353 18.6479 78.0158 17.3649C77.5049 16.1048 77.6713 14.8763 78.6357 13.889C80.8114 11.6616 83.0043 9.4515 85.2431 7.28731C86.4946 6.07605 88.4865 6.15355 89.7035 7.34184C90.9004 8.51005 91.0956 10.4532 89.9159 11.7075C87.6857 14.0784 85.3493 16.3488 83.0158 18.6192C82.4762 19.1444 81.7356 19.3913 80.932 19.3339H80.9291Z" fill="url(#paint5_linear_374_1024)"/>
<path id="Vector_7" d="M90.694 32.2161C89.586 32.2161 88.481 32.2305 87.373 32.2132C85.5705 32.1845 84.2186 30.8039 84.21 29.01C84.2014 27.2161 85.5476 25.7982 87.3386 25.7781C89.5516 25.7551 91.7646 25.7522 93.9804 25.7781C95.7456 25.801 97.132 27.2678 97.1148 29.0272C97.0976 30.7408 95.7284 32.1645 94.0149 32.2075C92.9098 32.2362 91.8019 32.2132 90.694 32.2132V32.2161Z" fill="url(#paint6_linear_374_1024)"/>
</g>
</g>
<defs>
<linearGradient id="paint0_linear_374_1024" x1="68.1124" y1="0" x2="68.1124" y2="12.8876" gradientUnits="userSpaceOnUse">
<stop stop-color="#61D8E2"/>
<stop offset="1" stop-color="#73F7B3"/>
</linearGradient>
<linearGradient id="paint1_linear_374_1024" x1="51.0267" y1="17.9648" x2="51.0267" y2="73.4609" gradientUnits="userSpaceOnUse">
<stop stop-color="#61D8E2"/>
<stop offset="1" stop-color="#73F7B3"/>
</linearGradient>
<linearGradient id="paint2_linear_374_1024" x1="20.7378" y1="55.3262" x2="20.7378" y2="96.7939" gradientUnits="userSpaceOnUse">
<stop stop-color="#61D8E2"/>
<stop offset="1" stop-color="#73F7B3"/>
</linearGradient>
<linearGradient id="paint3_linear_374_1024" x1="67.9079" y1="0.849609" x2="67.9079" y2="56.686" gradientUnits="userSpaceOnUse">
<stop stop-color="#61D8E2"/>
<stop offset="1" stop-color="#73F7B3"/>
</linearGradient>
<linearGradient id="paint4_linear_374_1024" x1="48.646" y1="74.4385" x2="48.646" y2="110" gradientUnits="userSpaceOnUse">
<stop stop-color="#61D8E2"/>
<stop offset="1" stop-color="#73F7B3"/>
</linearGradient>
<linearGradient id="paint5_linear_374_1024" x1="84.2202" y1="6.41406" x2="84.2202" y2="19.342" gradientUnits="userSpaceOnUse">
<stop stop-color="#61D8E2"/>
<stop offset="1" stop-color="#73F7B3"/>
</linearGradient>
<linearGradient id="paint6_linear_374_1024" x1="90.6624" y1="25.7598" x2="90.6624" y2="32.2219" gradientUnits="userSpaceOnUse">
<stop stop-color="#61D8E2"/>
<stop offset="1" stop-color="#73F7B3"/>
</linearGradient>
</defs>
</svg>
