<svg width="102" height="120" viewBox="0 0 102 120" fill="none" xmlns="http://www.w3.org/2000/svg">
<g id="&#208;&#187;&#208;&#190;&#208;&#179;&#208;&#190;">
<path id="Vector" d="M50.996 0.0445429C60.6528 0.0445429 70.3139 0.109982 79.9707 0.000914776C82.6594 -0.0296242 84.9265 0.703312 86.9299 2.37423C88.1776 3.41692 89.7548 3.81829 91.1212 4.66465C94.8512 6.97252 97.6235 10.2009 99.5127 13.918C100.765 16.3829 101.96 19.1445 101.96 22.1329C101.942 41.6037 102.114 61.0788 101.859 80.5496C101.78 86.6094 98.5769 91.6396 94.1131 95.7842C91.4507 98.2578 88.3226 99.9288 84.9352 101.155C83.916 101.521 82.7781 102.036 81.7808 101.892C78.3802 101.403 76.5877 103.201 74.949 105.784C72.2822 109.989 69.4879 114.116 66.4081 118.047C66.0391 118.514 65.692 118.684 65.1999 118.793C61.5402 119.613 58.3813 118.165 56.2857 114.932C53.8429 111.158 51.1673 107.529 48.7729 103.729C47.6262 101.909 46.0929 101.469 44.1598 101.478C36.9897 101.499 29.8065 101.739 22.6496 101.425C13.9022 101.041 7.37358 96.7876 3.04605 89.1616C0.752677 85.1174 -0.0381377 80.8768 0.00140324 76.2436C0.15078 59.024 0.190323 41.8 0.010192 24.5848C-0.0952504 14.4415 5.08021 8.12864 13.3443 2.92829C17.7289 0.171062 22.0037 0.0489046 26.6256 0.0401792C34.7491 0.0227284 42.8681 0.0358172 50.9916 0.0358172V0.0532685L50.996 0.0445429ZM5.40972 51.2715C5.40972 60.4986 5.41411 69.7257 5.40533 78.9529C5.40533 81.2171 5.78316 83.2719 6.82879 85.414C10.3567 92.6212 15.9935 96.2248 24.0071 96.2379C31.4716 96.251 38.936 96.2903 46.3961 96.1943C48.7553 96.1637 50.3897 96.9141 51.6726 98.9341C54.3921 103.21 57.3049 107.358 60.0816 111.595C61.5402 113.82 62.8539 113.951 64.3696 111.726C67.0144 107.838 69.5758 103.894 72.1328 99.9462C73.4816 97.8652 74.8831 96.0067 77.7827 96.2074C86.4334 96.8051 96.2483 89.8945 96.1693 78.3552C96.0418 60.3372 96.1649 42.3148 96.1077 24.2968C96.099 22.0021 96.0946 19.5982 95.0709 17.4692C91.499 10.0221 85.48 6.21341 77.1896 6.18724C59.6291 6.13052 42.0641 6.18724 24.5036 6.15234C20.1892 6.14361 16.2132 7.28228 12.8478 9.84319C8.36211 13.2592 5.37896 17.6393 5.40093 23.5814C5.43608 32.8085 5.40972 42.0356 5.40972 51.2627V51.2715Z" fill="url(#paint0_linear_374_964)"/>
<g id="Group 239">
<path id="Ellipse 11" d="M56.5297 23.4077C51.0263 22.3803 45.3438 22.9066 40.1253 24.9272C34.9067 26.9477 30.3603 30.3819 27.0006 34.841C23.6408 39.3002 21.6017 44.6064 21.114 50.1593C20.6263 55.7122 21.7095 61.2901 24.2409 66.2621C26.7724 71.234 30.6511 75.4014 35.4383 78.2928C40.2254 81.1842 45.7299 82.6842 51.329 82.6231C56.928 82.562 62.3981 80.9422 67.1204 77.9469C71.8427 74.9517 75.6287 70.7006 78.0501 65.6746L51 52.7604L56.5297 23.4077Z" fill="#60D9E2"/>
<path id="Ellipse 12" d="M83.5547 60.1718C85.2831 56.3302 86.115 52.1488 85.9881 47.9414C85.8611 43.734 84.7786 39.6099 82.8217 35.8785C80.8648 32.1472 78.0844 28.9054 74.6891 26.3967C71.2938 23.8879 67.3718 22.1772 63.2175 21.3929L58.0007 48.7784L83.5547 60.1718Z" fill="#73F7B2"/>
</g>
</g>
<defs>
<linearGradient id="paint0_linear_374_964" x1="51" y1="0" x2="51" y2="119.018" gradientUnits="userSpaceOnUse">
<stop stop-color="#60D8E3"/>
<stop offset="1" stop-color="#74F9AF"/>
</linearGradient>
</defs>
</svg>
