<svg width="33" height="31" viewBox="0 0 33 31" fill="none" xmlns="http://www.w3.org/2000/svg">
<g id="&#208;&#184;&#208;&#186;&#208;&#190;&#208;&#189;&#208;&#186;&#208;&#176; ID">
<g id="Group">
<path id="Vector" d="M15.2868 30.2897C12.3364 30.2897 9.38562 30.2803 6.43559 30.2985C5.91365 30.3017 5.42361 30.1748 4.92306 30.086C4.49101 30.0097 4.06766 29.8856 3.6657 29.7049C3.30868 29.5445 2.97631 29.3382 2.65553 29.1149C2.30504 28.8709 1.95128 28.6312 1.66204 28.3082C1.37606 27.9888 1.13866 27.6364 0.896535 27.2843C0.669638 26.9544 0.536616 26.5813 0.3572 26.2303C0.283622 26.0862 0.260425 25.9171 0.229978 25.7607C0.159299 25.3963 0.00090614 25.0515 0.00598053 24.6699C0.0128672 24.1676 0.000543684 23.665 0.000543684 23.1627C-0.000181228 18.3736 -0.000181228 13.5845 0.000543684 8.79547C0.000543684 8.46849 0.00561807 8.1415 0.0125047 7.81488C0.0168542 7.61084 0.0259156 7.41443 0.124141 7.21802C0.212943 7.04017 0.207144 6.82339 0.2568 6.6248C0.339078 6.29527 0.497471 6.00357 0.625418 5.69841C0.723281 5.46454 0.886749 5.25722 1.03064 5.04445C1.22275 4.76111 1.42717 4.48687 1.66168 4.23627C1.92482 3.95475 2.21841 3.71324 2.54571 3.50956C2.79001 3.35752 3.0401 3.20694 3.25685 3.01999C3.41234 2.88578 3.52398 2.69774 3.6425 2.52461C3.95059 2.07469 4.30072 1.65678 4.74473 1.34653C5.20541 1.02464 5.65993 0.681653 6.18404 0.464514C6.53164 0.320482 6.90026 0.234281 7.26018 0.125165C7.82452 -0.045782 8.39358 0.00841189 8.96082 0.00732074C12.8224 0.000410102 16.684 0.00368356 20.5453 0.00404728C20.841 0.00404728 21.1372 -0.00104477 21.4318 0.0164137C21.7769 0.0364182 22.1086 0.13935 22.4438 0.217913C22.5022 0.231735 22.5605 0.256104 22.6193 0.257195C22.9125 0.263378 23.189 0.365219 23.4565 0.455785C23.773 0.562718 24.0792 0.719116 24.3619 0.910432C24.6907 1.13303 24.9825 1.39963 25.2869 1.65278C26.1057 2.33293 26.7897 3.1513 27.5682 3.87146C28.4671 4.70328 29.2997 5.60275 30.1873 6.44585C30.5353 6.77647 30.9072 7.0809 31.2312 7.43735C31.5389 7.77597 31.7927 8.14914 32.038 8.53432C32.1932 8.77837 32.3015 9.0428 32.4099 9.30067C32.5451 9.6222 32.7191 9.94409 32.7129 10.3129C32.7126 10.3369 32.7137 10.3631 32.7231 10.3842C32.9438 10.8858 32.9888 11.4244 32.9906 11.9565C33.0029 15.1958 32.9949 18.4347 33 21.674C33.0004 21.9733 32.9195 22.2607 32.9068 22.5549C32.8923 22.8917 32.7528 23.1987 32.6919 23.5246C32.6575 23.7101 32.5723 23.9138 32.4853 24.1025C32.4139 24.2578 32.2983 24.3993 32.2769 24.5783C32.2671 24.6597 32.1776 24.6761 32.1435 24.7416C31.6933 25.6083 31.0438 26.2881 30.2196 26.8049C30.0293 26.9242 29.8488 27.0592 29.6625 27.1847C29.4501 27.328 29.3765 27.5749 29.2315 27.7684C28.9035 28.2064 28.5411 28.609 28.0945 28.9221C27.6936 29.2033 27.2935 29.495 26.8411 29.6881C26.5135 29.8282 26.1858 29.9715 25.8252 30.0308C25.5783 30.0715 25.3156 30.105 25.0908 30.1904C24.7867 30.3061 24.491 30.2846 24.192 30.2854C21.2234 30.2919 18.2549 30.2894 15.2864 30.2894L15.2868 30.2897ZM17.6801 26.7555C18.6275 26.7555 19.5746 26.7566 20.5221 26.7555C22.7367 26.7529 24.9509 26.7497 27.1655 26.7457C27.5548 26.7449 27.9289 26.6402 28.2964 26.5336C28.7111 26.4136 29.1 26.2219 29.4661 25.9859C29.9079 25.7007 30.2997 25.3544 30.6632 24.9802C30.9086 24.7274 31.0884 24.4204 31.2638 24.1105C31.4929 23.7053 31.6712 23.2751 31.7676 22.8313C31.868 22.369 31.921 21.8893 31.9206 21.4088C31.9181 18.4965 31.9184 15.5843 31.9202 12.672C31.9202 12.2239 31.9028 11.779 31.8499 11.3328C31.8108 11.0018 31.7546 10.6752 31.6437 10.3671C31.5632 10.1434 31.478 9.9179 31.3809 9.69858C31.2649 9.4367 31.1489 9.17555 30.9978 8.93113C30.8224 8.64743 30.6045 8.4052 30.3591 8.17787C29.9749 7.82179 29.6157 7.43807 29.2431 7.06926C28.7205 6.55206 28.2022 6.03085 27.6617 5.5311C27.1362 5.04481 26.636 4.52979 26.1376 4.01513C25.5968 3.45682 25.0042 2.9538 24.4605 2.39804C24.0183 1.94594 23.4812 1.63423 22.8661 1.45128C22.517 1.34726 22.1582 1.3087 21.807 1.22287C21.3449 1.11011 20.8729 1.05483 20.392 1.05592C16.675 1.06247 12.958 1.06065 9.241 1.05846C8.70348 1.05846 8.17212 1.07847 7.63967 1.18249C7.02639 1.30252 6.47002 1.53748 5.94519 1.86446C5.57004 2.09833 5.25652 2.40531 4.93285 2.7032C4.6099 3.00035 4.38952 3.36516 4.16843 3.7347C3.99554 4.02349 3.87665 4.33702 3.77589 4.65309C3.70557 4.8735 3.61169 5.09428 3.58741 5.32451C3.55189 5.66095 3.53884 6.00066 3.53848 6.33928C3.53485 9.31231 3.5363 12.285 3.5363 15.258C3.5363 17.4196 3.5363 19.5812 3.53667 21.7427C3.53667 22.0573 3.53522 22.3796 3.61749 22.6789C3.68274 22.9164 3.7632 23.1572 3.84004 23.3933C3.94153 23.7053 4.09231 23.9843 4.2478 24.2637C4.44715 24.6208 4.69906 24.9333 5.00353 25.2151C5.3986 25.5807 5.8002 25.9248 6.27828 26.1797C6.98689 26.5576 7.73463 26.7577 8.53783 26.7573C11.585 26.7555 14.6322 26.7566 17.6793 26.7566L17.6801 26.7555Z" fill="url(#paint0_linear_343_7612)"/>
<path id="Vector_2" d="M18.2603 20.8851C21.1857 20.8851 24.1111 20.8851 27.0365 20.8851C27.4551 20.8851 27.7059 21.0727 27.773 21.4314C27.843 21.8049 27.5671 22.1693 27.1891 22.2003C27.117 22.2061 27.0445 22.2035 26.972 22.2035C21.1633 22.2035 15.3549 22.2035 9.54617 22.2032C9.4262 22.2032 9.30623 22.2119 9.18807 22.1712C8.89665 22.0708 8.70056 21.7765 8.73608 21.4837C8.77777 21.1422 9.0246 20.9043 9.35697 20.8872C9.4291 20.8836 9.50159 20.8851 9.57408 20.8851C12.4694 20.8851 15.3647 20.8851 18.26 20.8851H18.2603Z" fill="url(#paint1_linear_343_7612)"/>
<path id="Vector_3" d="M18.118 17.2014C15.1926 17.2014 12.2673 17.2014 9.34187 17.2014C8.92795 17.2014 8.67386 17.0199 8.60464 16.6776C8.5249 16.2845 8.79927 15.9156 9.19725 15.8833C9.2451 15.8793 9.29366 15.8815 9.34187 15.8815C15.1926 15.8815 21.0434 15.8815 26.8938 15.8815C27.3172 15.8815 27.5817 16.0931 27.6332 16.4714C27.6803 16.8184 27.4223 17.1541 27.0743 17.193C26.9906 17.2025 26.9058 17.201 26.8213 17.201C23.9202 17.2014 21.0188 17.201 18.1177 17.201L18.118 17.2014Z" fill="url(#paint2_linear_343_7612)"/>
<path id="Vector_4" d="M11.5817 9.0312C11.5817 8.06298 11.5846 7.09513 11.5784 6.12691C11.5777 5.98979 11.6146 5.95597 11.7491 5.95706C12.6777 5.9636 13.6063 5.95706 14.5349 5.96397C15.0083 5.9676 15.4712 6.05126 15.9097 6.23421C16.9489 6.66812 17.5886 7.42902 17.7409 8.56091C17.8656 9.48803 17.6937 10.3471 17.0587 11.0669C16.5092 11.69 15.7956 12.0115 14.9848 12.0948C14.0054 12.1955 13.021 12.1195 12.0387 12.1348C11.8912 12.137 11.6944 12.2043 11.6085 12.1013C11.536 12.0144 11.5827 11.8249 11.5824 11.6805C11.5813 10.797 11.5817 9.91394 11.5817 9.03047V9.0312ZM13.0163 9.05484C13.0163 9.63606 13.0206 10.2173 13.013 10.7985C13.0112 10.9367 13.0529 10.9735 13.187 10.9702C13.573 10.9611 13.9594 10.9724 14.3454 10.9644C14.7796 10.9553 15.1975 10.8734 15.5636 10.6206C16.1537 10.2129 16.3501 9.62588 16.328 8.93481C16.299 8.0397 15.7448 7.36755 14.8731 7.1937C14.2935 7.0784 13.706 7.15078 13.1221 7.13114C12.9923 7.12677 13.0166 7.21807 13.0166 7.29263C13.0155 7.88003 13.0163 8.46744 13.0163 9.05448V9.05484Z" fill="url(#paint3_linear_343_7612)"/>
<path id="Vector_5" d="M10.1196 9.06871C10.1196 10.0191 10.1131 10.9695 10.1251 11.9195C10.1276 12.1127 10.0682 12.1487 9.89346 12.1421C9.53826 12.1287 9.1816 12.1341 8.82603 12.1403C8.71657 12.1421 8.68286 12.113 8.68286 11.9992C8.68649 10.0322 8.68649 8.06485 8.68286 6.09786C8.68286 5.98147 8.72128 5.95674 8.82821 5.95856C9.20226 5.96401 9.57632 5.96947 9.95001 5.95638C10.1073 5.95092 10.1229 6.01493 10.1225 6.14515C10.1182 7.11955 10.1204 8.09431 10.1204 9.06871H10.1196Z" fill="url(#paint4_linear_343_7612)"/>
</g>
</g>
<defs>
<linearGradient id="paint0_linear_343_7612" x1="16.5" y1="0" x2="16.5" y2="30.2985" gradientUnits="userSpaceOnUse">
<stop stop-color="#60D8E4"/>
<stop offset="1" stop-color="#74F9AF"/>
</linearGradient>
<linearGradient id="paint1_linear_343_7612" x1="18.2579" y1="20.8848" x2="18.2579" y2="22.2041" gradientUnits="userSpaceOnUse">
<stop stop-color="#60D8E4"/>
<stop offset="1" stop-color="#74F9AF"/>
</linearGradient>
<linearGradient id="paint2_linear_343_7612" x1="18.1148" y1="15.8809" x2="18.1148" y2="17.2014" gradientUnits="userSpaceOnUse">
<stop stop-color="#60D8E4"/>
<stop offset="1" stop-color="#74F9AF"/>
</linearGradient>
<linearGradient id="paint3_linear_343_7612" x1="14.6733" y1="5.95703" x2="14.6733" y2="12.1584" gradientUnits="userSpaceOnUse">
<stop stop-color="#60D8E4"/>
<stop offset="1" stop-color="#74F9AF"/>
</linearGradient>
<linearGradient id="paint4_linear_343_7612" x1="9.40401" y1="5.95605" x2="9.40401" y2="12.1428" gradientUnits="userSpaceOnUse">
<stop stop-color="#60D8E4"/>
<stop offset="1" stop-color="#74F9AF"/>
</linearGradient>
</defs>
</svg>
