<svg width="59" height="44" viewBox="0 0 59 44" fill="none" xmlns="http://www.w3.org/2000/svg">
<g id="icon">
<path id="Vector" d="M29.4982 0.979479C38.0113 0.979479 46.5261 0.981234 55.0391 0.970703C55.4632 0.970703 55.7693 1.07426 56.0685 1.38667C56.9149 2.27302 57.7911 3.13304 58.6727 3.98779C58.912 4.21947 59 4.45466 59 4.78814C58.9912 16.2562 58.9912 27.7226 59 39.1907C59 39.5224 58.9138 39.7593 58.6745 39.9928C57.763 40.8774 56.8621 41.776 55.9752 42.6852C55.7429 42.9239 55.5072 43.0116 55.1728 43.0116C38.0588 43.0028 20.943 43.0028 3.82893 43.0116C3.49636 43.0116 3.25881 42.9256 3.02654 42.6869C2.12386 41.7619 1.2071 40.851 0.283299 39.9471C0.0809425 39.747 0 39.5434 0 39.2591C0.00703847 27.7471 0.00703847 16.2369 0 4.72495C0 4.44237 0.0774232 4.23702 0.281539 4.03869C1.22118 3.119 2.16257 2.20106 3.06701 1.24977C3.34152 0.961927 3.63537 0.979479 3.95914 0.979479C12.4722 0.979479 20.9852 0.979479 29.5 0.979479H29.4982ZM51.4336 5.21288H7.5822C7.86725 5.47966 8.08017 5.68501 8.29836 5.8851C14.5397 11.5911 20.7987 17.2777 27.0049 23.0205C27.8565 23.8086 28.6765 24.1965 29.8343 24.1228C30.5118 24.0789 31.0098 23.9104 31.5077 23.4523C36.7496 18.6344 42.0109 13.8359 47.2651 9.03207C48.6306 7.78416 49.9925 6.53275 51.4354 5.21288H51.4336ZM7.23203 38.7501H51.7609C46.9114 33.913 42.1182 29.1372 37.3356 24.3492C37.0752 24.0894 36.9379 24.1561 36.718 24.3615C35.4158 25.5655 34.1014 26.7572 32.7975 27.9613C32.5635 28.1772 32.34 28.307 31.9969 28.3035C30.3305 28.2825 28.6624 28.286 26.9961 28.3C26.6881 28.3018 26.4664 28.2123 26.2429 28.0034C24.9602 26.8099 23.6546 25.641 22.3806 24.4387C22.0639 24.1403 21.8949 24.1087 21.5641 24.4457C19.5054 26.5378 17.4167 28.6001 15.3386 30.6712C12.6569 33.3443 9.97528 36.0156 7.23203 38.7501Z" fill="url(#paint0_linear_101_1880)"/>
</g>
<defs>
<linearGradient id="paint0_linear_101_1880" x1="29.5" y1="0.970703" x2="29.5" y2="43.0116" gradientUnits="userSpaceOnUse">
<stop stop-color="#60D9E2"/>
<stop offset="0.90625" stop-color="#71F3B8"/>
</linearGradient>
</defs>
</svg>
