<svg width="94" height="67" viewBox="0 0 94 67" fill="none" xmlns="http://www.w3.org/2000/svg">
<g id="vector">
<path id="Vector" d="M46.9972 0.0139857C60.5603 0.0139857 74.1263 0.0167829 87.6894 0C88.3651 0 88.8529 0.165031 89.3294 0.662923C90.6779 2.07548 92.074 3.44608 93.4786 4.80829C93.8598 5.17751 94 5.55233 94 6.08379C93.986 24.3603 93.986 42.6341 94 60.9106C94 61.4393 93.8626 61.8169 93.4814 62.1889C92.0292 63.5987 90.5938 65.0308 89.1809 66.4797C88.8108 66.8601 88.4351 67 87.9025 67C60.636 66.986 33.3668 66.986 6.10033 67C5.57047 67 5.19201 66.8629 4.82195 66.4825C3.38378 65.0084 1.92317 63.5567 0.451357 62.1162C0.128959 61.7973 0 61.4728 0 61.0197C0.0112138 42.6732 0.0112138 24.3296 0 5.98309C0 5.53275 0.123352 5.20549 0.448554 4.88941C1.9456 3.4237 3.44545 1.9608 4.88643 0.444746C5.32377 -0.0139857 5.79195 0.0139857 6.30778 0.0139857C19.8709 0.0139857 33.4341 0.0139857 47 0.0139857H46.9972ZM81.9451 6.7607H12.0801C12.5343 7.18586 12.8735 7.51313 13.2211 7.832C23.165 16.9255 33.1369 25.9883 43.0247 35.1405C44.3816 36.3964 45.688 37.0146 47.5327 36.8971C48.612 36.8272 49.4054 36.5587 50.1987 35.8286C58.5503 28.1505 66.9326 20.5031 75.3037 12.8473C77.4792 10.8585 79.6491 8.86415 81.9479 6.7607H81.9451ZM11.5222 60.2085H82.4666C74.7402 52.4996 67.1036 44.8886 59.4838 37.258C59.0689 36.844 58.8502 36.9503 58.4998 37.2775C56.4252 39.1964 54.3311 41.0956 52.2537 43.0145C51.8808 43.3585 51.5248 43.5655 50.9781 43.5599C48.3232 43.5264 45.6656 43.532 43.0107 43.5543C42.5201 43.5571 42.1668 43.4145 41.8108 43.0816C39.7671 41.1796 37.6869 39.3167 35.6572 37.4006C35.1526 36.9251 34.8834 36.8748 34.3564 37.4118C31.0764 40.746 27.7486 44.0326 24.4378 47.3333C20.1653 51.5933 15.8928 55.8506 11.5222 60.2085Z" fill="url(#paint0_linear_95_598)"/>
</g>
<defs>
<linearGradient id="paint0_linear_95_598" x1="47" y1="0" x2="47" y2="67" gradientUnits="userSpaceOnUse">
<stop stop-color="#60D9E2"/>
<stop offset="0.90625" stop-color="#71F3B8"/>
</linearGradient>
</defs>
</svg>
