<svg width="100" height="102" viewBox="0 0 100 102" fill="none" xmlns="http://www.w3.org/2000/svg">
<g id="vector">
<path id="Vector" d="M60.443 101.975C57.95 101.95 55.7591 101.32 53.7193 100.16C31.7351 87.6868 14.5104 70.4756 2.01993 48.5018C-1.30414 42.6808 -0.498304 36.7085 4.23598 31.9458C6.80458 29.3503 9.39837 26.78 11.9922 24.2096C15.8451 20.3793 21.0074 20.3793 24.8352 24.2096C27.7815 27.1328 30.7278 30.0811 33.649 33.0546C37.4012 36.8345 37.4012 41.8996 33.649 45.7299C32.4402 46.9647 31.2063 48.1742 29.9975 49.409C28.26 51.1981 27.983 53.2897 29.2169 55.4316C33.372 62.6638 38.9877 68.5353 46.0387 73.046C48.0533 74.3311 50.3701 74.0791 52.0825 72.4412C53.4675 71.1056 54.8022 69.7197 56.162 68.3589C59.9898 64.579 65.1018 64.5538 68.9043 68.3589C71.8507 71.282 74.797 74.2303 77.7181 77.2039C81.5207 81.0594 81.5459 86.1244 77.7685 89.9547C75.1244 92.6259 72.4298 95.2718 69.7605 97.9429C67.1415 100.564 63.9938 101.924 60.4179 102L60.443 101.975Z" fill="url(#paint0_linear_95_591)"/>
<g id="Group 166">
<path id="Rectangle 21" d="M54.7188 15.5455V4C54.7188 2.89543 55.6142 2 56.7188 2H68.6603M83.3302 2H96C97.1046 2 98 2.89543 98 4V15.5455M98 30.0287V42.5119C98 43.6164 97.1046 44.5119 96 44.5119H83.3302M69.0245 44.5119H56.7188C55.6142 44.5119 54.7188 43.6164 54.7188 42.5119V30.0287" stroke="url(#paint1_linear_95_591)" stroke-width="4" stroke-linecap="round"/>
<path id="Vector 42" d="M76.5677 9.08496V37.4262M83.6425 29.9241V16.1703M91.1335 19.7129V26.1731M69.0767 29.2989V15.5451M61.7938 19.7129V26.1731" stroke="url(#paint2_linear_95_591)" stroke-width="4" stroke-linecap="round"/>
</g>
</g>
<defs>
<linearGradient id="paint0_linear_95_591" x1="40.2929" y1="21.3369" x2="40.2929" y2="102" gradientUnits="userSpaceOnUse">
<stop stop-color="#61D8E3"/>
<stop offset="1" stop-color="#74F9B0"/>
</linearGradient>
<linearGradient id="paint1_linear_95_591" x1="76.3594" y1="2" x2="76.3594" y2="44.5119" gradientUnits="userSpaceOnUse">
<stop stop-color="#62D9E2"/>
<stop offset="1" stop-color="#72F6B5"/>
</linearGradient>
<linearGradient id="paint2_linear_95_591" x1="76.4636" y1="9.08496" x2="76.4636" y2="37.4262" gradientUnits="userSpaceOnUse">
<stop stop-color="#62D9E2"/>
<stop offset="1" stop-color="#72F6B5"/>
</linearGradient>
</defs>
</svg>
