<svg width="96" height="112" viewBox="0 0 96 112" fill="none" xmlns="http://www.w3.org/2000/svg">
<g id="vector">
<g id="Group">
<path id="Vector" d="M47.9962 0.0419162C57.0849 0.0419162 66.1778 0.103497 75.2665 0.000860832C77.7971 -0.0278773 79.9308 0.661838 81.8163 2.23422C82.9907 3.21542 84.4751 3.59312 85.7611 4.38958C89.2717 6.56136 91.8809 9.59939 93.659 13.0972C94.8374 15.4168 95.9622 18.0155 95.9622 20.8278C95.9456 39.1504 96.1069 57.4771 95.8671 75.7996C95.7926 81.5021 92.7782 86.2357 88.5771 90.1358C86.0713 92.4636 83.1271 94.036 79.9391 95.1896C78.9797 95.5345 77.9088 96.0189 76.9701 95.8835C73.7696 95.4237 72.0826 97.1151 70.5402 99.5455C68.0303 103.503 65.4004 107.387 62.5018 111.086C62.1544 111.525 61.8278 111.685 61.3647 111.788C57.9202 112.56 54.9471 111.197 52.9747 108.155C50.6757 104.603 48.1575 101.188 45.9039 97.6118C44.8247 95.8999 43.3816 95.4852 41.5622 95.4935C34.8139 95.514 28.0531 95.7398 21.3172 95.4442C13.0844 95.0829 6.93984 91.0801 2.86687 83.9038C0.708402 80.098 -0.0358943 76.1076 0.00132069 71.7476C0.141911 55.5434 0.179127 39.3351 0.00959245 23.135C-0.0896474 13.5899 4.78137 7.6493 12.5593 2.75561C16.686 0.160974 20.7094 0.0460208 25.0594 0.0378099C32.705 0.0213881 40.3465 0.0337051 47.9921 0.0337051V0.0501273L47.9962 0.0419162ZM5.0915 48.248C5.0915 56.931 5.09564 65.614 5.08737 74.2971C5.08737 76.4278 5.44297 78.3614 6.4271 80.3772C9.7475 87.1594 15.0527 90.5505 22.5949 90.5628C29.6203 90.5751 36.6457 90.6121 43.6669 90.5218C45.8874 90.493 47.4256 91.1992 48.633 93.1C51.1926 97.1233 53.9341 101.028 56.5474 105.014C57.9202 107.108 59.1566 107.231 60.5831 105.137C63.0724 101.479 65.4831 97.7679 67.8897 94.0524C69.1591 92.0941 70.4782 90.3452 73.2073 90.5341C81.3491 91.0965 90.5867 84.5935 90.5122 73.7346C90.3923 56.7791 90.5081 39.8195 90.4543 22.8641C90.4461 20.7046 90.4419 18.4425 89.4785 16.4391C86.1167 9.43106 80.4518 5.84701 72.6491 5.82238C56.1215 5.76901 39.5898 5.82238 23.0622 5.78954C19.0016 5.78132 15.2595 6.85284 12.0921 9.26274C7.87022 12.4773 5.06255 16.5992 5.08323 22.1908C5.11631 30.8738 5.0915 39.5568 5.0915 48.2398V48.248Z" fill="url(#paint0_linear_95_567)"/>
<path id="Vector_2" d="M76.6557 48.2235C76.6557 54.8579 76.6888 61.4923 76.6474 68.1267C76.6185 72.7289 74.8859 76.473 70.8212 78.9733C69.2003 79.9709 67.4512 80.521 65.5532 80.521C53.3591 80.5333 41.165 80.5662 28.9709 80.5128C23.0909 80.4882 17.8395 75.4426 17.7568 69.539C17.6245 59.9651 17.6824 50.3871 17.7444 40.8132C17.7692 37.34 19.0262 34.3471 21.5817 31.8346C25.5471 27.9426 29.3679 23.9029 33.2672 19.9493C35.988 17.1905 39.2464 15.6961 43.2077 15.7166C50.6383 15.7577 58.0771 15.5113 65.4953 15.7905C72.0865 16.0368 76.4448 20.8772 76.6185 27.7004C76.7921 34.536 76.6557 41.3797 76.6598 48.2194L76.6557 48.2235ZM33.2754 57.7317H33.2837C33.2837 60.0554 33.263 62.3791 33.2878 64.6986C33.3292 68.2704 36.5255 71.797 40.123 71.9037C45.0726 72.0515 50.0304 72.0392 54.98 71.9037C58.5154 71.8052 62.1915 67.7326 62.1956 64.2388C62.1956 59.9363 62.2163 55.6297 62.1956 51.3272C62.1791 47.7555 58.2798 43.6829 54.6906 43.6213C49.8775 43.5433 45.056 43.5515 40.2429 43.6254C36.9597 43.6788 33.3623 47.3121 33.2837 50.5595C33.2258 52.9489 33.2713 55.3423 33.2713 57.7317H33.2754Z" fill="url(#paint1_linear_95_567)"/>
<path id="Vector_3" d="M56.572 58.2367C56.572 60.4864 56.5637 62.7362 56.572 64.9819C56.5803 66.2998 56.0882 67.3918 54.6989 67.4616C53.0325 67.5437 53.0366 66.1848 53.0366 64.9901C53.0283 60.4249 53.0283 55.8596 53.0283 51.2944C53.0283 50.0668 53.1358 48.8229 54.7609 48.8311C56.3487 48.8352 56.5513 50.0833 56.5679 51.2903C56.6051 53.6057 56.5803 55.9253 56.5803 58.2408H56.572V58.2367Z" fill="#60D7E5"/>
<path id="Vector_4" d="M42.1495 58.1992C42.1495 60.5886 42.1495 62.9738 42.1495 65.3632C42.1495 66.3772 41.98 67.4282 40.7395 67.4734C39.5486 67.5145 39.0442 66.6852 38.7837 65.5151C38.5314 64.3861 38.9408 63.3556 38.8912 62.2718C38.7258 58.7329 39.0855 55.1899 38.6472 51.651C38.4777 50.2839 38.9615 48.8593 40.6072 48.8429C42.2116 48.8265 42.1578 50.2757 42.1661 51.4499C42.1785 53.6996 42.1661 55.9535 42.1661 58.2033H42.1495V58.1992Z" fill="#60D7E5"/>
<path id="Vector_5" d="M49.154 58.2446C49.154 60.5683 49.154 62.8879 49.154 65.2115C49.154 66.205 49.154 67.2314 47.7357 67.2109C46.5489 67.1945 45.97 66.4719 45.9618 65.3716C45.9328 60.4533 45.9287 55.5391 45.9618 50.6208C45.97 49.6396 46.5035 48.876 47.5951 48.876C48.7157 48.876 49.1374 49.6806 49.1498 50.6659C49.1788 53.1908 49.1581 55.7198 49.1581 58.2446H49.1498H49.154Z" fill="#60D7E5"/>
</g>
</g>
<defs>
<linearGradient id="paint0_linear_95_567" x1="48" y1="0" x2="48" y2="112" gradientUnits="userSpaceOnUse">
<stop stop-color="#60D8E3"/>
<stop offset="1" stop-color="#74F9AF"/>
</linearGradient>
<linearGradient id="paint1_linear_95_567" x1="47.1918" y1="15.6553" x2="47.1918" y2="80.5423" gradientUnits="userSpaceOnUse">
<stop stop-color="#60D7E5"/>
<stop offset="1" stop-color="#75FAAE"/>
</linearGradient>
</defs>
</svg>
