<svg width="106" height="98" viewBox="0 0 106 98" fill="none" xmlns="http://www.w3.org/2000/svg">
<g id="vector">
<g id="Group">
<path id="Vector" d="M49.1029 97.9716C39.6259 97.9716 30.1477 97.941 20.6719 97.9998C18.9954 98.0104 17.4213 97.5998 15.8135 97.3128C14.4257 97.0657 13.0658 96.6645 11.7747 96.0798C10.6279 95.561 9.56026 94.894 8.5299 94.1717C7.40407 93.3823 6.26776 92.607 5.33868 91.5623C4.42009 90.5294 3.6575 89.3895 2.87978 88.2507C2.15096 87.1836 1.72368 85.9766 1.14737 84.8413C0.911028 84.3755 0.836516 83.8284 0.738718 83.3226C0.511689 82.1438 0.00291063 81.0285 0.0192102 79.7944C0.041331 78.1698 0.00174638 76.5439 0.00174638 74.9193C-0.000582126 59.4291 -0.000582126 43.9389 0.00174638 28.4488C0.00174638 27.3912 0.0180459 26.3335 0.0401667 25.2771C0.0541378 24.6171 0.0832441 23.9818 0.398757 23.3466C0.683999 22.7713 0.665371 22.0701 0.824873 21.4278C1.08916 20.3619 1.59794 19.4184 2.00892 18.4314C2.32327 17.675 2.84834 17.0044 3.31055 16.3162C3.92761 15.3997 4.58425 14.5127 5.33752 13.7021C6.18277 12.7916 7.12581 12.0104 8.17713 11.3516C8.96184 10.8598 9.76517 10.3728 10.4614 9.76812C10.9609 9.33401 11.3194 8.72579 11.7002 8.16581C12.6898 6.71055 13.8144 5.35883 15.2407 4.35532C16.7204 3.31418 18.1804 2.2048 19.8639 1.50246C20.9804 1.03659 22.1645 0.757776 23.3206 0.404845C25.1333 -0.148081 26.9612 0.0272081 28.7832 0.0236788C41.1872 0.00132647 53.5911 0.0119144 65.9939 0.0130908C66.944 0.0130908 67.8951 -0.00337929 68.8417 0.0530897C69.9501 0.117794 71.0154 0.450726 72.0923 0.704836C72.2797 0.749541 72.4672 0.828362 72.6558 0.831892C73.5977 0.851891 74.486 1.18129 75.3452 1.47423C76.3616 1.8201 77.3454 2.32597 78.2535 2.94477C79.3095 3.66475 80.2467 4.52708 81.2247 5.34588C83.8547 7.54582 86.0517 10.1928 88.5525 12.5222C91.4398 15.2127 94.1141 18.122 96.9654 20.849C98.0831 21.9184 99.2776 22.903 100.318 24.056C101.307 25.1512 102.122 26.3582 102.91 27.6041C103.408 28.3935 103.756 29.2488 104.105 30.0828C104.539 31.1228 105.098 32.164 105.078 33.3569C105.077 33.4345 105.08 33.5192 105.11 33.5875C105.82 35.2098 105.964 36.9521 105.97 38.6732C106.009 49.1506 105.984 59.6267 106 70.1041C106.001 71.0723 105.742 72.0017 105.701 72.9534C105.654 74.0428 105.206 75.0357 105.01 76.0898C104.9 76.6898 104.626 77.3486 104.347 77.9592C104.117 78.4615 103.746 78.9192 103.677 79.498C103.646 79.7615 103.358 79.8144 103.249 80.0262C101.803 82.8296 99.7165 85.0284 97.069 86.7001C96.4578 87.086 95.878 87.5224 95.2795 87.9283C94.5973 88.3918 94.3609 89.1906 93.8952 89.8165C92.8416 91.2329 91.6773 92.5352 90.243 93.5482C88.9553 94.4575 87.67 95.401 86.217 96.0257C85.1645 96.4787 84.112 96.9422 82.9536 97.1339C82.1607 97.2657 81.3167 97.3739 80.5948 97.6504C79.618 98.0245 78.668 97.9551 77.7075 97.9574C68.1722 97.9786 58.637 97.9704 49.1018 97.9704L49.1029 97.9716ZM56.7905 86.5401C59.8339 86.5401 62.8761 86.5436 65.9194 86.5401C73.033 86.5319 80.1454 86.5213 87.259 86.5084C88.5094 86.506 89.7109 86.1672 90.8915 85.8225C92.2234 85.4343 93.4726 84.8143 94.6485 84.0508C96.0677 83.1284 97.3263 82.0085 98.494 80.7979C99.2822 79.9803 99.8597 78.9874 100.423 77.9851C101.159 76.6745 101.732 75.2828 102.042 73.8475C102.364 72.3523 102.534 70.8005 102.533 69.2465C102.525 59.8267 102.526 50.407 102.532 40.9873C102.532 39.5379 102.476 38.0991 102.306 36.6556C102.18 35.585 102 34.5286 101.643 33.5322C101.385 32.8087 101.111 32.0793 100.799 31.3699C100.427 30.5228 100.054 29.6782 99.5686 28.8876C99.0051 27.97 98.3054 27.1865 97.5172 26.4512C96.2831 25.2995 95.1294 24.0583 93.9325 22.8654C92.2537 21.1925 90.5888 19.5067 88.8529 17.8902C87.1647 16.3173 85.558 14.6515 83.9572 12.9868C82.2201 11.181 80.3166 9.554 78.5702 7.75641C77.1498 6.29409 75.4244 5.28589 73.4486 4.69414C72.3275 4.35768 71.1749 4.23297 70.0467 3.95533C68.5623 3.59064 67.0464 3.41182 65.5014 3.41535C53.562 3.43653 41.6226 3.43064 29.6832 3.42358C27.9566 3.42358 26.2498 3.48829 24.5395 3.82475C22.5696 4.21297 20.7825 4.97295 19.0967 6.03057C17.8917 6.78702 16.8846 7.77993 15.8449 8.74344C14.8076 9.70459 14.0997 10.8846 13.3895 12.0798C12.8341 13.0139 12.4523 14.028 12.1286 15.0503C11.9027 15.7632 11.6012 16.4773 11.5232 17.222C11.4091 18.3102 11.3672 19.409 11.366 20.5043C11.3544 30.1205 11.359 39.7355 11.359 49.3517C11.359 56.3433 11.359 63.3349 11.3602 70.3264C11.3602 71.3441 11.3555 72.3864 11.6198 73.3546C11.8294 74.1228 12.0879 74.9016 12.3347 75.6651C12.6607 76.6745 13.145 77.5768 13.6445 78.4803C14.2848 79.6356 15.094 80.6462 16.0719 81.5579C17.341 82.7402 18.631 83.8531 20.1666 84.6778C22.4427 85.9001 24.8446 86.5472 27.4246 86.546C37.2124 86.5401 47.0003 86.5436 56.7882 86.5436L56.7905 86.5401Z" fill="url(#paint0_linear_95_576)"/>
<path id="Vector_2" d="M58.6547 67.5537C68.0514 67.5537 77.4481 67.5537 86.8448 67.5537C88.1895 67.5537 88.9952 68.1607 89.2106 69.3207C89.4353 70.5289 88.5493 71.7077 87.335 71.8077C87.1033 71.8265 86.8704 71.8182 86.6376 71.8182C67.9792 71.8182 49.3221 71.8183 30.6638 71.8171C30.2784 71.8171 29.893 71.8453 29.5135 71.7136C28.5774 71.3889 27.9476 70.4371 28.0617 69.4901C28.1956 68.3854 28.9884 67.616 30.056 67.5607C30.2877 67.549 30.5206 67.5537 30.7534 67.5537C40.0535 67.5537 49.3535 67.5537 58.6536 67.5537H58.6547Z" fill="url(#paint1_linear_95_576)"/>
<path id="Vector_3" d="M58.1973 55.6374C48.8006 55.6374 39.4039 55.6374 30.0072 55.6374C28.6776 55.6374 27.8615 55.0504 27.6391 53.9434C27.383 52.6716 28.2643 51.4787 29.5427 51.374C29.6963 51.3611 29.8523 51.3681 30.0072 51.3681C48.8006 51.3681 67.5939 51.3681 86.3861 51.3681C87.746 51.3681 88.5959 52.0528 88.7612 53.2763C88.9126 54.3986 88.0836 55.4845 86.9659 55.6104C86.697 55.641 86.4246 55.6363 86.1533 55.6363C76.8346 55.6374 67.5148 55.6363 58.1961 55.6363L58.1973 55.6374Z" fill="url(#paint2_linear_95_576)"/>
<path id="Vector_4" d="M37.202 29.2119C37.202 26.0802 37.2113 22.9497 37.1915 19.818C37.1892 19.3745 37.3079 19.2651 37.7399 19.2686C40.7227 19.2898 43.7055 19.2686 46.6883 19.291C48.2088 19.3028 49.6956 19.5733 51.1043 20.1651C54.4422 21.5686 56.4971 24.0297 56.9861 27.6908C57.3866 30.6895 56.8348 33.4682 54.795 35.7964C53.03 37.8117 50.7376 38.8516 48.1331 39.121C44.9873 39.4469 41.8252 39.201 38.6701 39.2504C38.1962 39.2575 37.5641 39.4751 37.2881 39.1422C37.0553 38.861 37.2055 38.2481 37.2043 37.7811C37.2008 34.9235 37.202 32.0671 37.202 29.2095V29.2119ZM41.8101 29.2884C41.8101 31.1683 41.8241 33.0483 41.7996 34.9282C41.7938 35.3752 41.9277 35.4941 42.3585 35.4835C43.5984 35.4541 44.8395 35.4905 46.0794 35.4647C47.4742 35.4352 48.8166 35.1706 49.9925 34.3529C51.8879 33.0341 52.5189 31.1354 52.4479 28.9001C52.3547 26.0049 50.5746 23.8309 47.7746 23.2685C45.9129 22.8956 44.0257 23.1297 42.1501 23.0662C41.7333 23.0521 41.8113 23.3473 41.8113 23.5885C41.8078 25.4885 41.8101 27.3884 41.8101 29.2872V29.2884Z" fill="url(#paint3_linear_95_576)"/>
<path id="Vector_5" d="M32.5057 29.3334C32.5057 32.4075 32.4848 35.4815 32.5232 38.5544C32.5313 39.1791 32.3404 39.2955 31.7792 39.2743C30.6383 39.2308 29.4926 39.2485 28.3505 39.2685C27.9989 39.2743 27.8906 39.1802 27.8906 38.812C27.9023 32.4498 27.9023 26.0865 27.8906 19.7243C27.8906 19.3478 28.014 19.2678 28.3575 19.2737C29.559 19.2914 30.7605 19.309 31.9609 19.2667C32.4661 19.249 32.5162 19.4561 32.515 19.8772C32.5011 23.0289 32.5081 26.1818 32.5081 29.3334H32.5057Z" fill="url(#paint4_linear_95_576)"/>
</g>
</g>
<defs>
<linearGradient id="paint0_linear_95_576" x1="53" y1="0" x2="53" y2="98" gradientUnits="userSpaceOnUse">
<stop stop-color="#60D8E4"/>
<stop offset="1" stop-color="#74F9AF"/>
</linearGradient>
<linearGradient id="paint1_linear_95_576" x1="58.6469" y1="67.5527" x2="58.6469" y2="71.82" gradientUnits="userSpaceOnUse">
<stop stop-color="#60D8E4"/>
<stop offset="1" stop-color="#74F9AF"/>
</linearGradient>
<linearGradient id="paint2_linear_95_576" x1="58.1869" y1="51.3662" x2="58.1869" y2="55.6374" gradientUnits="userSpaceOnUse">
<stop stop-color="#60D8E4"/>
<stop offset="1" stop-color="#74F9AF"/>
</linearGradient>
<linearGradient id="paint3_linear_95_576" x1="47.1328" y1="19.2686" x2="47.1328" y2="39.3268" gradientUnits="userSpaceOnUse">
<stop stop-color="#60D8E4"/>
<stop offset="1" stop-color="#74F9AF"/>
</linearGradient>
<linearGradient id="paint4_linear_95_576" x1="30.207" y1="19.2656" x2="30.207" y2="39.2766" gradientUnits="userSpaceOnUse">
<stop stop-color="#60D8E4"/>
<stop offset="1" stop-color="#74F9AF"/>
</linearGradient>
</defs>
</svg>
