<svg width="80" height="95" viewBox="0 0 80 95" fill="none" xmlns="http://www.w3.org/2000/svg">
<g id="vector">
<path id="Vector" d="M60.0036 94.9746C57.5287 94.9493 55.3537 94.3172 53.3288 93.1541C31.5044 80.638 14.4049 63.3683 2.00525 41.3198C-1.29466 35.4789 -0.494682 29.4864 4.20519 24.7075C6.75511 22.1031 9.33004 19.5241 11.905 16.945C15.7299 13.1017 20.8547 13.1017 24.6546 16.945C27.5795 19.8781 30.5044 22.8364 33.4044 25.82C37.1293 29.6128 37.1293 34.6951 33.4044 38.5384C32.2044 39.7774 30.9794 40.9911 29.7795 42.23C28.0545 44.0253 27.7795 46.1239 29.0045 48.2731C33.1294 55.5299 38.7042 61.4214 45.704 65.9474C47.704 67.2369 50.0039 66.9841 51.7038 65.3405C53.0788 64.0004 54.4038 62.6098 55.7537 61.2444C59.5536 57.4516 64.6285 57.4263 68.4034 61.2444C71.3283 64.1774 74.2532 67.1358 77.1531 70.1194C80.928 73.988 80.953 79.0703 77.2031 82.9136C74.5782 85.5938 71.9033 88.2488 69.2534 90.929C66.6534 93.5586 63.5285 94.924 59.9786 94.9999L60.0036 94.9746Z" fill="url(#paint0_linear_95_586)"/>
<path id="Vector 46" d="M62.1205 2L45 11.8824L56.8795 30.5882L53.3855 33.0588L69.4578 39.7647V21.7647L65.9639 24.2353L58.9759 14.3529L65.9639 9.76471M73.6506 18.5882L74 39.0588M67.3614 44L48.494 35.8824" stroke="url(#paint1_linear_95_586)" stroke-width="2.85714" stroke-linecap="round" stroke-linejoin="round"/>
</g>
<defs>
<linearGradient id="paint0_linear_95_586" x1="40" y1="14.0625" x2="40" y2="94.9999" gradientUnits="userSpaceOnUse">
<stop stop-color="#61D8E3"/>
<stop offset="1" stop-color="#74F9B0"/>
</linearGradient>
<linearGradient id="paint1_linear_95_586" x1="59.5" y1="2" x2="59.5" y2="44" gradientUnits="userSpaceOnUse">
<stop stop-color="#62D9E2"/>
<stop offset="1" stop-color="#73F7B3"/>
</linearGradient>
</defs>
</svg>
