<svg width="94" height="94" viewBox="0 0 94 94" fill="none" xmlns="http://www.w3.org/2000/svg">
<g id="&#208;&#161;&#208;&#187;&#208;&#190;&#208;&#185; 1">
<g id="Group">
<path id="Vector" d="M47.3302 0.442624C61.6134 0.442624 75.8966 0.503957 90.177 0.386866C92.8029 0.364563 94.9966 2.87643 93.4635 5.73679C91.2586 9.84889 89.2432 14.0614 87.1805 18.2487C86.425 19.7821 85.2905 20.4874 83.5511 20.4874C59.3639 20.4651 35.1795 20.4651 10.9923 20.4874C9.2529 20.4874 8.12675 19.7709 7.37133 18.2404C5.29464 14.0251 3.16498 9.83774 1.07435 5.63085C-0.294314 2.87922 1.21651 0.442624 4.27441 0.442624C18.6273 0.442624 32.9774 0.442624 47.3302 0.442624Z" fill="url(#paint0_linear_374_1047)"/>
<path id="Vector_2" d="M47.3525 47.1756C55.0655 47.1756 62.7785 47.1756 70.4916 47.1756C73.0784 47.1756 74.6059 49.0853 73.9453 51.6C72.808 55.9435 71.6149 60.2758 70.4191 64.6026C69.9424 66.3311 68.7661 67.1953 66.996 67.2009C64.0441 67.2065 61.0893 67.2232 58.1373 67.187C57.4795 67.1786 57.2481 67.318 57.2704 68.0261C57.3262 69.7629 57.3039 71.4998 57.2788 73.2394C57.2704 73.7217 57.3819 73.9169 57.9032 73.8918C58.7701 73.85 59.6398 73.8918 60.5095 73.8778C62.0371 73.8527 63.1158 74.5748 63.7012 75.9353C64.2922 77.3097 63.9967 78.5977 62.9458 79.6627C60.8468 81.7898 58.7255 83.8947 56.6126 86.0079C54.4272 88.1963 52.2418 90.3848 50.0536 92.5677C48.1748 94.4412 46.4019 94.4523 44.551 92.604C40.275 88.3302 36.0018 84.0508 31.7229 79.7826C30.7612 78.8235 30.3515 77.6972 30.6999 76.3758C31.0372 75.1017 31.893 74.1957 33.1696 73.9671C34.2484 73.7747 35.3857 73.8472 36.4951 73.8974C37.1586 73.928 37.3035 73.7189 37.2868 73.0861C37.2422 71.3855 37.2366 69.6793 37.2868 67.9787C37.3063 67.318 37.1084 67.1786 36.4784 67.187C33.5264 67.2232 30.5717 67.2065 27.6197 67.2009C25.7855 67.1981 24.6231 66.3394 24.1325 64.5552C22.9451 60.2619 21.7687 55.963 20.6231 51.6585C19.9429 49.0909 21.4593 47.1756 24.1102 47.1729C31.8567 47.1729 39.606 47.1729 47.3525 47.1729V47.1756ZM50.6167 72.6122C50.6167 71.0509 50.5888 69.4869 50.6306 67.9257C50.6473 67.3236 50.455 67.1758 49.878 67.1897C48.1776 67.226 46.4772 67.2371 44.7768 67.187C44.0967 67.1674 43.9071 67.3542 43.9238 68.0373C43.988 70.5017 43.9824 72.9662 44.0075 75.4307C44.027 77.2177 43.7761 78.9099 42.2151 80.0753C41.7273 80.4377 42.0562 80.6105 42.2932 80.8475C43.79 82.3446 45.3037 83.825 46.7727 85.3499C47.1964 85.7904 47.4277 85.7263 47.8403 85.3416C49.2898 83.995 50.6668 82.576 52.0355 81.1486C52.6097 80.5492 52.7296 80.1868 51.9965 79.6376C50.9595 78.8625 50.5107 77.7976 50.5971 76.4622C50.678 75.1826 50.6139 73.8946 50.6139 72.6094L50.6167 72.6122Z" fill="url(#paint1_linear_374_1047)"/>
<path id="Vector_3" d="M47.3833 23.8075C58.3327 23.8075 69.282 23.8075 80.2313 23.8075C83.161 23.8075 84.6746 25.9709 83.6349 28.6974C82.0209 32.9266 80.3958 37.1502 78.7679 41.3738C78.0933 43.1218 77.0591 43.8327 75.2138 43.8327C56.5821 43.8327 37.9532 43.8327 19.3215 43.8327C17.5431 43.8327 16.4587 43.1079 15.8176 41.4463C14.159 37.1642 12.5005 32.8792 10.867 28.5859C9.88301 26.0015 11.4412 23.8047 14.2287 23.8047C25.2812 23.8047 36.3365 23.8047 47.3889 23.8047L47.3833 23.8075Z" fill="url(#paint2_linear_374_1047)"/>
</g>
</g>
<defs>
<linearGradient id="paint0_linear_374_1047" x1="47.2684" y1="0.386719" x2="47.2684" y2="20.4874" gradientUnits="userSpaceOnUse">
<stop stop-color="#60D9E2"/>
<stop offset="1" stop-color="#73F7B2"/>
</linearGradient>
<linearGradient id="paint1_linear_374_1047" x1="47.28" y1="47.1729" x2="47.28" y2="93.9816" gradientUnits="userSpaceOnUse">
<stop stop-color="#60D9E2"/>
<stop offset="1" stop-color="#73F7B2"/>
</linearGradient>
<linearGradient id="paint2_linear_374_1047" x1="47.2669" y1="23.8047" x2="47.2669" y2="43.8327" gradientUnits="userSpaceOnUse">
<stop stop-color="#60D9E2"/>
<stop offset="1" stop-color="#73F7B2"/>
</linearGradient>
</defs>
</svg>
